 <?xml version="1.0" standalone="no"?>
<!DOCTYPE svg PUBLIC "-//W3C//DTD SVG 20010904//EN"
 "http://www.w3.org/TR/2001/REC-SVG-20010904/DTD/svg10.dtd">
<svg version="1.0" xmlns="http://www.w3.org/2000/svg"
 width="2048.000000pt" height="2048.000000pt" viewBox="0 0 2048.000000 2048.000000"
 preserveAspectRatio="xMidYMid meet">

<g transform="translate(0.000000,2048.000000) scale(0.100000,-0.100000)"
fill="#000000" stroke="none">
<path d="M6143 18178 l2 -253 513 -3 512 -2 0 -1535 0 -1535 -513 0 -513 0 -1
1273 c0 699 -1 1390 -2 1535 l-1 262 -252 -2 -253 -3 -3 -505 c-2 -277 -4
-506 -6 -507 -2 -2 -461 -4 -1022 -6 l-1019 -2 -2 -255 -1 -255 -257 -3 -256
-2 2 -173 c1 -94 1 -209 0 -254 l-1 -83 -255 0 -255 0 0 -255 0 -255 -255 0
-255 0 0 -5885 0 -5885 255 0 255 0 0 -515 0 -515 515 0 515 0 0 -255 0 -255
6655 0 6655 0 0 255 0 255 510 0 510 0 2 513 3 512 250 0 250 0 3 5888 2 5887
-255 0 -255 0 0 255 0 255 -255 0 -255 0 0 255 0 255 -32 1 c-18 1 -133 1
-255 2 l-223 0 -2 256 -3 256 -1023 2 -1024 2 1 510 1 511 -255 0 -255 0 0
255 0 255 -515 0 -515 0 0 -255 0 -255 -255 0 -255 0 0 -510 0 -510 -297 -1
c-218 0 -3744 0 -4740 1 l-83 0 0 510 0 510 -255 0 -255 0 -2 253 -3 252 -512
3 -512 2 2 -252z m8196 -1510 c0 -689 0 -1380 0 -1535 l1 -283 255 0 255 0 0
510 0 510 1025 0 1025 0 0 -255 0 -255 255 0 255 0 0 -1535 0 -1535 -7170 0
-7170 0 0 1535 0 1535 255 0 255 0 0 255 0 255 1028 0 1027 0 0 -507 0 -508
250 -3 c184 -2 251 -6 257 -15 4 -6 8 -121 8 -254 l0 -243 510 0 510 0 0 255
0 255 255 0 255 0 0 510 0 510 2560 0 2560 0 0 -510 0 -510 257 -2 257 -3 2
-75 c1 -41 3 -155 3 -252 l1 -178 509 0 510 0 1 255 1 255 -516 0 -515 0 0
1535 0 1535 514 0 515 0 0 -1252z m3069 -9245 l2 -3843 -255 0 -255 0 0 -255
0 -255 -6657 2 -6658 3 -3 252 -2 253 -255 0 -255 0 0 3838 c0 2111 3 3842 7
3845 3 4 3229 6 7167 4 l7161 -2 3 -3842z"/>
<path d="M6150 8450 l0 -770 765 0 765 0 0 770 0 770 -765 0 -765 0 0 -770z"/>
<path d="M9220 8450 l0 -770 765 0 765 0 -2 768 -3 767 -762 3 -763 2 0 -770z"/>
<path d="M12807 9213 c-4 -3 -7 -350 -7 -770 l0 -763 764 0 764 0 4 68 c1 37
3 382 3 767 l0 700 -761 3 c-418 1 -764 -1 -767 -5z"/>
<path d="M6150 5378 l0 -768 765 0 765 0 0 765 0 765 -765 2 -765 3 0 -767z"/>
<path d="M9978 6142 l-758 -2 0 -765 0 -765 765 0 765 0 0 764 c0 421 -3 766
-7 768 -5 2 -349 2 -765 0z"/>
<path d="M12800 5375 l0 -765 764 0 764 0 4 58 c2 31 5 375 6 765 l3 707 -771
0 -770 0 0 -765z"/>
</g>
</svg>
