<?xml version="1.0" standalone="no"?>
<!DOCTYPE svg PUBLIC "-//W3C//DTD SVG 20010904//EN"
 "http://www.w3.org/TR/2001/REC-SVG-20010904/DTD/svg10.dtd">
<svg version="1.0" xmlns="http://www.w3.org/2000/svg"
 width="2048.000000pt" height="2048.000000pt" viewBox="0 0 2048.000000 2048.000000"
 preserveAspectRatio="xMidYMid meet">

<g transform="translate(0.000000,2048.000000) scale(0.100000,-0.100000)"
fill="#000000" stroke="none">
<path d="M12290 17155 l0 -255 -255 0 -255 0 -2 -257 -3 -258 -510 0 -510 0
-3 -257 -2 -258 -255 0 -255 0 2 -767 3 -768 253 -3 252 -2 0 -255 0 -255 255
0 255 0 2 -252 3 -253 258 -3 257 -2 -2 -253 -3 -252 -257 -3 -258 -2 0 -255
0 -255 -255 0 -255 0 0 -255 0 -255 -255 0 -255 0 0 -255 0 -255 -255 0 -255
0 -2 -257 -3 -258 -252 -3 -253 -2 0 -255 0 -255 -260 0 -260 0 0 -255 0 -255
-255 0 -255 0 0 -255 0 -255 -255 0 -255 0 0 -255 0 -255 -127 0 c-71 0 -300
-3 -510 -7 l-383 -6 -2 259 -3 259 -257 3 -258 2 0 255 0 255 -255 0 -255 0 0
255 0 255 -510 0 -510 0 0 -255 0 -255 -256 -2 -257 -3 2 -252 1 -253 -257 -2
-258 -3 0 -505 c-1 -278 -2 -623 -3 -767 l-2 -263 -255 0 -255 0 0 -255 0
-255 -255 0 -255 0 0 -510 0 -510 256 -2 256 -3 1 -255 2 -255 258 -3 257 -2
0 -255 0 -255 255 0 255 0 0 -255 0 -255 -255 0 -255 0 0 -255 0 -255 255 0
255 0 2 248 3 247 248 3 247 2 0 -230 0 -230 -207 0 c-113 0 -204 -2 -202 -5
3 -2 96 -5 207 -5 158 -1 202 -4 202 -14 0 -11 -50 -14 -234 -15 l-235 -2 3
26 3 25 214 3 214 3 1 202 2 202 -56 1 c-32 0 -130 1 -220 0 -103 0 -162 3
-162 10 0 6 77 9 220 7 121 -2 220 0 220 5 0 4 -101 7 -225 7 l-225 0 0 -52
c0 -29 -1 -137 -1 -240 0 -108 -4 -190 -9 -193 -6 -4 -10 -110 -10 -261 l0
-254 255 0 255 0 0 255 0 255 255 0 255 0 0 -255 0 -255 255 0 255 0 2 -257 3
-258 252 -3 251 -2 7 -41 c4 -22 5 -136 4 -252 l-4 -212 513 -3 512 -2 0 255
0 255 255 0 255 0 0 254 0 254 505 7 c278 4 509 4 513 0 4 -4 8 -120 9 -258
l1 -252 254 0 253 0 5 255 5 255 253 3 252 2 0 255 0 255 255 0 255 0 0 765 0
765 -255 0 -255 0 0 255 0 255 -255 0 -255 0 -2 258 -3 257 -258 3 -258 2 5
503 c3 276 5 505 5 510 1 4 116 7 256 7 l255 0 0 255 0 255 255 0 255 0 0 255
0 255 255 0 255 0 2 258 3 257 30 2 c17 0 130 2 253 2 l222 1 0 255 0 255 255
0 255 0 1 183 c0 100 1 214 2 252 l2 70 258 3 257 2 0 255 0 255 255 0 255 0
0 255 0 255 255 0 255 0 2 258 3 257 253 3 252 2 0 -260 0 -260 255 0 255 0 0
-255 0 -255 260 0 260 0 0 -255 0 -255 255 0 255 0 0 -255 0 -255 510 0 510 0
0 255 0 255 255 0 255 0 0 255 0 255 258 2 257 3 3 768 2 767 255 0 255 0 -2
768 -3 767 -252 0 -253 0 -2 255 -3 255 -257 3 -258 2 0 503 c0 276 0 620 0
765 l1 262 -255 0 c-195 0 -255 -3 -259 -12 -2 -7 -2 -120 0 -250 l4 -238
-251 0 c-145 0 -250 4 -250 9 0 5 24 9 53 9 238 1 427 5 402 11 -20 4 -26 9
-17 14 6 5 17 5 22 2 7 -4 10 65 8 212 l-3 218 -205 0 c-204 0 -205 0 -205
-22 0 -12 -4 -25 -8 -29 -4 -4 -7 7 -7 24 0 52 -20 37 -21 -15 -4 -215 -19
-265 -19 -64 l0 133 233 -4 c127 -2 240 -2 250 0 16 3 17 24 17 258 l0 254
-255 0 -255 0 0 -255 0 -255 -255 0 -255 0 0 255 0 255 -255 2 -255 3 -3 255
-2 255 -257 3 -258 2 0 255 0 255 -765 0 -765 0 0 -255z m1497 -272 c-4 -3
-108 -6 -231 -5 -224 1 -225 1 -229 -21 -4 -18 -5 -17 -6 6 l-1 27 237 0 c130
0 233 -3 230 -7z m33 -243 c0 -160 -4 -250 -10 -250 -6 0 -10 90 -10 250 0
160 4 250 10 250 6 0 10 -90 10 -250z m-493 138 c-3 -8 -6 -5 -6 6 -1 11 2 17
5 13 3 -3 4 -12 1 -19z m20 -55 c-3 -10 -5 -2 -5 17 0 19 2 27 5 18 2 -10 2
-26 0 -35z m-20 -15 c-3 -8 -6 -5 -6 6 -1 11 2 17 5 13 3 -3 4 -12 1 -19z m13
-293 c6 3 10 2 10 -3 0 -5 14 -9 31 -10 17 0 34 -3 37 -7 3 -3 -18 -5 -46 -4
l-52 2 2 146 2 146 3 -138 c2 -86 7 -136 13 -132z m7 218 c-3 -10 -5 -2 -5 17
0 19 2 27 5 18 2 -10 2 -26 0 -35z m-51 -266 c1 -1 5 -111 7 -245 l5 -242
-249 0 -249 0 0 248 0 247 242 -3 c133 -1 243 -4 244 -5z m1034 -242 l0 -255
260 0 260 0 0 -255 0 -255 255 0 255 0 2 -256 3 -257 250 -1 250 -1 9 -499 c5
-285 5 -506 0 -513 -10 -15 -158 -16 -736 -6 l-278 5 -1 141 c0 78 0 190 1
249 1 58 -3 109 -8 112 -5 3 -122 6 -261 6 l-251 1 0 260 0 259 -255 0 -255 0
-2 253 -3 252 -252 3 -253 2 0 245 c0 227 1 245 18 245 9 0 123 2 252 3 l235
2 3 258 2 257 250 0 250 0 0 -255z m-2037 -508 l2 -248 247 0 c140 0 250 -5
253 -10 4 -5 117 -9 261 -9 l255 0 -1 -252 -1 -253 255 -3 255 -2 1 -240 c0
-159 -3 -240 -10 -240 -6 0 -10 80 -10 235 0 150 -4 235 -10 235 -9 0 -13 -19
-12 -65 1 -17 0 -17 -4 -2 -3 9 -13 18 -22 18 -15 1 -15 2 1 6 23 6 12 23 -16
24 -17 1 -15 3 8 9 17 4 -71 8 -197 9 l-228 1 0 -225 c0 -173 3 -225 13 -226
10 0 10 -2 0 -6 -7 -2 -13 -11 -13 -19 0 -11 41 -13 250 -11 138 1 250 -1 250
-5 0 -5 115 -8 255 -8 l255 0 0 -255 c0 -140 3 -255 8 -255 4 0 6 -112 4 -249
l-3 -249 243 -1 243 -2 -2 241 -2 241 -231 -1 c-157 0 -230 3 -225 10 4 6 90
10 239 10 l234 0 7 -510 7 -510 254 0 254 0 0 -255 0 -255 -260 0 -260 0 -1
258 c-1 141 -5 239 -9 217 l-7 -40 -2 37 -1 36 -225 0 -225 -1 0 -64 c0 -34
-4 -63 -9 -63 -5 0 -8 28 -8 63 l1 62 -262 3 -262 2 -2 258 -3 257 -256 3
-255 2 -2 253 -1 252 -256 3 -257 2 2 98 c1 53 1 168 1 255 l-1 157 -255 0
-255 0 0 255 0 255 -252 2 -253 3 -11 500 c-11 515 -15 585 -14 223 l1 -208
-23 -1 c-13 -1 -122 -1 -243 0 l-220 1 -3 250 -2 250 510 -2 511 -3 2 -248z
m65 246 c-10 -2 -26 -2 -35 0 -10 3 -2 5 17 5 19 0 27 -2 18 -5z m99 1 c-3 -3
-12 -4 -19 -1 -8 3 -5 6 6 6 11 1 17 -2 13 -5z m246 -11 c-13 -2 -35 -2 -50 0
-16 2 -5 4 22 4 28 0 40 -2 28 -4z m2728 -109 c-1 -10 -1 -50 -1 -88 0 -101
-13 -72 -15 34 -1 54 2 87 7 82 5 -5 9 -18 9 -28z m-48 -206 c-1 -43 0 -55 6
-38 6 19 8 9 9 -37 1 -50 -2 -63 -13 -63 -21 0 -22 200 -1 200 1 0 0 -28 -1
-62z m44 -23 c0 -8 -4 -15 -9 -15 -10 0 -11 14 -1 23 9 10 10 9 10 -8z m0 -75
c0 -22 -3 -40 -8 -40 -5 0 -8 18 -7 40 1 22 4 40 8 40 3 0 7 -18 7 -40z m67
-28 c2 -4 -6 -8 -20 -8 -13 0 -24 4 -24 8 0 4 9 8 19 8 11 0 22 -4 25 -8z m66
-2 c0 -5 -12 -10 -26 -10 -14 0 -23 4 -19 10 3 6 15 10 26 10 10 0 19 -4 19
-10z m40 0 c0 -5 -4 -10 -10 -10 -5 0 -10 5 -10 10 0 6 5 10 10 10 6 0 10 -4
10 -10z m45 0 c-3 -5 -10 -10 -16 -10 -5 0 -9 5 -9 10 0 6 7 10 16 10 8 0 12
-4 9 -10z m30 0 c3 -5 1 -10 -4 -10 -6 0 -11 5 -11 10 0 6 2 10 4 10 3 0 8 -4
11 -10z m103 -7 c-10 -2 -26 -2 -35 0 -10 3 -2 5 17 5 19 0 27 -2 18 -5z
m-4998 -292 c0 -156 -4 -252 -10 -256 -7 -4 -10 82 -10 249 0 164 4 256 10
256 6 0 10 -90 10 -249z m480 -1 c0 -137 -4 -250 -8 -250 -4 0 -8 112 -8 250
1 137 4 250 9 250 4 0 7 -112 7 -250z m4647 3 l-1 -238 226 0 c124 0 224 -3
221 -7 -2 -5 -110 -8 -239 -8 l-234 0 0 245 c0 204 2 245 14 245 12 0 14 -40
13 -237z m100 231 c-9 -9 -87 -13 -87 -4 0 5 21 8 46 8 25 0 44 -2 41 -4z m83
-4 c0 -12 -17 -12 -45 0 -17 7 -15 9 13 9 17 1 32 -3 32 -9z m260 3 c0 -4 -56
-9 -125 -11 -69 -1 -125 1 -125 6 0 4 56 9 125 11 69 1 125 -1 125 -6z m-5123
-183 c0 -16 -4 -30 -9 -30 -10 0 -11 44 -1 53 9 10 10 10 10 -23z m0 -102 c-2
-13 -4 -5 -4 17 -1 22 1 32 4 23 2 -10 2 -28 0 -40z m0 -70 c-3 -8 -6 -5 -6 6
-1 11 2 17 5 13 3 -3 4 -12 1 -19z m-197 -13 c7 -9 8 -15 2 -15 -5 0 -12 7
-16 15 -3 8 -4 15 -2 15 2 0 9 -7 16 -15z m197 -72 c-3 -10 -5 -2 -5 17 0 19
2 27 5 18 2 -10 2 -26 0 -35z m-398 -36 c9 -3 5 -5 -10 -6 -23 -1 -26 3 -26
37 l-1 37 10 -32 c6 -18 18 -34 27 -36z m401 3 c0 -5 -19 -9 -42 -9 l-43 2 40
7 c22 4 41 8 43 9 1 0 2 -3 2 -9z m-157 -7 c-40 -2 -107 -2 -150 0 -43 1 -10
3 72 3 83 0 118 -2 78 -3z m697 -271 l0 -247 -247 2 c-190 1 -248 4 -248 14 0
7 6 14 14 17 9 3 11 0 5 -9 -6 -11 -5 -12 7 -3 15 12 24 13 117 15 34 0 62 5
62 10 0 6 -10 10 -22 9 -13 -1 -40 -2 -60 -1 l-38 1 0 66 c0 44 -4 63 -11 59
-6 -4 -5 3 3 14 12 21 20 22 157 20 152 -1 164 3 153 45 -3 12 -1 17 4 13 5
-5 9 -14 9 -20 1 -7 5 -11 11 -10 6 1 7 -21 4 -58 -3 -35 -2 -63 5 -70 7 -7 6
-13 -4 -18 -9 -6 -11 -18 -7 -35 4 -16 2 -26 -4 -26 -6 0 -8 5 -5 10 3 6 1 10
-4 10 -17 0 -13 -20 5 -27 10 -4 20 0 26 10 5 10 14 17 20 17 7 0 6 -5 -2 -15
-10 -13 -9 -15 9 -15 17 0 21 6 21 38 0 20 0 46 1 57 0 11 -1 44 -3 73 -2 29
0 58 3 64 4 7 3 21 -3 31 -5 11 -6 17 -1 14 7 -4 8 55 3 153 0 3 -86 4 -192 2
-137 -2 -195 -6 -200 -15 -6 -9 -8 -9 -8 1 0 7 -13 12 -30 12 -20 0 -30 -5
-30 -15 0 -8 0 -18 -1 -22 0 -4 4 -9 9 -11 6 -2 8 7 5 20 -4 18 -3 20 6 8 9
-12 11 -13 11 -1 0 8 3 12 6 9 3 -4 1 -16 -6 -27 -6 -12 -7 -21 -1 -21 5 0 11
5 13 12 4 12 28 3 28 -11 0 -15 -44 -21 -52 -8 -6 9 -10 8 -18 -3 -5 -8 -10
-10 -11 -5 0 6 -3 23 -5 39 -3 17 -3 40 1 53 l6 24 244 -1 245 -1 0 -247z
m1603 203 c-7 -21 -13 -19 -13 6 0 11 4 18 10 14 5 -3 7 -12 3 -20z m236 20
c-8 -8 -118 -12 -130 -4 -7 4 21 7 61 8 40 0 71 -1 69 -4z m94 -2 c-7 -2 -19
-2 -25 0 -7 3 -2 5 12 5 14 0 19 -2 13 -5z m-2048 -44 c-7 -11 -35 -12 -35 -1
0 4 9 8 20 9 11 1 18 -2 15 -8z m72 5 c-3 -3 -12 -4 -19 -1 -8 3 -5 6 6 6 11
1 17 -2 13 -5z m-327 -36 c0 -12 -3 -18 -7 -14 -11 10 -12 36 -2 36 5 0 9 -10
9 -22z m200 0 c0 -19 -2 -20 -10 -8 -13 19 -13 30 0 30 6 0 10 -10 10 -22z
m111 -1 c-10 -9 -11 -8 -5 6 3 10 9 15 12 12 3 -3 0 -11 -7 -18z m-51 -8 c0
-5 -9 -9 -20 -9 -11 0 -20 6 -20 14 0 9 7 12 20 9 11 -3 20 -9 20 -14z m71 -2
c-10 -9 -11 -8 -5 6 3 10 9 15 12 12 3 -3 0 -11 -7 -18z m-171 3 c0 -5 -4 -10
-9 -10 -6 0 -13 5 -16 10 -3 6 1 10 9 10 9 0 16 -4 16 -10z m-197 -22 c5 -16
-3 -48 -13 -48 -10 0 -30 47 -23 54 11 10 31 7 36 -6z m2414 -10 c-3 -8 -6 -5
-6 6 -1 11 2 17 5 13 3 -3 4 -12 1 -19z m-2488 -43 c0 -5 -4 -3 -9 5 -5 8 -9
22 -9 30 0 16 17 -16 18 -35z m171 -5 c0 -5 -7 -10 -16 -10 -8 0 -12 5 -9 10
3 6 10 10 16 10 5 0 9 -4 9 -10z m40 0 c0 -5 -4 -10 -10 -10 -5 0 -10 5 -10
10 0 6 5 10 10 10 6 0 10 -4 10 -10z m-80 -20 c0 -5 -4 -10 -10 -10 -5 0 -10
5 -10 10 0 6 5 10 10 10 6 0 10 -4 10 -10z m180 0 c-12 -8 -11 -10 7 -10 12 0
27 -9 33 -20 9 -16 8 -18 -5 -14 -8 3 -12 10 -9 15 3 5 -4 9 -14 9 -11 0 -24
6 -30 13 -8 10 -6 13 11 14 17 2 19 0 7 -7z m-140 -40 c0 -5 -4 -10 -10 -10
-5 0 -10 5 -10 10 0 6 5 10 10 10 6 0 10 -4 10 -10z m1877 -62 c-3 -7 -5 -2
-5 12 0 14 2 19 5 13 2 -7 2 -19 0 -25z m450 -10 c-3 -7 -5 -2 -5 12 0 14 2
19 5 13 2 -7 2 -19 0 -25z m-30 -14 c-3 -3 -12 -4 -19 -1 -8 3 -5 6 6 6 11 1
17 -2 13 -5z m30 -26 c-3 -8 -6 -5 -6 6 -1 11 2 17 5 13 3 -3 4 -12 1 -19z
m-397 -42 c0 -2 -7 -7 -16 -10 -8 -3 -12 -2 -9 4 6 10 25 14 25 6z m400 -15
c0 -6 -4 -13 -10 -16 -5 -3 -10 1 -10 9 0 9 5 16 10 16 6 0 10 -4 10 -9z
m-2449 -24 c-10 -9 -11 -8 -5 6 3 10 9 15 12 12 3 -3 0 -11 -7 -18z m2224 -17
c-3 -5 1 -10 9 -10 9 0 16 5 16 11 0 5 4 7 10 4 5 -3 50 -6 100 -6 49 0 90 -4
90 -9 0 -8 -105 -8 -263 -1 -38 1 -24 21 14 21 18 0 28 -4 24 -10z m-118 -7
c-20 -2 -52 -2 -70 0 -17 2 0 4 38 4 39 0 53 -2 32 -4z m-1642 -293 c0 -138
-3 -250 -7 -250 -5 0 -8 105 -8 234 0 129 -3 241 -6 250 -4 10 -1 16 7 16 11
0 14 -46 14 -250z m42 244 c-3 -3 -12 -4 -19 -1 -8 3 -5 6 6 6 11 1 17 -2 13
-5z m427 -245 l5 -246 -32 0 c-18 0 -27 2 -20 4 7 3 11 10 9 16 -1 7 -1 9 1 5
18 -32 23 20 23 234 0 133 2 239 5 237 2 -3 7 -116 9 -250z m4106 1 c0 -160
-4 -250 -10 -250 -6 0 -10 88 -10 243 l0 242 -231 0 c-127 0 -233 3 -236 8 -2
4 106 7 241 7 l246 0 0 -250z m-4500 170 c0 -5 -8 -10 -17 -10 -15 0 -16 2 -3
10 19 12 20 12 20 0z m120 -34 c0 -3 -4 -8 -10 -11 -5 -3 -10 -1 -10 4 0 6 5
11 10 11 6 0 10 -2 10 -4z m-98 -166 c-3 -18 0 -30 7 -30 6 0 11 14 11 30 0
34 7 38 27 13 10 -14 13 -14 11 -3 -2 8 6 16 20 18 16 2 22 -2 22 -15 0 -11 5
-24 12 -31 9 -9 9 -12 0 -12 -7 0 -12 -9 -12 -20 0 -11 -4 -20 -10 -20 -5 0
-10 -5 -10 -11 0 -8 5 -7 16 2 14 11 18 11 28 -2 6 -9 17 -14 24 -12 16 6 15
-5 -2 -23 -18 -18 -26 -18 -26 0 0 8 -5 18 -12 22 -6 4 -8 3 -4 -4 3 -6 -1
-18 -10 -26 -9 -9 -13 -23 -10 -31 7 -19 -40 -21 -47 -2 -4 9 -8 9 -15 -2 -6
-8 -17 -11 -26 -8 -9 4 -16 2 -16 -4 0 -6 -7 -6 -20 1 -11 6 -20 18 -20 28 0
15 -2 15 -10 2 -7 -11 -10 0 -10 37 0 48 2 52 30 65 23 10 30 19 30 40 0 17 5
28 13 28 9 0 12 -10 9 -30z m195 -10 c-1 -22 -13 -27 -20 -7 -4 9 -8 8 -16 -3
-5 -8 -13 -11 -17 -7 -8 8 24 36 43 37 6 0 11 -9 10 -20z m64 -113 c10 -6 19
-17 19 -24 0 -7 5 -13 10 -13 13 0 13 3 -2 35 -6 14 -8 28 -5 31 8 9 56 -48
56 -66 0 -9 -4 -6 -9 6 -13 32 -30 40 -27 12 2 -26 -30 -38 -44 -16 -7 11 -11
10 -19 -2 -9 -13 -11 -13 -21 0 -8 11 -12 12 -16 3 -7 -18 -48 -16 -63 2 -14
17 -7 21 48 28 22 2 32 -1 32 -10 0 -7 5 -13 10 -13 6 0 10 9 10 20 0 11 -4
20 -10 20 -12 0 -14 33 -2 44 4 4 8 -4 10 -18 2 -15 12 -32 23 -39z m-141 -17
c0 -5 -4 -10 -10 -10 -5 0 -10 5 -10 10 0 6 5 10 10 10 6 0 10 -4 10 -10z m65
-70 c-3 -5 -12 -10 -18 -10 -7 0 -6 4 3 10 19 12 23 12 15 0z m50 0 c3 -5 2
-10 -4 -10 -5 0 -13 5 -16 10 -3 6 -2 10 4 10 5 0 13 -4 16 -10z m45 0 c0 -5
-7 -10 -16 -10 -8 0 -12 5 -9 10 3 6 10 10 16 10 5 0 9 -4 9 -10z m620 -35 c0
-9 -52 -12 -212 -13 -274 0 -283 -1 -275 -9 4 -3 30 -5 58 -4 29 1 58 -4 67
-11 12 -10 14 -10 8 -1 -5 10 22 12 126 9 73 -3 136 -5 139 -5 3 -1 7 -38 8
-83 2 -57 -2 -84 -11 -90 -10 -6 -10 -10 2 -19 11 -8 12 -12 3 -16 -16 -6 -18
-103 -3 -103 6 0 8 -19 6 -45 l-5 -46 34 3 c19 1 37 -1 41 -5 4 -4 -10 -8 -32
-8 l-39 -2 39 -6 c22 -3 41 -12 44 -18 3 -10 -51 -13 -250 -13 l-253 0 0 249
0 249 253 0 c192 0 252 -3 252 -13z m4088 4 c-2 -6 -7 -10 -11 -10 -4 1 -115
1 -248 1 -157 0 -238 3 -234 10 9 14 498 14 493 -1z m-1465 -29 c-3 -11 0 -20
6 -20 6 0 11 -17 11 -41 0 -22 -4 -38 -9 -34 -6 3 -12 -14 -14 -37 -2 -24 -4
-4 -5 45 -2 73 -5 87 -18 87 -13 0 -15 -7 -11 -28 3 -15 2 -34 -4 -42 -6 -10
-9 1 -9 37 0 46 3 52 23 55 30 5 36 1 30 -22z m436 -7 c-1 -19 -3 -22 -6 -10
-3 13 -11 17 -24 14 -10 -3 -19 -3 -19 -1 0 4 33 20 48 23 1 1 1 -11 1 -26z
m1031 -223 c0 -126 -3 -230 -7 -230 -5 0 -7 82 -6 183 1 100 2 203 3 230 0 26
2 47 5 47 3 0 5 -103 5 -230z m-1033 168 c-3 -8 -6 -5 -6 6 -1 11 2 17 5 13 3
-3 4 -12 1 -19z m-2 -390 c-16 -12 -485 -10 -485 2 0 6 83 10 223 10 122 0
230 1 240 1 15 0 17 17 19 182 l2 182 6 -185 c3 -118 1 -188 -5 -192z m-473
298 c-6 -48 -12 -46 -12 5 0 22 4 38 8 35 4 -3 6 -21 4 -40z m55 -78 c-2 -13
-4 -5 -4 17 -1 22 1 32 4 23 2 -10 2 -28 0 -40z m-60 -5 c-3 -10 -5 -4 -5 12
0 17 2 24 5 18 2 -7 2 -21 0 -30z m0 -130 c-3 -10 -5 -2 -5 17 0 19 2 27 5 18
2 -10 2 -26 0 -35z m30 -25 c-3 -8 -6 -5 -6 6 -1 11 2 17 5 13 3 -3 4 -12 1
-19z m303 -18 c0 -5 -5 -10 -11 -10 -5 0 -7 5 -4 10 3 6 8 10 11 10 2 0 4 -4
4 -10z m100 -5 c0 -9 -6 -12 -16 -8 -13 5 -13 7 -2 14 17 11 18 11 18 -6z
m-400 -5 c0 -5 -2 -10 -4 -10 -3 0 -8 5 -11 10 -3 6 -1 10 4 10 6 0 11 -4 11
-10z m-2110 -311 l0 -249 -22 14 c-18 11 -56 14 -171 13 l-147 -2 0 66 0 67
43 2 c23 1 58 2 77 2 20 -1 40 5 46 14 10 13 12 13 18 -1 5 -13 10 -14 27 -4
15 8 19 8 15 0 -5 -8 9 -10 43 -9 47 2 63 10 44 21 -5 2 -3 3 2 2 6 -2 10 39
10 106 0 60 -4 109 -8 109 -4 0 -3 9 3 20 6 11 8 20 5 20 -12 0 -20 -6 -21
-15 0 -5 -2 -16 -2 -23 -1 -7 -6 -11 -11 -8 -5 3 -8 -11 -7 -32 1 -31 -2 -37
-22 -40 -16 -2 -25 3 -31 20 l-10 23 0 -22 c-1 -19 -7 -23 -31 -23 -16 0 -30
-5 -30 -11 0 -5 -4 -7 -10 -4 -9 5 -19 8 -65 18 -5 2 -16 6 -23 10 -7 5 -15 2
-18 -8 -8 -19 -3 -25 23 -30 10 -2 20 -4 22 -4 2 -1 -2 -7 -8 -15 -9 -10 -7
-16 5 -27 13 -11 17 -10 25 2 14 23 10 5 -6 -29 -12 -23 -21 -30 -37 -27 -11
3 -23 7 -27 11 -3 4 1 5 10 2 9 -4 22 -2 30 3 11 7 11 9 -3 9 -11 0 -18 8 -18
18 0 11 -8 18 -20 19 -11 1 -20 -3 -20 -9 0 -5 -7 -7 -15 -4 -13 5 -15 0 -9
-29 4 -25 2 -39 -10 -50 -8 -9 -13 -22 -10 -30 4 -8 1 -15 -5 -15 -6 0 -12 10
-12 23 -1 18 -2 18 -6 4 -7 -26 6 -69 17 -62 6 3 10 -1 10 -9 0 -9 -3 -15 -7
-15 -24 4 -35 -2 -29 -18 7 -17 -9 -33 -31 -33 -7 0 -14 10 -14 23 -1 16 -3
17 -6 5 -2 -10 -10 -15 -19 -11 -9 3 -14 -1 -14 -13 0 -9 -3 -15 -6 -12 -3 3
-5 109 -4 234 0 166 4 230 12 236 15 8 28 -10 21 -29 -3 -7 -2 -21 1 -30 11
-27 26 5 21 42 l-4 30 15 -30 15 -30 -6 28 c-5 24 -3 27 24 27 16 0 34 -6 40
-14 7 -8 20 -12 31 -9 15 4 19 0 17 -17 -1 -16 -6 -21 -23 -17 -16 3 -21 0
-17 -10 3 -7 17 -14 32 -14 14 -1 42 -3 61 -4 61 -3 70 3 70 47 l0 39 53 -2
c28 -1 57 -6 62 -10 6 -4 19 -1 30 8 14 10 15 14 5 13 -8 -1 -69 -1 -135 1
l-120 3 125 6 c69 3 133 3 143 1 16 -3 17 -23 17 -252z m-460 247 c0 -2 -7 -6
-15 -10 -8 -3 -15 -1 -15 4 0 6 7 10 15 10 8 0 15 -2 15 -4z m77 -2 c-3 -3
-12 -4 -19 -1 -8 3 -5 6 6 6 11 1 17 -2 13 -5z m90 0 c-3 -3 -12 -4 -19 -1 -8
3 -5 6 6 6 11 1 17 -2 13 -5z m2891 -239 c-1 -135 -5 -245 -10 -245 -4 0 -8
110 -8 245 0 142 4 245 9 245 6 0 9 -103 9 -245z m60 238 c-10 -2 -26 -2 -35
0 -10 3 -2 5 17 5 19 0 27 -2 18 -5z m-2918 -37 c0 -3 -4 -8 -10 -11 -5 -3
-10 -1 -10 4 0 6 5 11 10 11 6 0 10 -2 10 -4z m40 -16 c0 -11 -4 -20 -10 -20
-5 0 -10 9 -10 20 0 11 5 20 10 20 6 0 10 -9 10 -20z m13 -156 c-4 -11 -8 -12
-13 -4 -6 9 -9 9 -13 -1 -4 -10 -6 -9 -6 4 -1 11 6 17 19 17 14 0 18 -5 13
-16z m127 6 c0 -5 -5 -10 -11 -10 -5 0 -7 5 -4 10 3 6 8 10 11 10 2 0 4 -4 4
-10z m-64 -35 c2 -12 -2 -13 -18 -4 -16 9 -18 13 -7 20 15 9 22 5 25 -16z m74
-40 c9 -10 9 -15 1 -15 -6 0 -11 -5 -11 -11 0 -6 7 -8 16 -5 8 3 12 2 9 -3 -3
-6 -14 -9 -24 -8 -16 1 -18 5 -9 20 7 15 7 22 -3 28 -8 5 -9 9 -3 9 6 0 17 -7
24 -15z m194 -238 c32 -9 40 -9 44 2 4 11 6 11 13 0 8 -12 11 -11 19 1 5 8 10
10 10 5 0 -10 7 -12 65 -16 14 -1 25 -5 25 -10 0 -15 37 -10 50 6 14 16 50 21
50 6 0 -5 -10 -12 -22 -14 -17 -3 -14 -5 10 -6 21 -1 32 4 32 13 0 7 9 16 20
19 13 3 20 0 20 -9 0 -8 -5 -14 -12 -14 -6 0 -3 -7 8 -15 16 -12 17 -16 5 -24
-8 -5 -30 -7 -50 -5 l-36 4 35 -11 c44 -14 61 -27 58 -47 -2 -8 5 -16 15 -17
18 -3 23 10 7 20 -5 3 -10 14 -9 23 0 14 2 13 9 -3 8 -19 9 -19 9 3 1 12 -4
22 -11 22 -6 0 -8 3 -5 7 4 3 2 12 -4 20 -8 9 -8 13 -1 13 6 0 12 10 14 22 4
28 27 36 25 9 -1 -12 -4 -21 -7 -21 -3 0 -4 -35 -3 -77 2 -43 4 -147 5 -231
l3 -152 -232 0 c-127 0 -238 -3 -247 -6 -14 -6 -16 21 -16 250 l0 256 33 -6
c17 -3 50 -10 71 -17z m943 -176 c-1 -28 -5 -52 -7 -55 -7 -7 -12 83 -5 94 12
19 15 9 12 -39z m460 12 c-3 -10 -5 -4 -5 12 0 17 2 24 5 18 2 -7 2 -21 0 -30z
m0 -90 c-2 -16 -4 -5 -4 22 0 28 2 40 4 28 2 -13 2 -35 0 -50z m-459 -24 c-1
-25 -3 -28 -10 -14 -5 9 -7 23 -4 31 9 23 15 16 14 -17z m2 -116 c0 -21 -3
-24 -9 -14 -5 8 -7 20 -4 28 8 21 13 15 13 -14z m-4 -58 c1 -14 -2 -25 -7 -25
-5 0 -9 11 -9 25 0 33 15 33 16 0z m111 -22 c-20 -2 -52 -2 -70 0 -17 2 0 4
38 4 39 0 53 -2 32 -4z m-3140 -29 c-3 -3 -12 -4 -19 -1 -8 3 -5 6 6 6 11 1
17 -2 13 -5z m440 -76 l-2 -83 43 -1 c49 -1 60 -8 43 -28 -7 -8 -11 -23 -9
-33 2 -14 -5 -19 -34 -21 l-37 -3 0 -100 c0 -97 10 -124 29 -76 l9 22 0 -22
c1 -17 5 -21 18 -16 13 5 15 2 11 -15 -4 -12 -1 -25 5 -29 7 -5 -26 -10 -73
-13 l-85 -5 -3 -42 c-3 -43 -3 -43 -42 -43 -21 0 -42 5 -45 10 -3 6 -1 10 5
10 6 0 8 5 3 12 -4 7 -7 22 -8 33 0 16 -8 21 -43 23 l-44 3 4 -43 3 -43 -43
-3 -42 -3 0 45 0 46 -85 0 -85 0 2 238 c1 130 4 186 5 125 4 -128 -3 -120 95
-104 30 5 49 4 51 -2 2 -6 9 -7 16 -3 9 6 9 11 1 21 -7 8 -8 20 -4 26 4 7 6
34 5 62 l-1 49 40 -4 40 -4 0 43 0 42 -47 4 c-27 2 32 4 129 5 l177 2 -2 -82z
m2163 72 c-8 -5 -31 -10 -50 -10 -35 0 -36 -1 -37 -40 -1 -22 -7 -48 -12 -57
-8 -14 -11 -2 -9 50 l1 67 61 0 c43 0 57 -3 46 -10z m130 0 c0 -12 -8 -12 -35
0 -18 8 -17 9 8 9 15 1 27 -3 27 -9z m84 -2 c-2 -3 -13 -6 -24 -5 -24 2 -18
13 9 13 11 0 18 -4 15 -8z m173 -16 c3 -23 -12 -31 -19 -10 -3 7 -18 13 -34
14 -53 3 -59 7 -24 14 53 11 73 6 77 -18z m-124 11 c-7 -2 -19 -2 -25 0 -7 3
-2 5 12 5 14 0 19 -2 13 -5z m-297 -20 c-10 -11 -36 -12 -36 -2 0 5 10 9 22 9
12 0 18 -3 14 -7z m167 0 c-7 -2 -19 -2 -25 0 -7 3 -2 5 12 5 14 0 19 -2 13
-5z m257 -93 c0 -16 -4 -30 -9 -30 -5 0 -8 8 -6 18 2 9 4 23 4 30 2 26 11 11
11 -18z m-2224 -68 c-4 -3 -12 0 -19 7 -9 9 -9 14 3 21 11 7 16 5 18 -6 2 -9
1 -18 -2 -22z m-38 16 c-7 -19 -38 -22 -38 -4 0 10 9 16 21 16 12 0 19 -5 17
-12z m2262 -133 c0 -146 -15 -202 -22 -80 -1 36 0 65 4 65 4 0 6 36 5 80 -1
44 1 80 6 80 4 0 7 -65 7 -145z m-2260 101 c0 -3 -4 -8 -10 -11 -5 -3 -10 -1
-10 4 0 6 5 11 10 11 6 0 10 -2 10 -4z m36 -23 c-10 -10 -19 5 -10 18 6 11 8
11 12 0 2 -7 1 -15 -2 -18z m-78 -51 c-3 -35 -5 -37 -38 -39 -38 -2 -50 9 -50
48 0 25 3 27 46 27 l45 1 -3 -37z m166 12 c11 -28 6 -54 -10 -54 -11 0 -14 6
-9 20 5 16 2 20 -14 20 -14 0 -21 -6 -21 -20 0 -11 -4 -20 -10 -20 -5 0 -10
16 -10 35 0 33 2 35 34 35 22 0 36 -6 40 -16z m1655 -47 c-1 -7 -1 -21 1 -32
l1 -20 9 20 c7 15 9 9 9 -25 1 -43 -11 -70 -32 -70 -4 0 -7 34 -6 75 1 41 6
72 11 69 5 -3 8 -11 7 -17z m-1745 -46 c-9 -37 -23 -51 -51 -51 -21 0 -24 -4
-21 -32 2 -25 9 -34 28 -39 16 -5 1 -7 -42 -8 l-68 -1 0 40 0 40 40 0 c25 0
40 5 41 13 1 6 2 23 3 37 1 28 19 39 53 32 19 -4 22 -9 17 -31z m-166 -6 c0
-35 0 -35 -45 -35 -42 0 -44 1 -41 27 2 22 10 29 33 34 51 11 53 10 53 -26z
m2285 23 c4 -10 7 -10 14 -1 6 8 14 9 23 3 10 -6 11 -10 3 -10 -7 0 -10 -7 -7
-15 4 -8 2 -15 -3 -15 -12 0 -53 34 -53 44 0 11 18 6 23 -6z m-43 -18 c0 -5
-4 -10 -10 -10 -5 0 -10 5 -10 10 0 6 5 10 10 10 6 0 10 -4 10 -10z m117 -12
c-3 -8 -6 -5 -6 6 -1 11 2 17 5 13 3 -3 4 -12 1 -19z m-157 -19 c0 -6 -4 -7
-10 -4 -5 3 -10 11 -10 16 0 6 5 7 10 4 6 -3 10 -11 10 -16z m-31 -12 c8 -10
7 -14 -4 -14 -8 0 -15 6 -15 14 0 7 2 13 4 13 2 0 9 -6 15 -13z m191 -19 c0
-25 -3 -29 -10 -18 -13 20 -13 50 0 50 6 0 10 -15 10 -32z m-2020 -7 c0 -5 -9
-7 -20 -4 -11 3 -27 0 -35 -7 -13 -11 -14 -10 -9 4 6 17 64 23 64 7z m1985 -9
c-8 -8 -105 -7 -105 1 0 4 25 7 55 6 30 -1 53 -4 50 -7z m-1982 -32 c4 -18 0
-20 -35 -20 -42 0 -51 22 -10 25 12 1 25 5 29 8 9 10 10 9 16 -13z m1600 -1
c20 -1 20 -2 -3 -9 -39 -13 -50 -11 -50 6 0 11 5 14 16 10 9 -3 25 -6 37 -7z
m447 1 c0 -12 -238 -11 -245 0 -4 6 43 9 119 9 70 -1 126 -5 126 -9z m-3558
-101 c-5 -89 -1 -97 37 -91 29 4 31 7 31 46 l0 41 75 0 c41 0 75 -4 75 -8 0
-5 5 -5 10 -2 6 3 10 21 10 39 l0 34 -107 1 c-59 1 -109 4 -112 6 -2 3 102 5
232 5 l237 0 0 -79 0 -80 43 -3 c42 -3 42 -3 42 -43 0 -25 -5 -40 -12 -41 -7
-1 -27 -2 -44 -3 l-32 -1 6 -62 c3 -34 3 -92 0 -129 l-6 -66 -78 4 -79 4 -1
-28 c-3 -66 -4 -68 -29 -69 -58 -2 -60 -3 -60 -38 0 -34 -1 -34 -49 -38 -33
-2 -47 0 -41 7 5 6 6 44 3 85 l-6 75 -38 -3 c-37 -4 -38 -5 -41 -45 l-3 -42
-43 2 -43 1 3 -41 c3 -40 5 -42 36 -43 17 -1 37 -2 42 -3 6 0 10 -35 10 -81 0
-70 -2 -80 -17 -78 -10 1 -30 0 -45 0 l-27 -2 0 -84 c1 -77 -8 -119 -24 -117
-28 4 -48 -1 -46 -11 3 -26 -1 -39 -11 -33 -5 3 -8 18 -6 34 3 25 0 27 -37 30
l-39 2 3 -45 4 -44 -40 -5 c-58 -6 -65 0 -65 49 0 24 -4 44 -9 44 -14 0 -23
-37 -16 -60 3 -11 3 -25 -1 -32 -12 -20 -22 23 -13 60 6 30 5 33 -13 30 -17
-2 -21 -11 -24 -48 -1 -25 0 -69 3 -99 5 -48 7 -52 17 -32 7 12 15 19 18 15 4
-3 12 -3 19 2 17 10 73 14 87 5 16 -10 24 -81 9 -82 -7 0 -25 -2 -42 -2 -31
-2 -32 -4 -34 -63 -1 -29 -3 -31 -33 -29 -29 2 -33 6 -30 29 2 14 -1 26 -7 26
-6 0 -11 7 -11 15 0 12 -16 15 -85 15 -97 0 -90 10 -79 -112 7 -64 7 -66 32
-62 14 3 34 15 45 27 13 15 21 18 24 10 3 -7 14 -12 26 -12 17 1 18 2 5 6 -10
2 -18 9 -18 14 0 6 8 5 20 -1 35 -19 24 -40 -20 -40 l-40 0 0 -45 0 -45 -39 0
c-40 0 -40 0 -43 -42 -3 -41 -5 -43 -37 -46 -38 -4 -51 9 -51 51 0 23 -4 27
-30 27 -16 0 -33 -1 -36 -2 -3 -2 -7 -35 -9 -75 -1 -39 -5 -75 -8 -81 -6 -8
-30 -9 -74 -4 -9 2 -13 27 -13 87 0 50 -4 85 -10 85 -5 0 -10 -15 -10 -34 0
-19 -4 -38 -10 -41 -6 -4 -10 8 -10 29 0 25 -4 36 -15 36 -10 0 -15 -11 -15
-35 0 -31 -3 -35 -35 -41 -46 -8 -69 10 -61 47 6 31 -7 38 -56 31 -24 -4 -28
-9 -28 -38 0 -33 1 -34 44 -34 l44 0 -2 -42 c-2 -43 -2 -43 -43 -46 -36 -3
-41 -6 -45 -30 -7 -52 0 -62 43 -62 l40 0 -3 -37 c-3 -36 -5 -38 -40 -41 -38
-3 -38 -4 -38 -48 l0 -44 44 0 44 0 -1 -37 c-2 -38 -2 -38 -49 -41 -27 -2 -48
-6 -48 -10 0 -4 -34 -6 -75 -4 l-75 4 -1 -36 c-1 -20 -2 -49 -3 -66 -1 -25 2
-28 22 -23 14 3 22 1 22 -7 0 -7 7 -10 15 -6 9 3 15 0 15 -9 0 -11 -11 -15
-39 -15 -40 0 -40 0 -43 -42 -3 -43 -3 -43 -45 -46 -43 -3 -43 -3 -43 -43 0
-39 0 -39 -40 -39 l-40 0 0 40 0 40 -85 0 -85 0 0 -86 c0 -82 1 -85 23 -84 52
5 56 2 55 -40 l0 -40 -72 -1 c-101 -2 -101 -2 -104 -25 -2 -15 -13 -24 -35
-29 -31 -7 -32 -7 -7 -14 22 -6 23 -8 7 -14 -27 -10 -37 0 -37 39 0 34 0 34
-45 34 l-45 0 0 -40 c0 -40 0 -40 -39 -40 -40 0 -40 0 -43 42 l-3 41 -80 -2
c-44 -1 -81 -3 -82 -4 -1 -1 -3 -38 -5 -82 l-3 -80 38 -3 c36 -3 37 -4 37 -43
0 -39 0 -39 -41 -39 l-40 0 3 -87 c2 -49 2 -125 0 -170 l-2 -81 -47 1 c-32 1
-47 -2 -46 -10 2 -11 -42 -11 -53 0 -12 12 7 24 31 20 19 -4 27 0 34 18 13 38
3 49 -45 49 -41 0 -44 -2 -45 -27 -1 -16 -1 -31 0 -35 0 -5 -17 -8 -39 -8 -39
0 -40 1 -40 34 l0 34 -82 4 c-46 2 -86 2 -90 0 -5 -2 -8 -37 -8 -78 l0 -74
-50 0 -50 0 0 39 c0 38 -10 53 -38 57 -27 5 -25 14 3 14 16 0 26 2 23 5 -6 6
-175 14 -343 15 -218 3 -144 15 120 20 l260 5 3 252 2 253 253 2 252 3 3 131
3 131 42 -1 42 -1 -3 77 c-2 43 -1 91 3 108 6 26 11 30 41 30 21 0 33 -4 29
-10 -7 -11 -5 -12 40 -15 41 -2 55 4 55 26 0 18 -10 19 -127 21 l-128 1 155 6
c85 3 200 6 255 6 l100 0 3 -82 3 -83 41 0 41 0 -5 51 c-3 28 -12 55 -19 60
-10 6 -10 9 -1 9 6 0 12 5 12 11 0 5 -6 7 -12 3 -9 -5 -9 -2 1 9 12 15 10 17
-23 17 l-37 0 2 164 c3 205 9 286 20 286 5 0 9 -22 9 -49 0 -31 5 -51 13 -54
25 -9 37 6 37 44 0 42 -1 41 70 44 103 4 100 3 100 35 l0 30 -127 2 -128 1
165 8 c91 4 172 6 180 3 8 -3 49 -2 92 2 l78 7 0 81 c0 44 3 158 7 251 l6 170
246 4 c135 2 247 5 249 6 3 3 8 179 11 388 l1 117 248 0 249 0 6 137 c4 75 7
189 7 255 0 65 3 118 8 118 4 0 5 -32 4 -71z m3595 -6 c-2 -16 -4 -3 -4 27 0
30 2 43 4 28 2 -16 2 -40 0 -55z m470 -30 c-2 -16 -4 -5 -4 22 0 28 2 40 4 28
2 -13 2 -35 0 -50z m-3067 -13 c0 -40 0 -40 -40 -40 -36 0 -39 2 -36 23 3 12
5 30 5 40 1 13 10 17 36 17 34 0 35 -1 35 -40z m-172 -5 c1 -26 -2 -33 -13
-29 -8 4 -12 10 -9 15 5 9 -18 39 -30 39 -3 0 -1 -11 4 -24 9 -24 5 -36 -12
-36 -4 0 -8 16 -8 35 0 33 2 35 33 35 32 0 34 -2 35 -35z m3235 -256 c-4 -4
-7 20 -6 54 5 167 8 184 10 73 2 -66 0 -123 -4 -127z m-3313 171 l0 -40 40 0
40 0 0 -40 0 -40 -40 0 -40 0 0 40 0 40 -40 0 -40 0 0 40 0 40 40 0 40 0 0
-40z m-88 -46 c4 -3 2 -18 -2 -34 -6 -20 -5 -30 3 -34 7 -2 -7 -5 -30 -5 l-43
-1 0 40 c0 39 1 40 33 40 19 0 36 -3 39 -6z m340 -36 c4 -38 3 -38 -34 -38
-38 0 -38 0 -38 40 0 40 1 41 34 38 32 -2 35 -5 38 -40z m4605 -101 c-2 -23
-3 -1 -3 48 0 50 1 68 3 42 2 -26 2 -67 0 -90z m-4867 42 c0 -5 -4 -7 -10 -4
-5 3 -10 -3 -10 -15 0 -12 4 -19 9 -16 5 3 11 -1 15 -9 4 -11 -2 -15 -19 -15
-22 0 -25 4 -25 35 0 28 4 35 20 35 11 0 20 -5 20 -11z m-63 -46 c-3 -10 -5
-2 -5 17 0 19 2 27 5 18 2 -10 2 -26 0 -35z m-107 -3 c0 -5 -8 -10 -17 -10
-15 0 -16 2 -3 10 19 12 20 12 20 0z m90 -34 c0 -18 -14 -33 -38 -40 -12 -4
-20 -12 -17 -17 4 -5 1 -9 -4 -9 -6 0 -11 17 -11 38 0 36 1 37 35 38 19 0 35
-4 35 -10z m342 -28 c4 -38 3 -38 -34 -38 -38 0 -38 1 -38 39 0 39 1 40 34 38
32 -2 35 -5 38 -39z m3056 -3 c-1 -19 -6 -35 -11 -35 -5 0 -6 7 -3 16 3 9 6
24 6 35 0 10 2 19 5 19 3 0 5 -16 3 -35z m1549 -22 c-3 -10 -5 -2 -5 17 0 19
2 27 5 18 2 -10 2 -26 0 -35z m-2007 -3 c0 -5 -4 -10 -10 -10 -5 0 -10 5 -10
10 0 6 5 10 10 10 6 0 10 -4 10 -10z m300 0 c0 -5 -15 -9 -32 -9 l-33 1 30 8
c17 4 31 8 33 9 1 0 2 -3 2 -9z m-237 -7 c-7 -2 -21 -2 -30 0 -10 3 -4 5 12 5
17 0 24 -2 18 -5z m94 1 c-3 -3 -12 -4 -19 -1 -8 3 -5 6 6 6 11 1 17 -2 13 -5z
m66 -1 c-7 -2 -19 -2 -25 0 -7 3 -2 5 12 5 14 0 19 -2 13 -5z m150 0 c-13 -2
-33 -2 -45 0 -13 2 -3 4 22 4 25 0 35 -2 23 -4z m147 -17 c0 -2 -7 -6 -15 -10
-8 -3 -15 -1 -15 4 0 6 7 10 15 10 8 0 15 -2 15 -4z m-3663 -118 c-3 -8 -6 -5
-6 6 -1 11 2 17 5 13 3 -3 4 -12 1 -19z m-58 -73 c-1 -21 -3 -24 -6 -9 -3 16
-9 20 -24 17 -10 -3 -19 -1 -19 4 0 14 7 19 30 19 16 0 20 -6 19 -31z m-29
-47 c0 -5 -4 -8 -10 -8 -5 0 -10 10 -10 23 0 18 2 19 10 7 5 -8 10 -18 10 -22z
m-134 -15 c12 -12 18 -28 16 -45 -3 -26 -6 -28 -53 -28 l-49 0 0 -45 c0 -45
-19 -65 -21 -22 -1 15 -3 17 -6 6 -4 -15 -42 -33 -51 -25 -1 2 0 15 4 30 4 19
13 26 31 26 13 0 22 4 19 8 -3 5 3 15 13 24 13 11 17 26 15 46 -3 23 1 32 14
35 34 9 49 7 68 -10z m209 -3 c-3 -5 -13 -10 -21 -10 -8 0 -14 5 -14 10 0 6 9
10 21 10 11 0 17 -4 14 -10z m45 0 c0 -5 -7 -10 -15 -10 -8 0 -15 5 -15 10 0
6 7 10 15 10 8 0 15 -4 15 -10z m-5 -30 c4 -6 -6 -10 -22 -10 -22 0 -25 2 -13
10 19 12 27 12 35 0z m5 -30 c0 -5 -18 -10 -40 -10 -22 0 -40 5 -40 10 0 6 18
10 40 10 22 0 40 -4 40 -10z m-90 -80 c0 -5 -4 -10 -10 -10 -5 0 -10 5 -10 10
0 6 5 10 10 10 6 0 10 -4 10 -10z m-140 -30 c0 -5 -4 -10 -10 -10 -5 0 -10 5
-10 10 0 6 5 10 10 10 6 0 10 -4 10 -10z m-230 -4 c0 -2 -7 -6 -15 -10 -8 -3
-15 -1 -15 4 0 6 7 10 15 10 8 0 15 -2 15 -4z m245 -26 c-5 -15 -1 -22 17 -29
21 -9 21 -10 -9 -10 -18 -1 -33 1 -33 3 0 2 -3 11 -6 20 -4 11 -1 16 10 16 9
0 16 5 16 10 0 6 3 10 6 10 3 0 2 -9 -1 -20z m4218 -17 c-7 -2 -21 -2 -30 0
-10 3 -4 5 12 5 17 0 24 -2 18 -5z m75 0 c-10 -2 -26 -2 -35 0 -10 3 -2 5 17
5 19 0 27 -2 18 -5z m-4538 -13 c0 -5 -4 -10 -10 -10 -5 0 -10 5 -10 10 0 6 5
10 10 10 6 0 10 -4 10 -10z m30 0 c0 -5 -5 -10 -11 -10 -5 0 -7 5 -4 10 3 6 8
10 11 10 2 0 4 -4 4 -10z m4045 0 c3 -5 -1 -10 -10 -10 -9 0 -13 5 -10 10 3 6
8 10 10 10 2 0 7 -4 10 -10z m182 -6 c-3 -3 -12 -4 -19 -1 -8 3 -5 6 6 6 11 1
17 -2 13 -5z m-4317 -65 c0 -10 -4 -19 -10 -19 -5 0 -9 6 -7 13 1 6 -4 11 -12
9 -12 -3 -12 0 -2 12 16 19 31 12 31 -15z m-83 -70 l3 -39 -39 0 c-48 0 -58
20 -26 52 38 38 60 33 62 -13z m91 -86 c-3 -36 -5 -38 -41 -41 l-37 -3 0 40 0
41 40 0 40 0 -2 -37z m-82 -90 c-2 -37 -3 -38 -42 -38 -38 0 -39 1 -41 38 l-1
37 43 0 42 0 -1 -37z m-86 -83 l0 -40 -40 0 c-40 0 -40 0 -40 38 0 37 1 38 40
40 l40 3 0 -41z m158 -8 c3 -31 2 -32 -32 -32 -40 0 -46 12 -17 37 11 9 18 20
15 24 -2 4 4 6 13 5 12 -2 19 -13 21 -34z m-78 -47 c3 -2 4 -19 2 -37 -3 -29
-7 -33 -30 -32 -15 1 -32 3 -38 3 -9 1 -13 61 -5 79 1 3 62 -8 71 -13z m-166
-35 c1 -31 -2 -35 -29 -37 -42 -4 -54 3 -48 26 4 15 13 21 35 21 18 0 27 4 22
11 -3 6 -17 8 -29 5 -13 -3 -27 -1 -30 5 -5 7 7 9 36 7 41 -3 43 -4 43 -38z
m-1051 -107 c-7 -2 -19 -2 -25 0 -7 3 -2 5 12 5 14 0 19 -2 13 -5z m527 -120
c17 -20 14 -54 -4 -65 -16 -11 -64 -10 -71 2 -3 5 -3 25 1 45 5 30 10 35 33
35 15 0 33 -8 41 -17z m180 -22 c0 -34 -2 -36 -34 -38 -31 -1 -33 1 -34 30 -1
35 5 41 42 43 24 2 26 -2 26 -35z m-84 -84 c-2 -18 -4 -35 -5 -39 0 -5 -17 -8
-36 -8 -34 0 -35 1 -35 39 0 36 3 40 28 43 42 5 50 -1 48 -35z m172 -4 c-3
-36 -5 -38 -40 -41 l-38 -3 0 40 0 41 41 0 40 0 -3 -37z m-283 -86 c1 -31 -3
-37 -21 -37 -12 0 -25 7 -28 16 -5 12 -2 15 10 10 11 -4 15 0 14 17 -3 34 -1
39 13 34 6 -2 12 -20 12 -40z m149 25 c-6 -4 -14 -14 -17 -22 -4 -10 -6 -8 -6
8 -1 15 5 22 17 22 10 0 13 -3 6 -8z m46 -27 c0 -33 -2 -35 -35 -35 -19 0 -35
5 -35 10 0 10 14 14 38 11 12 -2 16 11 13 37 -1 6 3 12 9 12 5 0 10 -16 10
-35z m-78 -81 c5 -41 -3 -47 -54 -42 -24 2 -33 8 -32 21 1 9 2 26 3 37 1 16 8
20 40 20 37 0 39 -2 43 -36z m168 26 c0 -5 -16 -10 -35 -10 -19 0 -35 5 -35
10 0 6 16 10 35 10 19 0 35 -4 35 -10z m-4611 -87 c-1 -5 -1 -119 0 -255 l1
-248 255 0 255 0 0 -255 0 -255 255 0 255 0 0 -255 0 -255 255 0 255 0 0 -253
c0 -140 3 -257 7 -261 9 -8 9 -28 11 -296 l2 -205 173 -1 c94 0 321 -4 503 -9
l330 -8 0 -501 -1 -501 -252 -3 -253 -2 0 -255 0 -254 -255 -1 -254 0 5 249
c4 153 2 251 -4 255 -5 3 -237 6 -516 7 l-506 1 0 136 c0 373 -14 842 -24 842
-7 0 -12 -9 -12 -20 0 -11 4 -20 9 -20 11 0 7 -361 -6 -385 -7 -13 -7 -20 2
-23 6 -2 11 -8 11 -13 0 -5 -103 -9 -245 -9 l-245 0 -2 258 -3 257 -255 2
c-140 0 -254 4 -252 7 1 3 2 103 2 221 l0 215 23 1 22 2 -22 4 c-35 7 -28 31
10 36 31 4 31 4 -5 5 -21 1 -38 7 -38 12 0 6 -92 10 -255 10 l-255 0 0 244 0
245 252 1 c138 0 253 2 255 4 2 2 -225 7 -506 11 l-509 7 1 249 c1 173 5 249
13 249 8 0 10 -67 9 -225 0 -124 2 -225 7 -225 4 0 8 -5 8 -11 0 -5 -4 -7 -10
-4 -5 3 -10 -1 -10 -10 0 -14 25 -16 238 -13 l237 3 5 245 5 245 260 5 260 6
-257 2 -258 2 0 245 0 245 231 0 c126 0 228 -4 225 -8 -3 -5 -26 -8 -51 -7
-35 2 -48 -2 -53 -14 -6 -17 -47 -61 -57 -61 -11 0 -4 39 8 43 7 2 8 8 3 13
-5 5 -11 4 -13 -3 -3 -7 -13 -13 -24 -13 -10 0 -19 -4 -19 -10 0 -19 -32 -10
-37 10 -3 11 -10 20 -15 20 -5 0 -7 -10 -4 -22 3 -13 3 -17 0 -10 -9 19 -24
14 -17 -5 4 -12 0 -11 -11 5 -10 12 -23 22 -29 22 -7 0 -4 -5 6 -11 14 -8 16
-14 6 -25 -9 -11 -8 -14 5 -14 9 0 16 -7 16 -16 0 -9 14 -29 30 -44 17 -15 30
-35 30 -44 0 -9 5 -16 10 -16 6 0 10 -13 10 -30 0 -27 -8 -35 -32 -31 -5 0 -8
-4 -8 -10 0 -6 7 -9 14 -6 10 4 13 1 9 -9 -3 -9 0 -12 8 -9 10 4 14 -5 15 -30
0 -19 -3 -35 -8 -35 -5 0 -6 5 -3 10 9 15 -4 12 -21 -4 -8 -8 -14 -22 -14 -30
0 -9 -4 -16 -10 -16 -5 0 -10 16 -10 35 0 21 -5 35 -12 35 -9 0 -9 3 0 12 14
14 16 78 2 78 -5 0 -10 7 -10 16 0 20 -24 44 -44 44 -9 0 -16 8 -16 19 0 20
-14 22 -39 7 -9 -6 -12 -5 -7 2 3 5 0 13 -6 16 -10 5 -10 7 0 12 15 7 16 50 0
60 -6 4 -9 3 -6 -2 3 -5 0 -15 -7 -21 -11 -10 -15 -6 -18 25 -2 20 -5 -21 -6
-93 -3 -138 -1 -248 3 -253 9 -8 66 -9 66 -1 0 10 73 12 84 2 10 -10 39 -13
56 -6 8 3 30 5 48 4 28 -2 32 0 32 23 0 28 9 33 28 14 9 -9 12 -5 12 20 0 18
-4 32 -10 32 -14 0 -12 37 3 43 9 4 8 8 -3 16 -12 8 -11 13 10 31 20 18 22 23
10 30 -12 8 -12 10 -1 10 7 0 11 6 8 15 -4 8 -3 17 2 19 4 3 6 19 3 36 -4 30
-3 31 38 34 15 1 16 5 19 48 0 12 3 19 6 16 3 -3 7 -75 9 -162 3 -155 16 -233
16 -100 0 41 4 64 9 56 6 -10 10 -9 14 7 3 12 1 18 -4 15 -6 -3 -7 6 -4 23 5
21 4 24 -4 13 -9 -12 -11 -10 -11 10 0 24 19 65 21 45 2 -24 18 34 18 68 1 27
-4 40 -16 44 -39 15 38 21 281 22 137 1 246 4 243 8 -4 3 -115 5 -247 4 -158
-1 -240 2 -240 9 0 6 84 10 240 10 l240 0 0 231 c0 202 -2 230 -15 219 -8 -6
-20 -10 -27 -7 -8 3 -5 7 7 8 11 2 -88 6 -220 9 l-240 6 258 2 c141 1 256 -1
256 -5z m3088 -180 c-2 -27 -3 -5 -3 47 0 52 1 74 3 48 2 -27 2 -69 0 -95z
m563 121 c0 -2 -7 -4 -15 -4 -8 0 -15 4 -15 10 0 5 7 7 15 4 8 -4 15 -8 15
-10z m360 -35 c0 -24 -23 -21 -28 4 -2 10 3 17 12 17 10 0 16 -9 16 -21z
m-4467 -15 c-7 -19 -10 -18 -16 5 -3 13 -1 18 9 14 7 -2 10 -11 7 -19z m5 -35
c-2 -6 -8 -10 -13 -10 -5 0 -11 4 -13 10 -2 6 4 11 13 11 9 0 15 -5 13 -11z
m4542 -29 c0 -5 -16 -10 -35 -10 -19 0 -35 5 -35 10 0 6 16 10 35 10 19 0 35
-4 35 -10z m-4559 -67 c-5 -9 -8 2 -8 29 -1 39 -1 41 7 14 5 -16 6 -36 1 -43z
m4551 13 c2 -5 -12 -10 -29 -11 -30 -2 -44 11 -27 27 7 8 53 -5 56 -16z m-72
-59 l0 -43 -40 4 c-39 4 -40 5 -40 43 0 39 0 39 40 39 l40 0 0 -43z m-4237
-160 l202 -2 -240 -2 c-132 -1 -231 2 -220 6 11 5 25 6 32 4 8 -3 11 16 9 69
-2 40 -1 78 3 83 3 6 7 -27 9 -72 l3 -83 202 -3z m3924 98 c0 -8 -4 -12 -9 -9
-4 3 -8 9 -8 15 0 5 4 9 8 9 5 0 9 -7 9 -15z m178 5 c-5 -8 13 -14 36 -12 3 1
5 -9 5 -21 -1 -24 -21 -36 -48 -29 -24 6 -26 72 -2 72 8 0 12 -4 9 -10z m-125
-20 c0 -5 -4 -10 -10 -10 -5 0 -10 5 -10 10 0 6 5 10 10 10 6 0 10 -4 10 -10z
m325 -40 c-7 -12 -45 -14 -45 -2 0 4 11 9 26 10 14 1 23 -2 19 -8z m-65 -50
c0 -39 -1 -40 -34 -40 -29 0 -34 4 -38 28 -6 42 -2 48 37 50 35 3 35 2 35 -38z
m-170 5 c0 -14 0 -28 0 -32 0 -4 -18 -7 -40 -7 -22 1 -40 4 -40 8 0 3 0 17 0
31 0 23 4 25 40 25 36 0 40 -2 40 -25z m-720 -109 c0 -3 -4 -8 -10 -11 -5 -3
-10 -1 -10 4 0 6 5 11 10 11 6 0 10 -2 10 -4z m-3767 -23 c-3 -7 -9 -13 -14
-13 -5 0 -9 6 -9 13 0 8 6 14 14 14 8 0 12 -6 9 -14z m-143 -23 c0 -5 -5 -10
-11 -10 -5 0 -7 5 -4 10 3 6 8 10 11 10 2 0 4 -4 4 -10z m4200 -25 c0 -33 -2
-35 -35 -35 -33 0 -35 2 -35 35 0 33 2 35 35 35 33 0 35 -2 35 -35z m153 12
c7 -20 -6 -36 -25 -33 -24 3 -35 16 -15 16 10 0 17 7 17 15 0 19 16 20 23 2z
m-4253 -47 c0 -5 -4 -10 -10 -10 -5 0 -10 5 -10 10 0 6 5 10 10 10 6 0 10 -4
10 -10z m4020 -46 l0 -44 40 0 c40 0 40 0 40 -39 0 -32 -4 -40 -22 -45 -50
-13 -58 -8 -58 34 0 37 -2 40 -27 41 -16 1 -34 1 -40 0 -9 -1 -13 14 -13 47
l0 50 40 0 40 1 0 -45z m-4282 -65 c-3 -8 -7 -3 -11 10 -4 17 -3 21 5 13 5 -5
8 -16 6 -23z m42 10 c7 -11 9 -23 6 -27 -3 -3 -6 0 -6 6 0 6 -7 18 -16 26 -8
9 -11 16 -5 16 6 0 15 -9 21 -21z m49 -5 c5 4 13 1 17 -6 4 -7 4 -10 -1 -6 -4
4 -17 2 -29 -4 -11 -6 -18 -7 -14 -3 4 5 2 15 -5 24 -10 14 -10 14 5 3 9 -8
22 -11 27 -8z m4411 -4 c0 -5 -6 -7 -14 -4 -11 4 -16 -4 -19 -28 l-4 -33 -1
37 c-1 21 3 38 11 41 14 5 27 -1 27 -13z m30 -20 c0 -22 -4 -40 -10 -40 -11 0
-14 63 -3 73 11 12 13 8 13 -33z m-4507 15 c4 -8 2 -17 -3 -20 -6 -4 -10 3
-10 14 0 25 6 27 13 6z m34 -46 c-9 -6 -15 -15 -11 -20 4 -6 17 -1 33 13 24
21 24 20 -3 -9 -18 -20 -34 -29 -44 -25 -11 4 -12 7 -4 10 7 2 9 8 6 14 -7 10
13 28 31 28 6 -1 2 -5 -8 -11z m4121 -6 c-10 -2 -28 -2 -40 0 -13 2 -5 4 17 4
22 1 32 -1 23 -4z m-4168 -38 c0 -8 -7 -15 -15 -15 -16 0 -20 12 -8 23 11 12
23 8 23 -8z m92 8 c-6 -2 -10 -9 -7 -14 4 -5 -1 -6 -10 -2 -13 5 -14 7 -3 14
7 5 18 8 23 8 6 0 4 -3 -3 -6z m4424 -141 c-11 -10 -13 3 -7 43 l6 40 3 -39
c2 -21 1 -41 -2 -44z m-223 48 c-3 -11 -7 -20 -9 -20 -2 0 -4 9 -4 20 0 11 4
20 9 20 5 0 7 -9 4 -20z m57 10 c0 -5 -2 -10 -4 -10 -3 0 -8 5 -11 10 -3 6 -1
10 4 10 6 0 11 -4 11 -10z m137 -22 c-3 -8 -6 -5 -6 6 -1 11 2 17 5 13 3 -3 4
-12 1 -19z m-137 -18 c0 -17 -7 -20 -41 -20 -23 0 -38 4 -34 10 3 5 12 7 19 4
8 -3 20 2 27 10 19 21 29 20 29 -4z m128 -13 c12 -3 10 -5 -5 -6 -18 -1 -23 4
-22 22 1 15 3 17 6 5 2 -9 12 -19 21 -21z m-298 3 c0 -5 -19 -9 -42 -9 l-43 2
40 7 c22 4 41 8 43 9 1 0 2 -3 2 -9z m-4663 -27 c-20 -2 -35 -8 -32 -14 3 -5
-1 -6 -9 -3 -32 12 -15 24 32 22 43 -1 44 -2 9 -5z m76 0 c-7 -2 -19 -2 -25 0
-7 3 -2 5 12 5 14 0 19 -2 13 -5z m267 -33 c0 -5 -7 -10 -15 -10 -8 0 -15 5
-15 10 0 6 7 10 15 10 8 0 15 -4 15 -10z m3195 0 c3 -5 1 -10 -4 -10 -6 0 -11
5 -11 10 0 6 2 10 4 10 3 0 8 -4 11 -10z m-3497 -6 c-8 -7 -88 -8 -95 0 -4 3
18 6 47 6 29 0 51 -3 48 -6z m3589 0 c-3 -3 -12 -4 -19 -1 -8 3 -5 6 6 6 11 1
17 -2 13 -5z m243 -4 c0 -5 -4 -10 -10 -10 -5 0 -10 5 -10 10 0 6 5 10 10 10
6 0 10 -4 10 -10z m-383 -57 c-3 -10 -5 -4 -5 12 0 17 2 24 5 18 2 -7 2 -21 0
-30z m719 23 c3 -8 13 -12 25 -9 20 5 23 -4 13 -31 -8 -21 -24 -20 -24 1 0 15
-1 15 -13 -1 -15 -21 -52 -18 -53 4 -1 40 40 69 52 36z m-3875 -43 c0 -25 1
-26 9 -8 6 13 9 15 9 5 0 -8 -6 -24 -14 -34 -15 -20 -15 -20 -15 0 0 10 -3 29
-6 42 -4 13 -2 22 5 22 6 0 11 -12 12 -27z m36 5 c-3 -8 -6 -5 -6 6 -1 11 2
17 5 13 3 -3 4 -12 1 -19z m3243 -2 c0 -3 -4 -8 -10 -11 -5 -3 -10 -1 -10 4 0
6 5 11 10 11 6 0 10 -2 10 -4z m-123 -28 c-3 -8 -6 -5 -6 6 -1 11 2 17 5 13 3
-3 4 -12 1 -19z m900 12 c22 0 14 -6 -19 -14 -22 -5 -28 -3 -28 10 0 11 5 14
16 10 9 -3 23 -6 31 -6z m-177 -10 c0 -5 -13 -10 -30 -10 -16 0 -30 -4 -30 -9
0 -5 -8 -12 -17 -15 -15 -4 -15 -5 2 -4 41 1 50 -3 25 -13 -18 -7 -21 -12 -11
-18 7 -5 11 -12 9 -17 -1 -5 14 -10 34 -12 36 -3 37 -4 36 -43 0 -39 -1 -39
-39 -39 -33 0 -39 3 -39 20 0 18 3 19 20 10 22 -12 44 -5 35 11 -4 5 -17 9
-31 9 -15 0 -24 6 -24 15 0 10 -10 15 -33 15 -26 0 -36 6 -45 24 -8 19 -8 26
1 30 9 3 8 7 -3 15 -18 12 -11 15 75 29 33 5 61 10 63 11 1 0 2 -3 2 -9z m74
-10 c31 0 32 -1 34 -46 1 -38 -1 -45 -14 -40 -9 3 -29 6 -45 6 -26 0 -29 3
-23 24 3 13 0 34 -6 47 -11 19 -10 21 5 16 9 -4 31 -7 49 -7z m-777 -77 c-2
-16 -4 -3 -4 27 0 30 2 43 4 28 2 -16 2 -40 0 -55z m-3140 -55 c-2 -24 -4 -5
-4 42 0 47 2 66 4 43 2 -24 2 -62 0 -85z m3120 40 c-2 -13 -4 -3 -4 22 0 25 2
35 4 23 2 -13 2 -33 0 -45z m1003 17 c0 -9 -6 -12 -15 -9 -8 4 -12 10 -9 15 8
14 24 10 24 -6z m-422 -71 c-3 -25 -7 -27 -53 -28 l-50 -1 5 45 c5 45 5 45 42
42 21 -2 40 3 45 10 9 15 16 -26 11 -68z m317 30 c-7 -8 -18 -14 -24 -14 -6 0
-11 -9 -11 -20 0 -11 -4 -20 -10 -20 -11 0 -9 28 3 48 5 7 4 12 -2 12 -6 0
-11 4 -11 8 0 4 16 6 35 4 29 -4 32 -6 20 -18z m-876 -66 c-1 -59 -3 -66 -9
-38 -6 29 -8 23 -9 -32 l-1 -68 48 0 c33 0 43 3 32 10 -8 5 -12 12 -8 15 3 3
13 -1 22 -10 9 -9 16 -12 16 -6 0 6 25 10 63 9 42 0 55 -3 42 -9 -11 -4 43 -8
128 -8 93 -1 147 -5 147 -11 0 -7 -84 -10 -250 -8 l-250 2 1 110 c1 76 4 100
9 76 l7 -35 2 38 c0 20 3 37 6 37 3 0 4 -33 4 -72z m-3159 11 c0 -25 -4 -38
-10 -34 -6 4 -8 16 -4 28 6 19 5 20 -10 8 -12 -10 -16 -11 -16 -1 0 10 27 38
38 40 1 0 2 -18 2 -41z m4047 5 c-9 -9 -28 6 -21 18 4 6 10 6 17 -1 6 -6 8
-13 4 -17z m-787 -4 c0 -5 -4 -10 -10 -10 -5 0 -10 -9 -10 -20 0 -11 -4 -20
-10 -20 -14 0 -12 28 3 45 14 17 27 19 27 5z m-73 -52 c-2 -13 -4 -5 -4 17 -1
22 1 32 4 23 2 -10 2 -28 0 -40z m-3176 -26 c-6 -2 -11 -13 -11 -23 0 -11 5
-17 10 -14 6 3 10 -1 10 -9 0 -13 -12 -16 -60 -16 -36 0 -60 4 -60 11 0 5 4 8
8 5 4 -2 14 -1 22 5 10 6 11 9 3 9 -7 0 -13 5 -13 11 0 5 5 7 10 4 6 -3 10 -2
10 4 0 5 9 8 21 6 17 -4 19 -2 9 10 -7 8 -10 16 -6 16 23 5 32 3 38 -6 4 -5 8
6 9 25 l2 35 4 -35 c3 -19 0 -36 -6 -38z m3555 56 c4 -7 3 -10 -1 -5 -5 4 -18
-1 -29 -10 -21 -18 -21 -18 -2 5 22 26 23 26 32 10z m184 -3 c10 -12 10 -15
-4 -15 -9 0 -16 7 -16 15 0 8 2 15 4 15 2 0 9 -7 16 -15z m40 5 c0 -5 -4 -10
-9 -10 -6 0 -13 5 -16 10 -3 6 1 10 9 10 9 0 16 -4 16 -10z m-3838 -22 c-7 -7
-8 -16 -2 -23 6 -7 3 -11 -11 -12 -12 -1 -17 2 -13 10 12 21 26 37 32 37 3 0
1 -5 -6 -12z m4007 -32 c0 -8 -2 -8 -5 0 -2 6 -19 8 -37 6 -18 -3 -28 -1 -24
4 5 5 16 9 25 9 10 0 16 7 14 15 -1 10 2 9 13 -4 8 -11 15 -25 14 -30z m-208
1 c-13 -13 -26 -3 -16 12 3 6 11 8 17 5 6 -4 6 -10 -1 -17z m39 3 c0 -5 -4
-10 -10 -10 -5 0 -10 5 -10 10 0 6 5 10 10 10 6 0 10 -4 10 -10z m-3910 -31
c0 -5 -4 -9 -10 -9 -5 0 -10 7 -10 16 0 8 5 12 10 9 6 -3 10 -10 10 -16z
m3737 15 c-3 -3 -12 -4 -19 -1 -8 3 -5 6 6 6 11 1 17 -2 13 -5z m-431 -29 c-1
-29 -16 -35 -16 -7 0 16 8 32 16 32 1 0 1 -11 0 -25z m658 14 c21 18 31 8 34
-33 3 -36 2 -36 -38 -36 -22 0 -40 2 -40 5 0 7 52 29 63 27 4 -1 7 3 7 8 0 6
-4 10 -10 10 -17 0 -25 -5 -22 -12 1 -5 -5 -8 -13 -8 -10 0 -15 10 -15 28 0
20 3 23 9 13 8 -12 12 -12 25 -2z m-294 -18 c0 -11 3 -11 15 -1 9 8 15 8 15 2
0 -6 11 -9 25 -6 14 2 25 1 25 -4 0 -4 -33 -8 -72 -9 -48 -1 -66 2 -53 7 18 8
18 9 2 9 -28 1 -12 16 17 16 15 0 26 -6 26 -14z m480 -1 c0 -5 -4 -10 -10 -10
-5 0 -10 5 -10 10 0 6 5 10 10 10 6 0 10 -4 10 -10z m-4176 -8 c3 -5 -1 -9 -9
-9 -8 0 -12 4 -9 9 3 4 7 8 9 8 2 0 6 -4 9 -8z m3589 -9 c-13 -2 -33 -2 -45 0
-13 2 -3 4 22 4 25 0 35 -2 23 -4z m607 -25 c0 -4 -18 -8 -41 -8 -22 0 -38 4
-35 9 7 11 76 10 76 -1z m-4309 -547 c-8 -5 -52 -8 -98 -6 -75 2 -83 0 -83
-16 0 -13 5 -17 18 -13 16 5 16 5 0 -9 -16 -13 -18 -34 -17 -183 0 -104 4
-161 9 -149 l9 20 1 -20 c2 -11 2 -24 1 -30 -1 -5 5 -2 13 8 14 18 14 18 21
-2 3 -11 2 -29 -4 -38 -10 -17 -10 -17 -11 0 0 28 -20 19 -21 -10 l-1 -28 -7
25 -8 25 -5 -25 c-3 -14 -6 70 -8 185 -1 116 -4 225 -6 243 l-4 32 108 0 c66
0 102 -4 93 -9z m89 -1 c0 -5 -5 -10 -11 -10 -5 0 -7 5 -4 10 3 6 8 10 11 10
2 0 4 -4 4 -10z m110 0 c0 -5 -7 -7 -15 -4 -8 4 -15 8 -15 10 0 2 7 4 15 4 8
0 15 -4 15 -10z m102 -242 l3 -253 257 -3 257 -2 -15 -41 c-16 -47 -18 -71 -4
-49 7 12 10 8 10 -15 0 -23 -3 -27 -10 -15 -7 11 -10 3 -11 -30 -3 -78 -6
-104 -14 -133 -5 -18 -3 -33 4 -40 8 -8 11 -6 11 8 1 49 16 39 17 -10 0 -30
-3 -58 -8 -61 -5 -3 -9 -11 -9 -17 0 -8 3 -7 9 2 6 9 10 -2 13 -33 3 -47 3
-48 -24 -44 -16 3 -28 2 -28 -1 0 -3 -11 -7 -25 -7 -14 -1 -25 2 -25 7 0 5 -8
9 -17 9 -15 0 -16 -2 -3 -10 13 -8 12 -10 -2 -10 -10 0 -18 5 -18 11 0 7 -56
9 -177 7 -110 -2 -178 -7 -178 -13 0 -6 182 -13 508 -19 l508 -9 -1 -251 -1
-251 255 -3 256 -2 0 -235 c0 -193 -2 -235 -14 -235 -11 0 -13 40 -12 225 l1
225 -238 2 -237 3 0 -250 c0 -168 4 -245 10 -235 9 13 11 13 20 0 5 -8 10 -10
10 -5 0 7 75 9 216 6 173 -3 218 -1 225 10 9 15 16 11 19 -11 1 -8 2 -129 1
-267 l-1 -253 -255 0 -255 0 0 -257 0 -256 -382 6 c-211 4 -439 7 -508 7
l-125 0 -3 235 c-1 162 1 235 9 235 5 0 9 -8 8 -17 -1 -10 -1 -114 0 -230 l1
-213 245 0 245 0 0 244 0 244 -251 -5 c-208 -5 -253 -4 -260 8 -5 8 -9 125 -9
260 0 190 -3 246 -12 246 -7 0 -235 4 -505 8 l-493 8 0 244 c0 222 2 245 16
239 9 -3 117 -7 240 -7 149 0 226 -4 230 -11 5 -7 -2 -9 -20 -6 -14 3 -26 1
-26 -3 0 -5 11 -9 24 -9 l25 0 1 -212 c0 -117 3 -214 5 -217 3 -2 5 104 5 237
l0 242 -252 2 -253 3 -3 258 -2 257 255 0 255 0 0 254 c0 194 3 255 13 258 6
2 119 3 250 3 l237 0 -2 33 c-1 17 -6 32 -11 32 -4 0 -6 8 -3 18 8 28 11 290
3 298 -4 4 -8 -40 -9 -97 0 -57 -2 -132 -2 -166 -1 -34 -4 -65 -8 -69 -5 -4
-8 3 -8 15 0 12 -4 19 -10 16 -6 -3 -9 4 -8 19 1 13 6 23 10 20 12 -8 13 68 2
156 -6 52 -7 92 -2 103 5 10 7 25 4 33 -4 9 2 14 17 14 17 0 19 2 8 9 -12 8
-13 12 -1 25 11 14 10 16 -5 10 -12 -5 -16 -4 -12 3 5 7 0 9 -12 6 -10 -3 -22
0 -25 6 -5 7 8 11 38 11 l46 0 2 -252z m2820 245 c-6 -3 -10 -9 -6 -14 6 -11
-19 -12 -30 -2 -9 9 -115 10 -110 1 7 -11 -50 -4 -58 7 -5 6 -8 5 -8 -2 0 -7
-4 -13 -8 -13 -5 0 -9 7 -9 15 0 12 20 14 121 13 67 0 115 -3 108 -5z m38 -3
c0 -5 -4 -10 -10 -10 -5 0 -10 5 -10 10 0 6 5 10 10 10 6 0 10 -4 10 -10z
m110 -1 c0 -5 -4 -8 -9 -4 -5 3 -12 1 -16 -5 -8 -13 -65 -13 -65 1 0 5 5 7 10
4 6 -3 10 -1 10 4 0 6 16 11 35 11 19 0 35 -5 35 -11z m100 -230 l0 -240 -47
3 c-31 2 -48 8 -50 18 -4 13 -3 13 6 0 10 -13 11 -13 12 0 0 10 2 11 6 3 17
-43 23 8 23 187 0 128 4 200 10 200 7 0 10 -69 10 -191 -1 -105 1 -194 4 -197
3 -3 6 69 6 160 0 91 3 193 6 227 5 44 4 61 -5 61 -7 0 -11 -10 -9 -22 3 -23
1 -23 -99 -24 -57 -1 -103 2 -103 7 0 5 36 9 80 9 57 0 80 4 81 13 0 10 2 10
6 0 8 -21 26 -15 20 7 -4 16 0 20 19 20 l24 0 0 -241z m-3217 224 c-7 -2 -19
-2 -25 0 -7 3 -2 5 12 5 14 0 19 -2 13 -5z m2912 -32 c-3 -5 -44 -10 -91 -10
-53 0 -83 3 -79 9 3 6 44 10 91 10 49 0 83 -4 79 -9z m58 2 c-7 -2 -21 -2 -30
0 -10 3 -4 5 12 5 17 0 24 -2 18 -5z m-94 -38 c6 -3 11 -2 11 3 0 6 57 11 135
11 l136 2 -4 -130 c-2 -72 -7 -134 -10 -138 -4 -3 -7 0 -7 9 0 21 -57 11 -63
-12 -9 -35 -2 -125 10 -125 6 0 14 -3 18 -7 4 -3 -77 -6 -180 -7 -155 0 -185
2 -175 14 8 10 8 14 -2 18 -10 4 -10 8 2 16 8 6 10 11 4 11 -7 0 -12 29 -12
80 -1 44 3 80 8 80 5 0 7 -13 4 -29 -3 -16 -2 -31 2 -34 5 -3 9 10 9 29 0 19
-5 38 -12 42 -7 5 -10 37 -8 92 1 47 3 86 4 88 2 5 120 -6 130 -13z m-3192
-67 c-3 -7 -5 -2 -5 12 0 14 2 19 5 13 2 -7 2 -19 0 -25z m0 -110 c-3 -7 -5
-2 -5 12 0 14 2 19 5 13 2 -7 2 -19 0 -25z m48 -58 c3 -5 1 -10 -4 -10 -6 0
-11 5 -11 10 0 6 2 10 4 10 3 0 8 -4 11 -10z m175 -80 c0 -5 -2 -10 -4 -10 -3
0 -8 5 -11 10 -3 6 -1 10 4 10 6 0 11 -4 11 -10z m120 -34 c0 -6 -7 -1 -15 10
-8 10 -15 23 -15 28 0 6 7 1 15 -10 8 -10 15 -23 15 -28z m-190 2 c0 -6 -6 -5
-15 2 -8 7 -15 14 -15 16 0 2 7 1 15 -2 8 -4 15 -11 15 -16z m23 -6 c-3 -13
-13 -22 -24 -22 -17 0 -16 2 4 23 26 28 28 27 20 -1z m117 -3 c0 -5 -4 -8 -9
-4 -5 3 -12 1 -15 -4 -4 -5 2 -12 11 -14 16 -4 16 -5 1 -6 -19 -1 -32 14 -23
29 8 13 35 13 35 -1z m45 -29 c3 -5 -1 -10 -10 -10 -9 0 -13 5 -10 10 3 6 8
10 10 10 2 0 7 -4 10 -10z m-772 -47 c-13 -2 -35 -2 -50 0 -16 2 -5 4 22 4 28
0 40 -2 28 -4z m60 0 c-7 -2 -19 -2 -25 0 -7 3 -2 5 12 5 14 0 19 -2 13 -5z
m60 0 c-7 -2 -21 -2 -30 0 -10 3 -4 5 12 5 17 0 24 -2 18 -5z m200 0 c-35 -2
-91 -2 -125 0 -35 2 -7 3 62 3 69 0 97 -1 63 -3z m-408 -23 c-3 -5 -10 -10
-16 -10 -5 0 -9 5 -9 10 0 6 7 10 16 10 8 0 12 -4 9 -10z m368 3 c-7 -2 -19
-2 -25 0 -7 3 -2 5 12 5 14 0 19 -2 13 -5z m60 -10 c-7 -2 -19 -2 -25 0 -7 3
-2 5 12 5 14 0 19 -2 13 -5z m-42 -116 c-10 -9 -11 -8 -5 6 3 10 9 15 12 12 3
-3 0 -11 -7 -18z m-384 -323 c-3 -3 -12 -4 -19 -1 -8 3 -5 6 6 6 11 1 17 -2
13 -5z m76 -1 c-7 -2 -19 -2 -25 0 -7 3 -2 5 12 5 14 0 19 -2 13 -5z m110 0
c-7 -2 -19 -2 -25 0 -7 3 -2 5 12 5 14 0 19 -2 13 -5z m230 0 c-24 -2 -62 -2
-85 0 -24 2 -5 4 42 4 47 0 66 -2 43 -4z m904 -9 c-3 -3 -12 -4 -19 -1 -8 3
-5 6 6 6 11 1 17 -2 13 -5z m3758 -544 c3 -5 1 -11 -4 -11 -6 -1 -15 -2 -20
-3 -5 0 -13 -5 -18 -9 -4 -5 3 -7 17 -5 l25 3 3 -232 2 -233 -252 0 -253 0 3
237 c1 131 4 243 6 250 6 15 481 19 491 3z m-2922 -37 c-13 -2 -35 -2 -50 0
-16 2 -5 4 22 4 28 0 40 -2 28 -4z m320 -35 c-6 -70 -5 -68 -18 -58 -7 5 -16
6 -21 2 -5 -4 -1 2 9 14 9 11 17 29 16 40 0 18 -1 18 -9 -1 -8 -19 -9 -19 -9
3 -1 12 -6 22 -12 22 -5 0 -7 -4 -4 -10 3 -5 -1 -10 -10 -10 -9 0 -13 5 -10
10 4 6 -16 10 -52 11 -32 1 -85 5 -118 9 -47 5 -27 7 91 9 l151 1 -4 -42z m4
-320 c-3 -8 -6 -5 -6 6 -1 11 2 17 5 13 3 -3 4 -12 1 -19z m2087 -125 c3 -10
5 -125 5 -255 l-1 -237 -253 0 -254 0 2 255 1 254 247 0 c227 0 248 -1 253
-17z m1026 -240 c0 -141 -3 -253 -7 -249 -9 9 -10 506 0 506 4 0 7 -116 7
-257z m-5081 220 c1 16 16 17 219 15 l217 -3 -2 -40 c-1 -22 -2 -49 -2 -60 -1
-11 -1 -76 -1 -145 1 -69 1 -129 1 -133 -1 -5 -17 -7 -38 -5 -25 3 -37 9 -39
21 -1 11 4 17 16 17 41 0 50 11 50 61 0 39 -3 47 -15 43 -8 -4 -15 -17 -15
-31 0 -13 -4 -22 -9 -18 -5 3 -12 -7 -14 -22 -4 -30 -9 32 -12 159 -1 82 -7
97 -27 81 -18 -14 -47 -12 -41 2 2 7 -4 16 -14 19 -10 4 -19 2 -21 -3 -2 -6
-15 -11 -29 -11 -26 0 -53 -21 -53 -42 0 -8 -3 -9 -8 -2 -9 13 -45 27 -37 15
3 -5 -3 -11 -12 -13 -16 -3 -15 -5 5 -16 19 -11 22 -10 23 5 0 16 1 16 8 -1 4
-11 15 -20 25 -22 13 -2 16 2 11 14 -5 13 -3 14 5 6 16 -16 -5 -55 -25 -48 -8
3 -14 9 -13 12 2 21 -5 23 -28 7 -14 -9 -32 -14 -40 -11 -8 3 -14 2 -14 -3 0
-4 -11 -6 -24 -4 -20 4 -24 1 -23 -20 1 -14 5 -23 8 -21 4 2 9 -3 13 -11 3 -8
0 -14 -7 -12 -14 2 -17 -40 -4 -67 6 -13 6 -16 -2 -12 -6 4 -11 2 -11 -3 0 -6
4 -11 8 -11 5 0 9 -7 9 -15 0 -8 -4 -15 -9 -15 -4 0 -8 -7 -8 -16 0 -8 4 -13
8 -10 5 3 9 -1 9 -9 0 -8 -4 -15 -9 -15 -19 0 -6 -18 17 -22 17 -4 29 0 35 11
6 10 10 11 10 4 0 -17 260 -19 260 -3 0 7 -17 8 -46 4 -34 -4 -44 -3 -39 5 8
13 103 12 111 -1 3 -4 11 -8 17 -8 7 0 6 4 -3 10 -13 8 -12 10 3 10 9 0 17 -4
17 -10 0 -5 9 -10 20 -10 19 0 20 8 23 208 l3 207 1 -228 c2 -204 0 -228 -15
-236 -9 -5 -119 -9 -244 -10 l-228 -2 0 239 c0 223 6 286 21 230 5 -16 7 -18
8 -5z m4730 23 c-7 -7 -139 -10 -146 -3 -3 4 29 7 72 7 43 0 76 -2 74 -4z
m-69 -26 c0 -5 -5 -10 -11 -10 -5 0 -7 5 -4 10 3 6 8 10 11 10 2 0 4 -4 4 -10z
m-4395 -60 c-3 -5 -14 -10 -23 -9 -14 0 -13 2 3 9 27 11 27 11 20 0z m4328
-57 c-5 -12 -3 -14 8 -8 12 8 12 6 0 -8 -12 -15 -11 -17 7 -17 12 0 23 -4 26
-9 3 -5 -5 -8 -19 -7 -14 0 -25 3 -26 6 -6 25 -4 68 2 64 4 -2 5 -12 2 -21z
m77 -17 c0 -3 -4 -8 -10 -11 -5 -3 -10 -1 -10 4 0 6 5 11 10 11 6 0 10 -2 10
-4z m328 -36 c10 -16 10 -20 -2 -20 -9 0 -12 -8 -8 -25 2 -14 8 -22 13 -19 15
9 10 -6 -7 -24 -15 -15 -15 -16 2 -23 11 -4 13 -8 7 -8 -8 -1 -11 -12 -8 -33
3 -18 3 -27 -1 -20 -9 19 -24 14 -24 -7 0 -11 -4 -23 -10 -26 -6 -3 -10 5 -10
19 0 13 5 26 11 28 6 2 10 38 10 91 1 48 4 87 7 87 4 0 13 -9 20 -20z m-4591
-122 c-3 -7 -5 -2 -5 12 0 14 2 19 5 13 2 -7 2 -19 0 -25z m4461 7 c-3 -3 -9
2 -12 12 -6 14 -5 15 5 6 7 -7 10 -15 7 -18z m-274 -21 c3 -8 2 -12 -4 -9 -6
3 -10 10 -10 16 0 14 7 11 14 -7z m36 -24 c0 -11 -2 -20 -4 -20 -2 0 -6 9 -9
20 -3 11 -1 20 4 20 5 0 9 -9 9 -20z m260 -45 c0 -12 -19 -12 -23 0 -4 9 -1
12 9 8 7 -3 14 -7 14 -8z m40 -5 c0 -5 -2 -10 -4 -10 -3 0 -8 5 -11 10 -3 6
-1 10 4 10 6 0 11 -4 11 -10z m-2895 -306 c-4 -139 -3 -204 5 -204 5 0 10 12
11 28 0 24 1 25 9 7 8 -19 9 -19 9 2 1 12 -3 25 -9 28 -14 9 -13 48 2 63 24
24 36 13 36 -33 0 -25 -4 -43 -9 -40 -5 4 -6 -2 -2 -11 4 -11 -1 -22 -13 -32
-12 -9 -13 -12 -4 -10 8 3 20 -4 27 -16 11 -19 12 -19 13 -3 0 16 2 17 14 4 8
-8 12 -24 9 -35 -5 -20 -2 -21 108 -20 72 1 123 6 139 14 l25 13 -25 1 c-23 1
-23 2 -5 10 11 5 15 9 9 9 -8 1 -10 14 -7 37 3 20 1 34 -4 31 -5 -3 -9 3 -10
13 -1 14 3 17 15 13 9 -3 0 7 -20 22 -21 16 -38 34 -38 42 0 7 -5 13 -10 13
-7 0 -7 6 0 19 11 22 14 48 3 38 -9 -10 -33 13 -33 30 0 10 6 13 16 9 8 -3 12
-2 9 4 -3 6 1 10 9 10 9 0 16 -5 16 -11 0 -5 4 -8 10 -4 5 3 6 13 3 22 -5 12
-3 14 8 8 11 -7 12 -6 2 6 -10 13 -10 16 0 16 20 1 81 14 86 18 2 2 12 0 22
-6 22 -11 25 -3 5 16 -7 8 -17 11 -21 7 -5 -4 -5 1 -2 11 4 9 2 17 -3 17 -5 0
-7 9 -5 20 3 14 -2 20 -13 20 -15 0 -15 2 -2 10 8 5 34 10 58 10 l42 0 0 -250
0 -250 -250 0 -250 0 0 251 c0 171 3 248 10 244 7 -5 9 -74 5 -211z m2049 -14
c-3 -107 -7 -197 -10 -199 -2 -2 -4 94 -3 215 0 125 4 210 9 199 5 -11 6 -108
4 -215z m-1777 205 c0 -8 -6 -15 -14 -15 -17 0 -17 17 0 23 6 3 12 6 13 6 0 1
1 -6 1 -14z m-222 -125 c4 0 3 5 0 10 -3 6 -2 10 4 10 6 0 13 -12 17 -27 3
-16 7 -33 9 -40 7 -20 -13 -25 -24 -6 -6 10 -11 13 -11 7 0 -5 7 -19 15 -30
21 -28 18 -44 -7 -44 -22 1 -23 1 -4 15 11 8 15 15 9 15 -7 0 -15 9 -18 20 -4
11 -10 18 -14 16 -4 -3 -8 9 -9 25 -1 16 2 29 7 29 5 0 7 10 5 23 l-5 22 10
-22 c6 -13 13 -23 16 -23z m75 26 c0 -2 -7 -6 -15 -10 -8 -3 -15 -1 -15 4 0 6
7 10 15 10 8 0 15 -2 15 -4z m90 -5 c0 -5 -7 -11 -14 -14 -10 -4 -13 -1 -9 9
6 15 23 19 23 5z m-40 -40 c0 -6 -4 -13 -10 -16 -5 -3 -10 1 -10 9 0 9 5 16
10 16 6 0 10 -4 10 -9z m-40 -36 c10 -12 10 -15 -2 -15 -8 0 -15 7 -15 15 0 8
1 15 2 15 2 0 8 -7 15 -15z m2000 0 c-10 -12 -10 -18 0 -30 18 -21 9 -26 -14
-9 -19 13 -19 14 -1 34 21 23 34 27 15 5z m-1965 -4 c3 -5 1 -12 -5 -16 -5 -3
-10 1 -10 9 0 18 6 21 15 7z m59 1 c2 -4 -4 -8 -15 -8 -10 0 -19 4 -19 8 0 4
6 8 14 8 8 0 17 -4 20 -8z m36 -36 c-5 -5 -10 -18 -10 -28 0 -10 -5 -18 -11
-18 -7 0 -8 7 -4 18 4 9 7 28 6 41 -1 20 1 22 14 11 11 -9 13 -16 5 -24z
m1843 -249 c36 -3 34 -4 -15 -5 -49 -2 -58 1 -58 16 0 14 2 15 10 2 7 -10 10
14 12 80 l2 95 3 -92 4 -92 42 -4z m-1953 143 c0 -5 -4 -10 -10 -10 -5 0 -10
5 -10 10 0 6 5 10 10 10 6 0 10 -4 10 -10z m2263 -147 c-40 -2 -106 -2 -145 0
-40 1 -8 3 72 3 80 0 112 -2 73 -3z m-2463 -39 c-24 -14 -24 -15 -2 -11 l22 5
0 -239 0 -239 -248 0 c-137 0 -251 2 -253 4 -2 2 -3 115 -1 250 l3 246 252 0
c230 -1 250 -2 227 -16z m1040 9 c0 -5 -24 -7 -52 -5 -95 5 -104 9 -25 11 42
0 77 -2 77 -6z m-87 -30 c-7 -2 -19 -2 -25 0 -7 3 -2 5 12 5 14 0 19 -2 13 -5z
m79 -20 c-5 -23 -7 -25 -10 -8 -2 11 -9 23 -16 27 -6 5 -3 8 10 8 18 0 20 -4
16 -27z m-5 -75 c-3 -8 -6 -5 -6 6 -1 11 2 17 5 13 3 -3 4 -12 1 -19z m-2997
-210 c0 -23 -3 -29 -9 -19 -8 12 -4 51 5 51 2 0 4 -15 4 -32z m-3 -80 c-3 -8
-6 -5 -6 6 -1 11 2 17 5 13 3 -3 4 -12 1 -19z m2553 -67 c0 -5 -9 -7 -20 -4
-11 3 -20 7 -20 9 0 2 9 4 20 4 11 0 20 -4 20 -9z m383 2 c-7 -2 -19 -2 -25 0
-7 3 -2 5 12 5 14 0 19 -2 13 -5z m-921 -190 c-4 -272 -8 -294 -10 -55 -1 122
1 222 6 222 4 0 6 -75 4 -167z m45 161 c-3 -3 -12 -4 -19 -1 -8 3 -5 6 6 6 11
1 17 -2 13 -5z m-37 -484 c0 -5 -5 -10 -11 -10 -5 0 -7 5 -4 10 3 6 8 10 11
10 2 0 4 -4 4 -10z m53 -7 c-7 -2 -19 -2 -25 0 -7 3 -2 5 12 5 14 0 19 -2 13
-5z m80 0 c-7 -2 -21 -2 -30 0 -10 3 -4 5 12 5 17 0 24 -2 18 -5z m60 0 c-7
-2 -21 -2 -30 0 -10 3 -4 5 12 5 17 0 24 -2 18 -5z m125 0 c-21 -2 -55 -2 -75
0 -21 2 -4 4 37 4 41 0 58 -2 38 -4z m69 1 c-3 -3 -12 -4 -19 -1 -8 3 -5 6 6
6 11 1 17 -2 13 -5z m40 0 c-3 -3 -12 -4 -19 -1 -8 3 -5 6 6 6 11 1 17 -2 13
-5z"/>
<path d="M12823 16130 c1 -126 5 -230 10 -230 4 0 7 104 7 230 0 135 -4 230
-9 230 -6 0 -9 -94 -8 -230z"/>
<path d="M12850 16131 c0 -126 3 -232 8 -234 14 -8 47 8 47 23 0 11 10 14 35
13 19 -1 38 3 42 10 5 8 8 7 8 -4 0 -13 14 -16 80 -16 44 -1 83 3 86 8 3 6 14
7 24 4 13 -4 22 1 30 16 11 20 10 21 -14 15 -25 -6 -26 -5 -15 15 9 17 13 19
20 8 5 -8 9 -9 9 -4 0 6 14 12 31 13 43 3 51 10 39 33 -6 11 -8 24 -5 29 3 6
-1 10 -9 10 -9 0 -16 5 -16 10 0 6 6 10 14 10 16 0 28 101 23 205 l-2 60 -217
3 -218 3 0 -230z m70 -1 c0 -5 -4 -10 -10 -10 -5 0 -10 5 -10 10 0 6 5 10 10
10 6 0 10 -4 10 -10z m51 -33 c-10 -9 -11 -8 -5 6 3 10 9 15 12 12 3 -3 0 -11
-7 -18z m191 -5 c9 -9 9 -12 0 -12 -7 0 -12 4 -12 10 0 5 -6 7 -14 4 -8 -3
-16 -1 -20 4 -8 13 32 8 46 -6z m63 9 c3 -6 -5 -15 -17 -21 -21 -10 -21 -10
-6 3 10 8 15 17 11 20 -3 4 -4 7 0 7 3 0 8 -4 12 -9z m-88 -27 c-3 -3 -12 -4
-19 -1 -8 3 -5 6 6 6 11 1 17 -2 13 -5z m-127 -9 c0 -2 -10 -10 -22 -16 -21
-11 -22 -11 -9 4 13 16 31 23 31 12z m-45 -55 c3 -6 -1 -7 -9 -4 -18 7 -21 14
-7 14 6 0 13 -4 16 -10z m95 -16 c0 -2 -7 -4 -15 -4 -8 0 -15 4 -15 10 0 5 7
7 15 4 8 -4 15 -8 15 -10z m-183 -26 c-3 -8 -6 -5 -6 6 -1 11 2 17 5 13 3 -3
4 -12 1 -19z m268 -18 c-3 -5 -12 -10 -18 -10 -7 0 -6 4 3 10 19 12 23 12 15
0z m-255 -25 c0 -8 -4 -15 -9 -15 -13 0 -22 16 -14 24 11 11 23 6 23 -9z"/>
<path d="M13250 15972 c-8 -4 -16 -15 -18 -25 -3 -14 2 -18 20 -15 15 2 24 11
26 26 3 23 -2 26 -28 14z m16 -29 c-10 -10 -19 5 -10 18 6 11 8 11 12 0 2 -7
1 -15 -2 -18z"/>
<path d="M12933 15903 c9 -2 23 -2 30 0 6 3 -1 5 -18 5 -16 0 -22 -2 -12 -5z"/>
<path d="M13038 15903 c7 -3 16 -2 19 1 4 3 -2 6 -13 5 -11 0 -14 -3 -6 -6z"/>
<path d="M13088 15903 c6 -2 18 -2 25 0 6 3 1 5 -13 5 -14 0 -19 -2 -12 -5z"/>
<path d="M13143 15903 c9 -2 25 -2 35 0 9 3 1 5 -18 5 -19 0 -27 -2 -17 -5z"/>
<path d="M13228 15903 c12 -2 30 -2 40 0 9 3 -1 5 -23 4 -22 0 -30 -2 -17 -4z"/>
<path d="M13982 16353 c37 -2 100 -2 140 0 40 1 10 3 -67 3 -77 0 -110 -1 -73
-3z"/>
<path d="M14260 16356 c0 -9 40 -13 46 -5 3 5 -6 9 -20 9 -14 0 -26 -2 -26 -4z"/>
<path d="M13342 15825 c0 -16 2 -22 5 -12 2 9 2 23 0 30 -3 6 -5 -1 -5 -18z"/>
<path d="M13365 15840 c-4 -6 -1 -18 7 -27 9 -12 9 -15 1 -9 -10 6 -13 -38
-13 -206 0 -123 -4 -207 -9 -199 -5 8 -11 9 -15 3 -3 -6 -2 -12 4 -14 5 -1
102 -2 215 0 164 2 205 5 205 16 0 17 27 29 35 16 4 -6 1 -10 -6 -10 -10 0
-10 -3 -2 -11 6 -6 15 -9 20 -6 10 6 9 164 -1 174 -3 4 -6 -5 -6 -18 0 -14 -5
-30 -12 -37 -9 -9 -9 -12 0 -12 7 0 12 -7 12 -16 0 -8 -5 -12 -10 -9 -13 8 -8
-18 5 -27 5 -4 0 -6 -12 -5 -21 1 -21 4 -23 196 0 107 -2 197 -5 199 -2 2 -79
4 -171 4 -117 0 -169 -4 -174 -12 -5 -8 -9 -7 -13 4 -7 18 -23 21 -32 6z m110
-40 c3 -6 -1 -10 -10 -10 -9 0 -13 5 -10 10 6 9 -8 14 -28 11 -5 -1 -6 3 -2 9
7 11 39 -2 50 -20z m45 8 c0 -6 -6 -5 -15 2 -8 7 -15 14 -15 16 0 2 7 1 15 -2
8 -4 15 -11 15 -16z m-25 -28 c-3 -5 -12 -10 -18 -10 -7 0 -6 4 3 10 19 12 23
12 15 0z m205 -4 c0 -2 -7 -6 -15 -10 -8 -3 -15 -1 -15 4 0 6 7 10 15 10 8 0
15 -2 15 -4z m30 -22 c0 -8 -19 -13 -24 -6 -3 5 1 9 9 9 8 0 15 -2 15 -3z
m-270 -18 c0 -3 -4 -8 -10 -11 -5 -3 -10 -1 -10 4 0 6 5 11 10 11 6 0 10 -2
10 -4z m33 -35 c-5 -20 -53 -27 -53 -8 0 6 3 7 7 4 9 -9 34 13 27 24 -3 5 1 6
9 3 8 -3 13 -13 10 -23z m220 -188 c-7 -2 -19 -2 -25 0 -7 3 -2 5 12 5 14 0
19 -2 13 -5z m-233 -7 c0 -2 -9 -6 -20 -9 -11 -3 -20 -1 -20 4 0 5 9 9 20 9
11 0 20 -2 20 -4z m127 -31 c-15 -17 -30 -4 -21 19 5 12 10 14 20 5 10 -8 11
-14 1 -24z m-47 -6 c0 -5 -4 -9 -10 -9 -5 0 -10 7 -10 16 0 8 5 12 10 9 6 -3
10 -10 10 -16z m-35 -62 c57 -3 56 -3 -17 -5 -66 -2 -76 0 -72 13 4 11 10 12
18 6 6 -6 39 -12 71 -14z m120 0 l40 -4 -46 -1 c-35 -2 -48 2 -53 14 -5 13 -3
14 6 6 7 -6 31 -12 53 -15z m85 3 c-8 -5 -22 -9 -30 -9 -10 0 -8 3 5 9 27 12
43 12 25 0z"/>
<path d="M13798 15822 c-2 -15 -1 -40 3 -57 7 -33 9 -30 13 33 4 47 -10 68
-16 24z"/>
<path d="M13337 15755 c-4 -8 -2 -17 3 -20 6 -4 10 3 10 14 0 25 -6 27 -13 6z"/>
<path d="M13802 15710 c0 -14 2 -19 5 -12 2 6 2 18 0 25 -3 6 -5 1 -5 -13z"/>
<path d="M13331 15593 c1 -62 6 -56 11 15 2 23 0 42 -4 42 -5 0 -7 -26 -7 -57z"/>
<path d="M13801 15614 c0 -11 3 -14 6 -6 3 7 2 16 -1 19 -3 4 -6 -2 -5 -13z"/>
<path d="M13336 15452 c-2 -4 -1 -14 4 -22 7 -11 9 -9 7 8 -1 24 -3 26 -11 14z"/>
<path d="M13858 15343 c7 -3 16 -2 19 1 4 3 -2 6 -13 5 -11 0 -14 -3 -6 -6z"/>
<path d="M13984 15341 c3 -5 -5 -12 -19 -15 -24 -6 -36 -36 -14 -36 5 0 7 6 4
13 -3 6 4 0 16 -14 21 -26 21 -27 40 -8 11 11 17 25 12 32 -5 9 -4 9 8 0 9 -7
20 -8 28 -4 10 7 8 11 -10 17 -13 4 -27 7 -31 6 -5 -1 -8 3 -8 8 0 6 -7 10
-16 10 -8 0 -13 -4 -10 -9z"/>
<path d="M14319 15248 c-2 -72 -5 -138 -7 -168 -2 -31 -60 -60 -74 -37 -6 9
-8 9 -8 -2 0 -8 -6 -11 -16 -7 -8 3 -24 1 -35 -4 -13 -7 -19 -7 -19 0 0 14
-37 13 -44 -2 -5 -10 -7 -10 -12 0 -4 8 -33 12 -95 12 -77 0 -89 2 -89 17 0
15 -2 14 -15 -3 -13 -17 -14 -17 -15 -1 0 9 -4 17 -9 17 -10 0 -8 -61 4 -79 5
-10 4 -12 -3 -7 -7 4 -12 1 -12 -10 0 -12 6 -15 25 -12 13 3 22 2 20 -3 -3 -4
3 -10 12 -12 10 -3 1 -4 -19 -3 -21 0 -37 -2 -38 -6 0 -5 0 -19 0 -33 l0 -24
230 -3 230 -3 0 213 c0 116 -2 212 -5 212 -3 0 -6 -24 -6 -52z m1 -232 c0 -3
-4 -8 -10 -11 -5 -3 -10 -1 -10 4 0 6 5 11 10 11 6 0 10 -2 10 -4z m-400 -26
c0 -5 -4 -10 -10 -10 -5 0 -10 5 -10 10 0 6 5 10 10 10 6 0 10 -4 10 -10z
m200 0 c0 -5 -4 -10 -10 -10 -5 0 -10 5 -10 10 0 6 5 10 10 10 6 0 10 -4 10
-10z m193 -25 c-7 -21 -12 -19 -10 4 0 11 5 18 9 15 4 -3 5 -11 1 -19z m-368
-65 c-3 -5 -11 -10 -16 -10 -6 0 -7 5 -4 10 3 6 11 10 16 10 6 0 7 -4 4 -10z"/>
<path d="M13940 15266 c7 -7 14 -6 21 1 9 9 7 12 -9 10 -14 -1 -18 -5 -12 -11z"/>
<path d="M14025 15260 c3 -5 8 -10 11 -10 2 0 4 5 4 10 0 6 -5 10 -11 10 -5 0
-7 -4 -4 -10z"/>
<path d="M13873 15175 c0 -27 2 -38 4 -22 2 15 2 37 0 50 -2 12 -4 0 -4 -28z"/>
<path d="M13911 15184 c0 -11 3 -14 6 -6 3 7 2 16 -1 19 -3 4 -6 -2 -5 -13z"/>
<path d="M14255 15169 c-4 -6 -5 -12 -2 -15 2 -3 7 2 10 11 7 17 1 20 -8 4z"/>
<path d="M14285 15140 c-3 -5 -1 -10 4 -10 6 0 11 5 11 10 0 6 -2 10 -4 10 -3
0 -8 -4 -11 -10z"/>
<path d="M13851 15004 c0 -11 3 -14 6 -6 3 7 2 16 -1 19 -3 4 -6 -2 -5 -13z"/>
<path d="M14365 14771 c0 -38 3 -73 8 -77 4 -4 7 -19 6 -33 0 -24 -1 -24 -9
-6 -5 12 -9 -34 -9 -122 -1 -131 3 -155 22 -136 4 3 35 5 69 4 37 -2 64 2 68
9 4 6 34 11 67 11 l61 1 -7 26 c-4 15 -4 41 -1 57 9 44 2 55 -35 55 -48 0 -65
29 -41 69 6 10 5 12 -3 7 -8 -5 -11 2 -9 23 1 17 7 31 13 31 6 0 6 3 -1 8 -6
4 -14 14 -17 22 -4 12 -6 11 -6 -3 -1 -12 -5 -16 -13 -11 -10 6 -10 5 -1 -7 9
-11 7 -19 -8 -38 -10 -13 -19 -22 -20 -20 0 2 -3 18 -5 34 -3 23 -2 26 6 15 8
-12 10 -11 10 8 0 13 -6 22 -16 22 -13 0 -15 -12 -12 -80 3 -68 1 -80 -13 -80
-9 0 -21 -14 -27 -32 l-12 -33 4 37 c4 28 1 36 -9 32 -8 -3 -16 -24 -18 -47
-3 -37 -8 53 -10 180 -1 23 -5 39 -9 37 -4 -3 -8 8 -8 24 0 29 2 30 51 34 27
1 54 -1 60 -6 5 -6 9 -7 9 -4 0 17 -34 38 -51 33 -11 -4 -19 -2 -19 5 0 7 60
10 196 8 l197 -3 3 -29 c4 -43 12 -42 12 4 l1 40 -237 0 -237 0 0 -69z m55 49
c0 -5 -9 -10 -20 -10 -11 0 -20 5 -20 10 0 6 9 10 20 10 11 0 20 -4 20 -10z
m116 -177 c-10 -10 -19 5 -10 18 6 11 8 11 12 0 2 -7 1 -15 -2 -18z m4 -48 c0
-19 -4 -35 -8 -35 -17 0 -21 13 -11 31 7 13 6 19 -1 19 -6 0 -8 5 -5 10 13 21
25 9 25 -25z"/>
<path d="M14505 14800 c3 -5 12 -10 20 -10 8 0 17 5 20 10 4 6 -5 10 -20 10
-15 0 -24 -4 -20 -10z"/>
<path d="M14822 14560 c-2 -113 1 -170 8 -170 6 0 10 59 10 170 0 94 -4 170
-8 170 -4 0 -9 -76 -10 -170z"/>
<path d="M14430 14611 c0 -6 4 -13 10 -16 6 -3 7 1 4 9 -7 18 -14 21 -14 7z"/>
<path d="M14411 14594 c0 -11 3 -14 6 -6 3 7 2 16 -1 19 -3 4 -6 -2 -5 -13z"/>
<path d="M14666 14497 c3 -10 9 -15 12 -12 3 3 0 11 -7 18 -10 9 -11 8 -5 -6z"/>
<path d="M14781 14464 c0 -11 3 -14 6 -6 3 7 2 16 -1 19 -3 4 -6 -2 -5 -13z"/>
<path d="M14544 14401 c6 -8 96 -4 105 5 2 2 -21 4 -53 4 -31 0 -55 -4 -52 -9z"/>
<path d="M14360 14372 c0 -8 288 -7 296 1 3 3 -62 6 -145 5 -83 0 -151 -3
-151 -6z"/>
<path d="M14735 14370 c-18 -8 -17 -9 8 -9 15 -1 27 4 27 9 0 12 -8 12 -35 0z"/>
<path d="M14825 14370 c3 -5 8 -10 11 -10 2 0 4 5 4 10 0 6 -5 10 -11 10 -5 0
-7 -4 -4 -10z"/>
<path d="M14872 14090 l3 -240 42 0 c41 0 65 14 41 23 -7 3 0 6 15 6 16 1 26
-3 22 -8 -8 -14 58 -25 98 -17 17 4 40 8 49 9 14 1 15 4 5 16 -7 8 -7 12 -2 9
6 -4 17 -3 25 3 12 7 11 9 -5 10 -13 1 -10 4 10 8 37 9 42 6 24 -16 -9 -12 -4
-10 15 5 16 12 36 22 46 22 9 0 22 10 29 23 l11 22 -6 -22 c-4 -19 -1 -23 19
-23 25 0 31 -20 12 -37 -4 -4 -5 -3 -2 3 4 7 0 14 -8 18 -11 4 -15 -2 -15 -23
0 -24 4 -28 28 -28 26 0 27 2 26 51 -1 28 -2 53 -3 55 -1 2 -10 -4 -21 -14
-20 -18 -20 -18 -18 7 1 17 7 24 16 20 27 -10 32 24 31 191 l-1 167 -244 0
-244 0 2 -240z"/>
<path d="M15270 13901 c0 -6 -6 -8 -14 -5 -7 3 -16 -2 -20 -11 -4 -13 -1 -15
13 -10 13 4 23 0 29 -11 8 -14 10 -12 10 10 0 14 -4 29 -9 32 -5 3 -9 1 -9 -5z"/>
<path d="M11288 15818 c-3 -18 -4 -53 -2 -78 4 -73 5 -76 11 -62 2 6 9 9 15 6
6 -4 6 0 -1 13 -16 31 -10 63 14 64 11 1 24 1 28 0 4 -1 7 4 6 11 -5 39 3 67
19 71 9 3 -6 5 -34 6 -51 1 -52 1 -56 -31z"/>
<path d="M13018 15332 l-206 -2 -1 -235 0 -235 142 0 c78 0 186 -1 240 -3 l97
-2 0 241 0 240 -32 0 c-18 -1 -126 -2 -240 -4z m-161 -28 c-3 -3 -12 -4 -19
-1 -8 3 -5 6 6 6 11 1 17 -2 13 -5z m46 -1 c-7 -2 -19 -2 -25 0 -7 3 -2 5 12
5 14 0 19 -2 13 -5z m-56 -90 c-3 -10 -5 -4 -5 12 0 17 2 24 5 18 2 -7 2 -21
0 -30z m0 -105 c-3 -8 -6 -5 -6 6 -1 11 2 17 5 13 3 -3 4 -12 1 -19z"/>
<path d="M12273 14985 c0 -27 2 -38 4 -22 2 15 2 37 0 50 -2 12 -4 0 -4 -28z"/>
<path d="M12271 14884 c0 -11 3 -14 6 -6 3 7 2 16 -1 19 -3 4 -6 -2 -5 -13z"/>
<path d="M14013 14312 c-127 -2 -153 -5 -153 -17 0 -8 -4 -15 -10 -15 -5 0 -7
7 -4 15 4 8 1 15 -5 15 -8 0 -11 -71 -11 -240 l0 -240 243 0 242 0 -3 237 c-1
130 -3 238 -5 239 -6 6 -143 9 -294 6z m-136 -59 c5 -14 -25 -12 -31 3 -3 7 2
11 12 10 9 -2 17 -7 19 -13z m37 1 c3 -8 2 -12 -4 -9 -6 3 -10 10 -10 16 0 14
7 11 14 -7z m385 -46 c-1 -42 -3 -48 -9 -28 -12 36 -12 80 0 80 6 0 10 -24 9
-52z"/>
<path d="M15381 15454 c0 -11 3 -14 6 -6 3 7 2 16 -1 19 -3 4 -6 -2 -5 -13z"/>
<path d="M15892 15155 c0 -16 2 -22 5 -12 2 9 2 23 0 30 -3 6 -5 -1 -5 -18z"/>
<path d="M15891 15084 c0 -11 3 -14 6 -6 3 7 2 16 -1 19 -3 4 -6 -2 -5 -13z"/>
<path d="M15891 14974 c0 -11 3 -14 6 -6 3 7 2 16 -1 19 -3 4 -6 -2 -5 -13z"/>
<path d="M11343 14823 c20 -2 54 -2 75 0 20 2 3 4 -38 4 -41 0 -58 -2 -37 -4z"/>
<path d="M11503 14823 c9 -2 25 -2 35 0 9 3 1 5 -18 5 -19 0 -27 -2 -17 -5z"/>
<path d="M11608 14823 c7 -3 16 -2 19 1 4 3 -2 6 -13 5 -11 0 -14 -3 -6 -6z"/>
<path d="M11648 14823 c6 -2 18 -2 25 0 6 3 1 5 -13 5 -14 0 -19 -2 -12 -5z"/>
<path d="M11698 14823 c7 -3 16 -2 19 1 4 3 -2 6 -13 5 -11 0 -14 -3 -6 -6z"/>
<path d="M11540 14484 c0 -8 5 -12 10 -9 6 3 10 10 10 16 0 5 -4 9 -10 9 -5 0
-10 -7 -10 -16z"/>
<path d="M11569 14471 c-1 -3 -1 -9 0 -13 0 -4 -6 -5 -14 -2 -10 4 -15 0 -15
-11 0 -18 -23 -45 -39 -45 -16 0 -13 -17 4 -24 8 -3 21 1 29 9 8 8 26 15 40
15 21 0 26 5 26 24 0 13 -6 27 -12 29 -10 4 -10 6 0 6 17 1 15 18 -3 18 -8 0
-16 -3 -16 -6z"/>
<path d="M11650 14440 c0 -5 5 -10 11 -10 5 0 7 5 4 10 -3 6 -8 10 -11 10 -2
0 -4 -4 -4 -10z"/>
<path d="M11935 13990 c3 -5 10 -10 16 -10 5 0 9 5 9 10 0 6 -7 10 -16 10 -8
0 -12 -4 -9 -10z"/>
<path d="M11831 13954 c0 -11 3 -14 6 -6 3 7 2 16 -1 19 -3 4 -6 -2 -5 -13z"/>
<path d="M11860 13904 c0 -8 5 -12 10 -9 6 3 10 10 10 16 0 5 -4 9 -10 9 -5 0
-10 -7 -10 -16z"/>
<path d="M12380 13762 c0 -5 7 -9 15 -9 8 0 15 4 15 9 0 4 -7 8 -15 8 -8 0
-15 -4 -15 -8z"/>
<path d="M12520 13760 c0 -6 7 -10 15 -10 8 0 15 2 15 4 0 2 -7 6 -15 10 -8 3
-15 1 -15 -4z"/>
<path d="M12311 13699 c-1 -9 7 -23 17 -30 15 -12 16 -12 6 1 -6 8 -14 22 -17
30 -5 13 -6 12 -6 -1z"/>
<path d="M12660 13660 c0 -11 5 -20 10 -20 6 0 10 9 10 20 0 11 -4 20 -10 20
-5 0 -10 -9 -10 -20z"/>
<path d="M12520 13609 c0 -5 5 -7 10 -4 6 3 10 8 10 11 0 2 -4 4 -10 4 -5 0
-10 -5 -10 -11z"/>
<path d="M12622 13608 c2 -6 10 -14 16 -16 7 -2 10 2 6 12 -7 18 -28 22 -22 4z"/>
<path d="M12480 13550 c0 -5 5 -10 10 -10 6 0 10 5 10 10 0 6 -4 10 -10 10 -5
0 -10 -4 -10 -10z"/>
<path d="M12537 13474 c-8 -8 3 -34 14 -34 5 0 9 9 9 20 0 19 -11 26 -23 14z"/>
<path d="M12598 13473 c7 -3 16 -2 19 1 4 3 -2 6 -13 5 -11 0 -14 -3 -6 -6z"/>
<path d="M12670 13410 c19 -13 30 -13 30 0 0 6 -10 10 -22 10 -19 0 -20 -2 -8
-10z"/>
<path d="M12378 13349 c-7 -5 19 -8 62 -8 82 1 83 5 3 12 -28 2 -58 0 -65 -4z"/>
<path d="M12650 13349 c0 -5 9 -9 20 -9 11 0 20 2 20 4 0 2 -9 6 -20 9 -11 3
-20 1 -20 -4z"/>
<path d="M12821 13234 c0 -11 3 -14 6 -6 3 7 2 16 -1 19 -3 4 -6 -2 -5 -13z"/>
<path d="M13005 13180 c-3 -5 1 -10 10 -10 9 0 13 5 10 10 -3 6 -8 10 -10 10
-2 0 -7 -4 -10 -10z"/>
<path d="M13120 13179 c0 -5 5 -7 10 -4 6 3 10 8 10 11 0 2 -4 4 -10 4 -5 0
-10 -5 -10 -11z"/>
<path d="M12840 13170 c0 -5 5 -10 10 -10 6 0 10 5 10 10 0 6 -4 10 -10 10 -5
0 -10 -4 -10 -10z"/>
<path d="M12957 13129 c3 -10 12 -20 21 -24 14 -5 14 -4 5 6 -9 9 -9 16 -2 25
8 10 6 13 -9 11 -13 -1 -18 -7 -15 -18z"/>
<path d="M13140 13140 c0 -5 5 -10 10 -10 6 0 10 5 10 10 0 6 -4 10 -10 10 -5
0 -10 -4 -10 -10z"/>
<path d="M12840 13030 c0 -5 5 -10 10 -10 6 0 10 5 10 10 0 6 -4 10 -10 10 -5
0 -10 -4 -10 -10z"/>
<path d="M12895 13030 c27 -12 43 -12 25 0 -8 5 -22 9 -30 9 -10 0 -8 -3 5 -9z"/>
<path d="M12840 12990 c0 -5 5 -10 10 -10 6 0 10 5 10 10 0 6 -4 10 -10 10 -5
0 -10 -4 -10 -10z"/>
<path d="M12840 12948 c0 -9 5 -20 10 -23 13 -8 13 5 0 25 -8 13 -10 13 -10
-2z"/>
<path d="M12833 12885 c-15 -17 -16 -25 -3 -25 5 0 14 9 20 20 12 23 1 26 -17
5z"/>
<path d="M13343 12690 c0 -30 2 -43 4 -27 2 15 2 39 0 55 -2 15 -4 2 -4 -28z"/>
<path d="M13599 12633 c0 -5 -2 -16 -4 -25 -2 -10 1 -18 5 -18 5 0 11 -8 13
-17 4 -14 5 -12 6 5 2 32 0 37 -11 34 -5 -1 -7 2 -3 8 3 6 11 8 16 5 5 -4 9
-1 9 4 0 12 -30 15 -31 4z"/>
<path d="M13744 12625 c4 -10 -1 -15 -14 -15 -11 0 -20 -7 -20 -15 0 -14 3
-14 24 1 15 9 22 21 19 30 -3 8 -7 14 -10 14 -3 0 -3 -7 1 -15z"/>
<path d="M13340 12469 c0 -100 4 -159 9 -150 9 13 4 301 -5 310 -2 2 -4 -70
-4 -160z"/>
<path d="M13666 12617 c3 -9 1 -24 -6 -32 -10 -12 -10 -15 1 -15 8 0 20 4 28
9 11 7 10 13 -8 32 -16 17 -20 19 -15 6z"/>
<path d="M13770 12609 c0 -5 5 -7 10 -4 6 3 10 8 10 11 0 2 -4 4 -10 4 -5 0
-10 -5 -10 -11z"/>
<path d="M13769 12569 c-1 -8 -1 -18 0 -23 1 -4 -3 -14 -9 -21 -8 -10 -8 -15
0 -20 15 -9 5 -136 -12 -147 -10 -5 -8 -8 5 -8 11 0 17 -6 15 -16 -2 -10 2
-19 8 -21 7 -2 10 5 7 22 -4 17 -1 25 8 25 12 0 12 2 0 9 -9 6 -10 11 -2 15 6
4 11 17 10 29 -1 20 -2 20 -9 -3 -6 -20 -8 -15 -9 26 -1 27 5 56 12 63 10 11
9 12 -1 6 -11 -5 -13 1 -11 28 2 20 0 39 -4 43 -4 4 -8 1 -8 -7z"/>
<path d="M13675 12560 c-3 -5 -1 -10 4 -10 6 0 11 5 11 10 0 6 -2 10 -4 10 -3
0 -8 -4 -11 -10z"/>
<path d="M13741 12544 c0 -11 3 -14 6 -6 3 7 2 16 -1 19 -3 4 -6 -2 -5 -13z"/>
<path d="M13605 12540 c3 -5 8 -10 11 -10 2 0 4 5 4 10 0 6 -5 10 -11 10 -5 0
-7 -4 -4 -10z"/>
<path d="M13485 12531 c-3 -6 -13 -8 -23 -6 -12 2 -18 -4 -19 -18 -2 -22 -2
-22 13 -3 8 11 14 14 14 8 0 -7 10 -11 23 -11 17 1 18 2 4 6 -14 4 -16 8 -6
19 6 8 9 14 6 14 -3 0 -8 -4 -12 -9z"/>
<path d="M13403 12523 c-7 -3 -13 -12 -13 -21 1 -15 3 -14 17 3 15 20 15 20
10 -3 -3 -12 -1 -20 4 -16 11 6 12 31 2 37 -5 2 -14 2 -20 0z"/>
<path d="M13700 12516 c0 -2 7 -9 15 -16 9 -7 15 -8 15 -2 0 5 -7 12 -15 16
-8 3 -15 4 -15 2z"/>
<path d="M13527 12439 c7 -7 15 -10 18 -7 3 3 -2 9 -12 12 -14 6 -15 5 -6 -5z"/>
<path d="M13695 12436 c-23 -18 -39 -21 -30 -6 3 6 -3 10 -14 10 -11 0 -23 -4
-26 -10 -3 -5 3 -10 14 -10 11 0 23 -5 26 -10 4 -6 10 -8 15 -5 4 3 6 -4 3
-15 -3 -11 0 -20 6 -20 6 0 11 7 11 15 0 18 12 19 27 4 7 -7 14 -2 21 20 7 19
7 33 1 37 -5 3 -9 2 -8 -3 4 -21 -2 -25 -14 -10 -11 16 -14 16 -32 3z"/>
<path d="M13446 12432 c-3 -5 1 -9 9 -9 8 0 15 4 15 9 0 4 -4 8 -9 8 -6 0 -12
-4 -15 -8z"/>
<path d="M13480 12429 c0 -5 5 -9 10 -9 6 0 10 -4 10 -10 0 -5 -9 -10 -19 -10
-10 0 -21 -7 -25 -15 -3 -9 0 -15 10 -15 11 0 14 -6 9 -22 -5 -21 -5 -21 9 2
14 23 15 23 16 5 1 -18 2 -18 11 3 9 23 29 22 29 -2 0 -7 7 -21 15 -32 14 -18
15 -17 5 8 -8 23 -6 29 10 38 16 9 22 7 26 -5 3 -8 14 -15 23 -15 14 0 14 2 1
10 -13 8 -13 11 -1 22 11 11 13 11 6 -1 -5 -9 -4 -12 3 -7 19 11 14 26 -9 26
-11 0 -17 -4 -14 -10 3 -5 1 -10 -4 -10 -6 0 -11 5 -11 11 0 6 -7 4 -15 -5
-22 -21 -48 -10 -34 15 5 10 8 19 7 19 -2 0 -18 4 -36 9 -20 6 -32 6 -32 0z
m40 -39 c0 -5 -4 -10 -10 -10 -5 0 -10 5 -10 10 0 6 5 10 10 10 6 0 10 -4 10
-10z"/>
<path d="M13370 12390 c0 -33 13 -38 36 -16 20 21 17 28 -6 16 -11 -6 -20 -7
-20 -2 0 5 10 14 23 20 22 10 22 11 -5 11 -25 1 -28 -3 -28 -29z"/>
<path d="M13677 12341 c-3 -14 -11 -18 -26 -14 -12 3 -21 1 -21 -5 0 -6 22 -9
50 -9 28 1 50 7 50 12 0 6 -4 11 -10 11 -5 1 -15 2 -21 3 -5 0 -7 6 -4 11 3 6
2 10 -3 10 -5 0 -12 -9 -15 -19z"/>
<path d="M13600 12325 c0 -8 4 -15 8 -15 5 0 9 7 9 15 0 8 -4 15 -9 15 -4 0
-8 -7 -8 -15z"/>
<path d="M11610 12256 c0 -8 71 -12 76 -4 3 4 -13 8 -35 8 -23 0 -41 -2 -41
-4z"/>
<path d="M11610 12216 c0 -17 60 -30 74 -16 7 7 2 10 -14 11 l-25 1 25 8 c21
7 19 8 -17 9 -30 1 -43 -3 -43 -13z"/>
<path d="M11445 12080 c-3 -5 -1 -10 4 -10 6 0 11 5 11 10 0 6 -2 10 -4 10 -3
0 -8 -4 -11 -10z"/>
<path d="M11468 12043 c7 -3 16 -2 19 1 4 3 -2 6 -13 5 -11 0 -14 -3 -6 -6z"/>
<path d="M13852 11870 c0 -14 2 -19 5 -12 2 6 2 18 0 25 -3 6 -5 1 -5 -13z"/>
<path d="M12055 11910 c-3 -5 1 -10 10 -10 9 0 13 5 10 10 -3 6 -8 10 -10 10
-2 0 -7 -4 -10 -10z"/>
<path d="M11193 11713 c9 -2 23 -2 30 0 6 3 -1 5 -18 5 -16 0 -22 -2 -12 -5z"/>
<path d="M10777 11578 c-2 -7 -1 -22 4 -33 6 -16 8 -14 8 13 1 33 -4 41 -12
20z"/>
<path d="M10823 11475 c0 -22 2 -30 4 -17 2 12 2 30 0 40 -3 9 -5 -1 -4 -23z"/>
<path d="M10264 11241 c-2 -2 -4 -37 -4 -78 0 -57 3 -73 15 -73 10 0 15 16 18
58 l3 57 2 -56 2 -56 45 -1 c24 -1 47 3 50 8 6 10 3 11 -50 14 -29 1 -30 2
-33 58 l-3 57 48 3 c44 3 42 4 -20 8 -38 3 -71 3 -73 1z"/>
<path d="M10263 11040 c0 -18 6 -30 14 -30 8 0 13 12 13 30 0 18 -5 30 -13 30
-8 0 -14 -12 -14 -30z"/>
<path d="M10768 10980 c-7 -24 -3 -38 8 -28 3 4 4 17 2 30 l-3 23 -7 -25z"/>
<path d="M9750 10615 l0 -115 83 1 c45 1 74 3 64 6 -9 2 -15 8 -12 12 2 5 -3
8 -13 8 -43 0 -52 4 -52 22 0 15 5 18 23 14 21 -4 21 -4 4 10 -22 18 -21 27 4
45 11 7 19 19 19 25 0 7 14 14 31 15 39 3 51 10 43 24 -4 7 -2 8 4 4 7 -4 12
-16 12 -27 0 -10 5 -19 10 -19 6 0 10 20 10 45 l0 45 -115 0 -115 0 0 -115z"/>
<path d="M10240 10632 c0 -21 2 -41 5 -43 2 -3 20 -3 40 -1 33 4 35 6 35 43 0
39 0 39 -40 39 -40 0 -40 0 -40 -38z"/>
<path d="M10500 10569 c0 -5 5 -7 10 -4 6 3 10 8 10 11 0 2 -4 4 -10 4 -5 0
-10 -5 -10 -11z"/>
<path d="M10505 10540 c-3 -5 3 -10 14 -10 12 0 24 0 28 -1 4 0 9 4 11 10 5
14 -45 15 -53 1z"/>
<path d="M9388 9673 c-1 -32 -1 -69 -1 -83 2 -102 3 -110 18 -110 8 0 15 -8
15 -17 0 -15 2 -16 10 -3 5 8 15 15 22 15 21 0 22 45 1 60 -22 16 -10 23 51
27 23 2 41 9 44 17 3 9 0 11 -7 6 -8 -5 -11 2 -9 22 2 22 -1 28 -17 28 -16 0
-19 -6 -17 -27 2 -14 -2 -29 -7 -33 -7 -4 -11 9 -12 37 -2 119 0 113 -46 116
l-43 3 -2 -58z m29 -110 c-3 -10 -5 -2 -5 17 0 19 2 27 5 18 2 -10 2 -26 0
-35z"/>
<path d="M9095 9700 c3 -5 8 -10 11 -10 2 0 4 5 4 10 0 6 -5 10 -11 10 -5 0
-7 -4 -4 -10z"/>
<path d="M8825 9670 c-3 -6 1 -7 9 -4 18 7 21 14 7 14 -6 0 -13 -4 -16 -10z"/>
<path d="M8878 9483 c6 -2 18 -2 25 0 6 3 1 5 -13 5 -14 0 -19 -2 -12 -5z"/>
<path d="M9442 9430 c0 -14 2 -19 5 -12 2 6 2 18 0 25 -3 6 -5 1 -5 -13z"/>
<path d="M8211 9142 c1 -31 3 -65 6 -74 6 -26 41 -22 46 5 4 19 4 18 6 -5 0
-16 6 -28 11 -28 6 0 9 12 6 28 -2 15 -5 33 -5 40 -1 6 -13 12 -28 13 -24 0
-25 1 -8 8 11 4 37 6 58 3 36 -4 37 -6 37 -43 0 -69 15 -41 17 31 l2 70 -37 1
c-20 0 -54 2 -75 5 l-37 4 1 -58z"/>
<path d="M8170 8658 c0 -12 3 -18 7 -14 11 10 12 36 2 36 -5 0 -9 -10 -9 -22z"/>
<path d="M11390 11320 c0 -5 5 -10 11 -10 5 0 7 5 4 10 -3 6 -8 10 -11 10 -2
0 -4 -4 -4 -10z"/>
<path d="M10946 10965 c4 -8 8 -15 10 -15 2 0 4 7 4 15 0 8 -4 15 -10 15 -5 0
-7 -7 -4 -15z"/>
<path d="M10515 10379 c-4 -6 -5 -12 -2 -15 7 -7 37 7 37 17 0 13 -27 11 -35
-2z"/>
<path d="M10108 10013 c7 -3 16 -2 19 1 4 3 -2 6 -13 5 -11 0 -14 -3 -6 -6z"/>
<path d="M4682 9195 c10 -10 117 -14 123 -4 4 5 -21 9 -61 9 -37 0 -65 -2 -62
-5z"/>
<path d="M5642 8958 l-2 -248 168 2 167 2 -162 3 -163 3 -3 243 -2 242 -3
-247z"/>
<path d="M6102 9170 c0 -14 2 -19 5 -12 2 6 2 18 0 25 -3 6 -5 1 -5 -13z"/>
<path d="M4723 9132 c-8 -5 -9 -13 -3 -22 6 -8 10 -13 11 -10 0 3 2 13 4 23 4
19 4 19 -12 9z"/>
<path d="M6104 8995 c0 -82 2 -115 3 -72 2 43 2 110 0 150 -1 40 -3 5 -3 -78z"/>
<path d="M5080 9060 c0 -5 7 -7 15 -4 8 4 15 8 15 10 0 2 -7 4 -15 4 -8 0 -15
-4 -15 -10z"/>
<path d="M5015 9050 c-3 -5 -1 -10 4 -10 6 0 11 5 11 10 0 6 -2 10 -4 10 -3 0
-8 -4 -11 -10z"/>
<path d="M6101 8804 c0 -11 3 -14 6 -6 3 7 2 16 -1 19 -3 4 -6 -2 -5 -13z"/>
<path d="M6033 8713 c9 -2 23 -2 30 0 6 3 -1 5 -18 5 -16 0 -22 -2 -12 -5z"/>
<path d="M6088 8713 c7 -3 16 -2 19 1 4 3 -2 6 -13 5 -11 0 -14 -3 -6 -6z"/>
<path d="M5188 8693 c7 -3 16 -2 19 1 4 3 -2 6 -13 5 -11 0 -14 -3 -6 -6z"/>
<path d="M6150 8454 c0 -125 4 -223 9 -220 5 3 6 24 4 47 -5 38 -3 41 13 35
17 -5 18 -5 2 7 -14 11 -16 35 -15 185 1 95 -1 172 -5 172 -5 0 -8 -102 -8
-226z"/>
<path d="M6243 8296 c0 -14 5 -27 13 -30 10 -4 10 1 2 25 -12 35 -15 36 -15 5z"/>
<path d="M6215 8250 c-17 -8 -16 -8 8 -7 15 1 27 5 27 9 0 10 -9 9 -35 -2z"/>
<path d="M6150 8209 c0 -5 91 -9 220 -9 144 0 220 4 220 10 0 7 -75 10 -220
10 -128 -1 -220 -5 -220 -11z"/>
<path d="M5203 8203 c48 -2 125 -2 170 0 45 1 6 3 -88 3 -93 0 -130 -2 -82 -3z"/>
<path d="M5478 8203 c12 -2 32 -2 45 0 12 2 2 4 -23 4 -25 0 -35 -2 -22 -4z"/>
<path d="M5573 8203 c9 -2 25 -2 35 0 9 3 1 5 -18 5 -19 0 -27 -2 -17 -5z"/>
<path d="M5644 7955 c0 -126 2 -177 3 -112 2 65 2 168 0 230 -1 62 -3 9 -3
-118z"/>
<path d="M4640 8151 c0 -5 4 -11 9 -13 16 -5 22 -58 6 -58 -7 0 -15 4 -17 10
-1 5 -4 -22 -5 -60 -1 -46 2 -68 9 -64 6 4 6 -1 -1 -14 -6 -11 -11 -30 -11
-40 0 -16 5 -19 22 -14 14 3 19 2 14 -6 -4 -7 -14 -12 -22 -12 -19 0 -18 -14
4 -33 19 -18 63 -19 75 -2 5 7 9 7 15 -1 7 -11 128 -12 139 0 4 3 -2 6 -12 6
-18 0 -18 1 1 15 11 8 14 15 7 15 -20 0 -15 31 8 56 14 14 17 24 10 29 -7 3
-10 1 -9 -6 2 -6 -2 -13 -8 -16 -16 -5 -24 33 -11 46 8 8 7 11 -4 11 -9 0 -16
-11 -17 -26 -3 -33 -24 -54 -56 -54 -28 0 -36 24 -11 34 8 3 15 1 15 -4 0 -6
5 -10 11 -10 5 0 7 6 3 12 -13 21 -10 62 6 75 13 11 12 12 -7 13 -17 0 -21 4
-17 18 5 13 4 14 -4 3 -6 -8 -8 -20 -6 -26 3 -7 -2 -15 -12 -19 -11 -4 -15 -2
-11 8 4 10 1 13 -9 9 -17 -6 -20 32 -4 42 16 10 -8 35 -31 35 -11 0 -19 7 -19
18 0 14 2 15 10 2 8 -13 11 -12 25 5 13 15 15 16 11 3 -2 -9 1 -22 9 -28 11
-9 16 -6 25 12 11 22 10 22 -4 4 -12 -15 -16 -16 -16 -5 0 8 5 20 10 25 8 8
-9 11 -55 13 -37 1 -65 -2 -65 -8z m98 -66 c4 -4 1 -5 -5 -1 -9 5 -13 0 -13
-16 0 -18 -2 -20 -10 -8 -8 13 -10 12 -10 -4 0 -25 -5 -18 -14 16 -5 24 -3 26
19 24 14 -1 28 -6 33 -11z m52 -95 c0 -21 -34 -45 -50 -35 -16 10 -12 35 5 29
9 -4 15 0 15 10 0 9 7 16 15 16 8 0 15 -9 15 -20z m-105 -20 c3 -6 -1 -7 -9
-4 -18 7 -21 14 -7 14 6 0 13 -4 16 -10z m35 0 c0 -5 -5 -10 -11 -10 -5 0 -7
5 -4 10 3 6 8 10 11 10 2 0 4 -4 4 -10z m-60 -40 c0 -5 -4 -10 -10 -10 -5 0
-10 5 -10 10 0 6 5 10 10 10 6 0 10 -4 10 -10z m110 -28 c0 -5 -6 -17 -14 -28
-12 -15 -17 -16 -27 -7 -10 10 -9 14 5 19 14 5 15 9 4 15 -9 6 -7 9 10 9 12 0
22 -4 22 -8z m67 -35 c-1 -5 -17 -11 -34 -12 -23 -2 -30 1 -26 11 6 16 65 16
60 1z"/>
<path d="M4904 8152 c5 -9 -1 -23 -15 -40 -13 -14 -17 -21 -8 -14 9 6 20 8 24
4 5 -4 5 -2 1 5 -3 6 1 16 9 21 15 8 14 10 -1 23 -13 10 -16 11 -10 1z"/>
<path d="M4997 8153 c-3 -5 3 -14 13 -21 23 -14 39 3 21 21 -9 9 -11 7 -6 -8
6 -19 6 -19 -8 -2 -8 10 -17 14 -20 10z"/>
<path d="M4800 8120 c-6 -11 -8 -20 -6 -20 3 0 10 9 16 20 6 11 8 20 6 20 -3
0 -10 -9 -16 -20z"/>
<path d="M4825 8121 c-3 -5 -2 -12 3 -15 5 -3 9 1 9 9 0 17 -3 19 -12 6z"/>
<path d="M4987 8123 c-11 -10 -8 -20 7 -26 10 -4 12 0 9 14 -6 21 -7 22 -16
12z"/>
<path d="M4955 8100 c-3 -5 -1 -10 4 -10 6 0 11 5 11 10 0 6 -2 10 -4 10 -3 0
-8 -4 -11 -10z"/>
<path d="M4933 8049 c-24 -24 -13 -45 20 -40 4 0 7 -4 7 -11 0 -7 8 -3 17 9
l17 21 17 -22 c17 -20 17 -20 17 15 0 35 -1 36 -24 25 -13 -6 -24 -15 -24 -20
0 -4 -8 2 -17 13 -15 18 -20 20 -30 10z m21 -7 c3 -5 -1 -9 -9 -9 -8 0 -12 4
-9 9 3 4 7 8 9 8 2 0 6 -4 9 -8z"/>
<path d="M4882 8021 c-1 -19 3 -28 13 -28 10 0 12 4 6 10 -5 5 -7 15 -5 22 3
7 1 15 -3 18 -5 3 -10 -7 -11 -22z"/>
<path d="M4902 7929 c-12 -19 -12 -19 18 -4 35 18 36 20 12 22 -10 1 -24 -7
-30 -18z"/>
<path d="M4920 7910 c0 -5 9 -10 20 -10 22 0 25 -7 10 -30 -6 -10 -10 -11 -10
-2 0 6 -4 12 -8 12 -5 0 -9 -7 -9 -15 0 -16 7 -18 31 -9 22 8 20 41 -3 54 -25
13 -31 13 -31 0z"/>
<path d="M4895 7890 c-3 -5 -1 -10 4 -10 6 0 11 5 11 10 0 6 -2 10 -4 10 -3 0
-8 -4 -11 -10z"/>
<path d="M5068 7723 c7 -3 16 -2 19 1 4 3 -2 6 -13 5 -11 0 -14 -3 -6 -6z"/>
<path d="M5201 7665 c3 -2 92 -5 199 -6 107 -2 184 -6 170 -10 -22 -6 -23 -7
-4 -8 12 -1 27 6 34 14 11 13 -12 15 -195 15 -115 0 -206 -2 -204 -5z"/>
<path d="M5303 7623 c20 -2 54 -2 75 0 20 2 3 4 -38 4 -41 0 -58 -2 -37 -4z"/>
<path d="M5458 7623 c12 -2 30 -2 40 0 9 3 -1 5 -23 4 -22 0 -30 -2 -17 -4z"/>
<path d="M5159 7543 c0 -32 -2 -80 -3 -108 -1 -27 1 -72 4 -100 5 -34 8 1 9
108 0 86 -1 157 -4 157 -3 0 -5 -26 -6 -57z"/>
<path d="M5610 7360 c0 -95 2 -171 5 -168 7 6 8 329 1 336 -3 3 -6 -73 -6
-168z"/>
<path d="M5655 7150 c3 -5 34 -10 67 -10 68 0 75 -9 10 -12 -23 -1 -42 -5 -42
-10 0 -4 5 -7 11 -5 6 1 14 -4 16 -11 3 -7 -1 -11 -7 -10 -8 2 -14 -16 -16
-54 -2 -33 1 -58 6 -58 6 0 10 -5 10 -11 0 -5 -4 -8 -8 -5 -5 3 -8 -15 -8 -39
1 -25 4 -45 8 -45 4 0 7 -8 7 -17 0 -10 1 -27 4 -38 2 -11 1 -32 -3 -46 -4
-15 -4 -33 1 -40 5 -8 9 -11 10 -6 2 8 6 24 9 35 6 22 4 58 -5 65 -6 5 -4 7 5
4 8 -2 15 -9 15 -14 0 -6 3 -15 8 -19 4 -4 7 2 7 13 0 17 4 20 23 15 18 -5 19
-7 5 -10 -10 -2 -18 -7 -18 -12 0 -12 33 -5 38 8 2 6 14 9 27 6 14 -2 25 2 29
11 7 20 26 19 42 -2 16 -21 18 -37 4 -28 -15 9 -12 -18 4 -51 8 -15 12 -32 9
-37 -4 -6 -1 -7 6 -3 7 5 10 15 7 23 -3 8 -2 12 3 9 5 -3 11 1 15 9 3 8 12 12
21 9 10 -4 15 0 15 15 0 12 4 21 9 21 5 0 12 8 14 18 4 16 5 16 6 0 1 -11 9
-18 23 -18 21 0 21 0 2 -16 -18 -15 -17 -15 6 -1 26 15 42 77 20 77 -6 0 -8
-4 -5 -10 3 -5 1 -18 -4 -27 -6 -11 -11 -13 -11 -5 0 8 -5 10 -12 6 -9 -5 -8
-2 1 9 8 10 11 20 7 24 -3 3 -6 1 -6 -6 0 -7 -5 -9 -10 -6 -6 4 -8 11 -5 16 4
5 0 9 -7 9 -8 1 -5 7 7 17 14 11 15 14 4 10 -13 -4 -16 2 -13 35 2 32 0 39
-13 34 -11 -5 -14 -2 -9 10 4 12 2 15 -9 10 -9 -3 -24 3 -35 14 -20 20 -20 20
-26 -10 -4 -16 -10 -30 -15 -30 -5 0 -9 -7 -9 -16 0 -10 6 -14 15 -11 8 4 17
2 20 -3 3 -5 -6 -12 -21 -16 -19 -5 -22 -9 -12 -15 10 -7 9 -9 -4 -9 -9 0 -19
-6 -21 -12 -3 -8 -6 -6 -6 5 -1 13 -7 16 -26 13 -15 -3 -31 2 -40 11 -15 14
-17 14 -29 -3 -12 -16 -13 -16 -13 9 0 23 3 26 23 23 14 -3 22 -1 19 5 -4 5 0
9 7 10 7 0 -3 7 -22 14 l-35 13 45 2 c25 1 36 5 25 7 -26 7 -46 23 -40 33 3 5
1 10 -5 12 -6 2 -1 9 11 16 12 8 18 9 14 3 -6 -10 52 -18 80 -11 6 2 27 2 48
1 26 -1 36 2 35 11 -2 8 5 12 16 10 11 -2 15 1 11 8 -4 6 -13 9 -21 6 -8 -3
-14 1 -14 9 0 17 -25 10 -53 -13 -16 -14 -17 -14 -12 0 4 9 1 19 -5 23 -6 3
-10 3 -9 -2 4 -21 -2 -33 -16 -33 -12 0 -13 4 -5 19 8 16 6 20 -8 24 -13 4
-12 5 6 7 27 3 60 3 70 0 16 -4 94 -1 99 4 4 3 -9 7 -28 7 -152 5 -202 9 -207
13 -5 5 223 11 275 7 11 -1 24 3 28 8 4 8 -63 11 -220 11 -148 0 -224 -3 -220
-10z m145 -40 c8 -1 2 -5 -15 -9 -31 -8 -55 -4 -55 8 0 6 35 7 70 1z m-50 -30
c0 -5 -9 -10 -21 -10 -11 0 -17 5 -14 10 3 6 13 10 21 10 8 0 14 -4 14 -10z
m205 -9 c3 -5 -4 -13 -16 -16 -23 -8 -34 -1 -24 14 8 13 32 14 40 2z m-212
-46 c-3 -9 -8 -14 -10 -11 -3 3 -2 9 2 15 9 16 15 13 8 -4z m-23 -15 c0 -5 -5
-10 -11 -10 -5 0 -7 5 -4 10 3 6 8 10 11 10 2 0 4 -4 4 -10z m290 -86 c0 -8
-5 -12 -10 -9 -6 3 -13 -1 -16 -9 -3 -9 -15 -16 -25 -16 -11 0 -19 -7 -19 -16
0 -8 -4 -12 -10 -9 -15 9 -12 35 4 35 8 0 17 7 20 16 3 8 9 13 14 10 4 -2 14
-1 22 5 20 12 20 12 20 -7z"/>
<path d="M6110 7156 c0 -2 7 -6 15 -10 8 -3 15 -1 15 4 0 6 -7 10 -15 10 -8 0
-15 -2 -15 -4z"/>
<path d="M7725 7140 c50 -6 46 -16 -9 -22 l-29 -3 -4 -227 -3 -228 62 -1 c35
0 145 -2 245 -5 l181 -4 1 235 c0 154 -4 237 -11 241 -7 4 -6 9 3 15 8 5 -93
8 -236 7 -137 -1 -227 -4 -200 -8z m35 -72 c0 -4 -4 -8 -9 -8 -6 0 -12 4 -15
8 -3 5 1 9 9 9 8 0 15 -4 15 -9z m-40 -18 c0 -5 -4 -10 -10 -10 -5 0 -10 5
-10 10 0 6 5 10 10 10 6 0 10 -4 10 -10z m-13 -142 c-2 -18 -4 -4 -4 32 0 36
2 50 4 33 2 -18 2 -48 0 -65z"/>
<path d="M5660 7111 c0 -25 6 -27 13 -6 4 8 2 17 -3 20 -6 4 -10 -3 -10 -14z"/>
<path d="M6068 7113 c7 -3 16 -2 19 1 4 3 -2 6 -13 5 -11 0 -14 -3 -6 -6z"/>
<path d="M5795 7021 c-3 -5 -1 -12 5 -16 5 -3 10 1 10 9 0 18 -6 21 -15 7z"/>
<path d="M5843 6946 c0 -8 8 -11 19 -8 10 2 18 8 18 13 0 5 -8 9 -18 9 -10 0
-19 -6 -19 -14z"/>
<path d="M5956 6744 c-9 -23 -2 -28 13 -10 7 8 8 17 3 20 -6 3 -13 -1 -16 -10z"/>
<path d="M5698 6683 c7 -3 16 -2 19 1 4 3 -2 6 -13 5 -11 0 -14 -3 -6 -6z"/>
<path d="M5898 6683 c6 -2 18 -2 25 0 6 3 1 5 -13 5 -14 0 -19 -2 -12 -5z"/>
<path d="M5948 6683 c6 -2 18 -2 25 0 6 3 1 5 -13 5 -14 0 -19 -2 -12 -5z"/>
<path d="M6013 6683 c15 -2 39 -2 55 0 15 2 2 4 -28 4 -30 0 -43 -2 -27 -4z"/>
<path d="M6165 6638 c2 -7 6 -37 9 -66 3 -29 8 -57 11 -62 4 -6 2 -10 -4 -10
-6 0 -7 -11 -2 -27 7 -24 8 -168 1 -168 -1 0 -3 -27 -5 -60 -2 -40 0 -52 5
-35 4 14 8 19 9 13 1 -7 5 -13 10 -13 10 0 9 370 -1 385 -15 25 11 40 71 41
33 0 58 -3 55 -8 -3 -4 0 -8 5 -8 6 0 11 5 11 10 0 16 275 13 286 -2 5 -7 8
-42 7 -78 -3 -125 -3 -145 6 -175 7 -21 10 15 10 123 l1 152 -245 0 c-191 0
-243 -3 -240 -12z m35 -2 c0 -3 -4 -8 -10 -11 -5 -3 -10 -1 -10 4 0 6 5 11 10
11 6 0 10 -2 10 -4z"/>
<path d="M7181 6628 c1 -17 3 -18 6 -6 3 13 18 18 66 21 l62 3 -67 2 c-65 2
-68 1 -67 -20z"/>
<path d="M7418 6643 c12 -2 32 -2 45 0 12 2 2 4 -23 4 -25 0 -35 -2 -22 -4z"/>
<path d="M6356 6617 c3 -10 9 -15 12 -12 3 3 0 11 -7 18 -10 9 -11 8 -5 -6z"/>
<path d="M6268 6613 c6 -2 18 -2 25 0 6 3 1 5 -13 5 -14 0 -19 -2 -12 -5z"/>
<path d="M7180 6542 c0 -34 4 -62 8 -62 8 0 4 111 -4 119 -2 2 -4 -23 -4 -57z"/>
<path d="M6271 6581 c-11 -7 -10 -11 5 -20 24 -13 13 -14 -20 -1 l-26 9 1
-163 c1 -90 -1 -168 -5 -175 -4 -6 -2 -9 7 -5 8 3 17 -2 20 -10 6 -15 42 -16
66 -2 8 5 17 3 22 -5 5 -8 9 -9 9 -3 0 12 66 22 179 29 35 2 68 8 73 13 7 7 4
10 -8 9 -15 -2 -19 6 -21 36 -1 20 2 37 6 37 4 0 8 13 7 30 -1 16 -5 30 -9 30
-5 0 -5 5 -1 12 5 7 3 8 -6 3 -12 -7 -74 -8 -140 0 -14 1 -24 8 -22 14 1 6 -2
11 -7 11 -5 0 -12 10 -14 23 -2 14 -4 11 -3 -8 1 -16 -2 -31 -6 -32 -5 -2 -8
0 -9 5 -1 4 -11 20 -22 36 -19 27 -19 29 -3 23 15 -6 18 -3 14 18 -3 14 -2 25
2 25 4 0 7 10 6 23 -1 19 -6 22 -29 19 -18 -3 -32 1 -40 12 -8 10 -17 13 -26
7z"/>
<path d="M6380 6544 c0 -14 3 -24 8 -22 4 2 24 10 45 18 20 8 37 18 37 23 0 4
-5 5 -10 2 -19 -12 -60 -15 -60 -5 0 5 -4 10 -10 10 -5 0 -10 -12 -10 -26z"/>
<path d="M6486 6548 c3 -4 11 -8 19 -8 7 0 15 -3 18 -7 2 -5 2 -2 1 5 -2 6 4
12 12 12 8 0 12 -4 9 -10 -3 -6 1 -7 10 -4 9 4 13 9 10 13 -10 9 -85 9 -79 -1z"/>
<path d="M6510 6500 c6 -11 13 -20 16 -20 2 0 0 9 -6 20 -6 11 -13 20 -16 20
-2 0 0 -9 6 -20z"/>
<path d="M6388 6503 c7 -3 16 -2 19 1 4 3 -2 6 -13 5 -11 0 -14 -3 -6 -6z"/>
<path d="M6577 6466 c-4 -10 -1 -13 8 -9 8 3 12 9 9 14 -7 12 -11 11 -17 -5z"/>
<path d="M7183 6415 c0 -33 2 -45 4 -27 2 18 2 45 0 60 -2 15 -4 0 -4 -33z"/>
<path d="M6604 6409 c-2 -33 4 -33 11 -1 2 12 1 24 -3 26 -4 2 -8 -9 -8 -25z"/>
<path d="M6460 6420 c-13 -8 -12 -10 3 -10 9 0 17 5 17 10 0 12 -1 12 -20 0z"/>
<path d="M6636 6324 c-3 -9 -6 -36 -6 -60 0 -30 -4 -43 -11 -38 -8 4 -7 0 1
-15 19 -36 30 -14 29 59 -1 73 -3 81 -13 54z"/>
<path d="M6440 6216 c0 -2 7 -6 15 -10 8 -3 15 -1 15 4 0 6 -7 10 -15 10 -8 0
-15 -2 -15 -4z"/>
<path d="M7181 6184 c0 -11 3 -14 6 -6 3 7 2 16 -1 19 -3 4 -6 -2 -5 -13z"/>
<path d="M6178 6173 c7 -3 16 -2 19 1 4 3 -2 6 -13 5 -11 0 -14 -3 -6 -6z"/>
<path d="M9500 9341 c0 -6 4 -13 10 -16 6 -3 7 1 4 9 -7 18 -14 21 -14 7z"/>
<path d="M9410 9268 c0 -6 3 -8 7 -5 3 4 12 2 20 -5 11 -8 12 -7 7 6 -7 18
-34 22 -34 4z"/>
<path d="M8987 9103 c-11 -10 -8 -43 3 -43 6 0 10 11 10 25 0 26 -2 29 -13 18z"/>
<path d="M8305 8490 c-3 -5 -1 -10 4 -10 6 0 11 5 11 10 0 6 -2 10 -4 10 -3 0
-8 -4 -11 -10z"/>
<path d="M7868 8213 c7 -3 16 -2 19 1 4 3 -2 6 -13 5 -11 0 -14 -3 -6 -6z"/>
<path d="M4570 7579 c0 -5 5 -7 10 -4 6 3 10 8 10 11 0 2 -4 4 -10 4 -5 0 -10
-5 -10 -11z"/>
<path d="M4620 7143 c0 -5 55 -7 122 -5 231 5 253 8 66 10 -104 1 -188 -1
-188 -5z"/>
<path d="M5023 7143 c15 -2 39 -2 55 0 15 2 2 4 -28 4 -30 0 -43 -2 -27 -4z"/>
<path d="M5060 7113 c0 -5 5 -15 10 -23 8 -12 10 -11 10 8 0 12 -4 22 -10 22
-5 0 -10 -3 -10 -7z"/>
<path d="M4623 7020 c0 -41 2 -58 4 -37 2 20 2 54 0 75 -2 20 -4 3 -4 -38z"/>
<path d="M4935 7000 c-16 -7 -17 -9 -3 -9 9 -1 20 4 23 9 7 11 7 11 -20 0z"/>
<path d="M4622 6823 l-2 -121 216 0 c138 1 212 4 206 10 -6 6 -47 10 -93 10
-86 0 -117 13 -105 43 3 8 0 15 -7 15 -7 0 -13 -9 -14 -20 -1 -11 2 -20 8 -20
5 0 9 -4 9 -10 0 -5 -10 -10 -21 -10 -18 0 -21 5 -17 30 3 17 2 30 -2 30 -10
0 1 64 13 71 13 9 0 29 -19 29 -8 0 -14 6 -14 13 0 9 -2 9 -9 -1 -4 -8 -17
-12 -27 -10 -17 3 -19 -4 -21 -57 -4 -103 -4 -103 -39 -107 -41 -5 -46 6 -54
132 l-6 95 -2 -122z m15 -105 c-3 -8 -6 -5 -6 6 -1 11 2 17 5 13 3 -3 4 -12 1
-19z m108 12 c3 -5 1 -10 -4 -10 -6 0 -11 5 -11 10 0 6 2 10 4 10 3 0 8 -4 11
-10z m45 6 c0 -3 -4 -8 -10 -11 -5 -3 -10 -1 -10 4 0 6 5 11 10 11 6 0 10 -2
10 -4z"/>
<path d="M5028 6886 c-3 -14 0 -27 7 -29 7 -3 10 5 7 24 -5 35 -8 36 -14 5z"/>
<path d="M4985 6890 c3 -5 8 -10 11 -10 2 0 4 5 4 10 0 6 -5 10 -11 10 -5 0
-7 -4 -4 -10z"/>
<path d="M4858 6875 c-4 -6 -3 -17 2 -25 8 -13 11 -13 22 -1 8 9 8 11 1 7 -6
-3 -13 1 -15 11 -2 11 -6 14 -10 8z"/>
<path d="M4961 6846 c-9 -11 -9 -16 1 -22 7 -4 10 -4 6 1 -4 4 -3 14 3 22 6 7
9 13 6 13 -2 0 -10 -6 -16 -14z"/>
<path d="M4920 6830 c0 -5 5 -10 10 -10 6 0 10 5 10 10 0 6 -4 10 -10 10 -5 0
-10 -4 -10 -10z"/>
<path d="M5069 6743 c-4 -38 -2 -43 16 -43 12 0 16 3 8 8 -6 4 -13 23 -15 42
l-3 35 -6 -42z"/>
<path d="M4109 6508 c0 -79 -1 -191 -2 -251 l-2 -107 248 0 247 0 0 250 c0
138 -3 250 -7 250 -5 0 -7 -109 -5 -243 l3 -243 -236 -3 -236 -2 3 245 c2 135
0 246 -4 246 -5 0 -8 -64 -9 -142z"/>
<path d="M4142 6644 c7 -7 420 -5 427 1 2 3 -94 5 -214 5 -120 0 -216 -3 -213
-6z"/>
<path d="M5152 6605 c0 -16 2 -22 5 -12 2 9 2 23 0 30 -3 6 -5 -1 -5 -18z"/>
<path d="M5547 6619 c7 -7 15 -10 18 -7 3 3 -2 9 -12 12 -14 6 -15 5 -6 -5z"/>
<path d="M5147 6553 c-8 -16 -7 -172 1 -177 5 -3 9 37 9 89 0 92 -2 103 -10
88z"/>
<path d="M5555 6521 c-3 -5 -1 -12 4 -15 5 -3 11 1 15 9 6 16 -9 21 -19 6z"/>
<path d="M5375 6511 c-6 -11 13 -26 22 -17 4 3 1 6 -6 6 -7 0 -9 5 -6 10 3 6
4 10 1 10 -3 0 -7 -4 -11 -9z"/>
<path d="M5590 6501 c0 -6 4 -13 10 -16 6 -3 7 1 4 9 -7 18 -14 21 -14 7z"/>
<path d="M5523 6480 c-2 -18 0 -18 13 -6 17 18 18 26 1 26 -7 0 -13 -9 -14
-20z"/>
<path d="M4367 6459 c4 -13 8 -18 11 -10 2 7 -1 18 -6 23 -8 8 -9 4 -5 -13z"/>
<path d="M4393 6462 c2 -12 6 -24 10 -28 3 -4 4 4 2 16 -6 30 -16 40 -12 12z"/>
<path d="M5531 6436 c-10 -11 -9 -14 1 -12 14 2 23 15 15 22 -2 2 -10 -2 -16
-10z"/>
<path d="M5591 6424 c0 -11 3 -14 6 -6 3 7 2 16 -1 19 -3 4 -6 -2 -5 -13z"/>
<path d="M4370 6401 c0 -8 -6 -11 -15 -7 -22 8 -18 -7 6 -22 27 -17 42 -3 23
22 -8 12 -14 14 -14 7z"/>
<path d="M4420 6392 c0 -7 5 -12 10 -12 17 0 11 -18 -8 -24 -10 -4 -19 -13
-19 -21 0 -11 4 -12 14 -4 7 7 13 7 13 2 0 -5 7 -10 16 -10 15 0 15 2 0 13
-12 8 -14 14 -6 19 6 4 18 1 27 -6 13 -11 15 -11 12 4 -2 10 -7 17 -10 15 -4
-2 -16 6 -28 16 -12 11 -21 14 -21 8z"/>
<path d="M4562 6360 c0 -14 2 -19 5 -12 2 6 2 18 0 25 -3 6 -5 1 -5 -13z"/>
<path d="M5490 6314 c0 -1 6 -7 14 -13 10 -9 15 -8 19 2 3 8 -3 13 -14 13 -11
0 -19 -1 -19 -2z"/>
<path d="M5461 6294 c0 -11 3 -14 6 -6 3 7 2 16 -1 19 -3 4 -6 -2 -5 -13z"/>
<path d="M5360 6289 c0 -5 5 -7 10 -4 6 3 10 8 10 11 0 2 -4 4 -10 4 -5 0 -10
-5 -10 -11z"/>
<path d="M5405 6260 c-4 -6 -10 -8 -15 -5 -5 3 -12 1 -15 -5 -5 -8 -11 -8 -19
-1 -9 8 -13 7 -13 -4 0 -8 4 -15 9 -15 5 0 6 -4 3 -10 -3 -5 -2 -10 3 -10 5 0
12 9 15 20 3 13 11 18 20 14 8 -3 17 2 20 10 7 18 2 21 -8 6z"/>
<path d="M5143 6245 c0 -8 4 -12 9 -9 5 3 6 10 3 15 -9 13 -12 11 -12 -6z"/>
<path d="M5290 6245 c-6 -8 -10 -20 -7 -27 4 -8 6 -7 6 5 1 9 6 16 12 15 6 -2
14 3 16 10 6 17 -12 15 -27 -3z"/>
<path d="M5560 6219 c0 -5 7 -9 15 -9 8 0 15 -4 15 -10 0 -5 5 -10 10 -10 21
0 9 28 -15 32 -14 3 -25 1 -25 -3z"/>
<path d="M5151 6204 c0 -11 3 -14 6 -6 3 7 2 16 -1 19 -3 4 -6 -2 -5 -13z"/>
<path d="M5558 6183 c7 -3 16 -2 19 1 4 3 -2 6 -13 5 -11 0 -14 -3 -6 -6z"/>
<path d="M5142 6164 c-11 -12 22 -14 229 -14 133 0 240 3 237 6 -3 3 -105 5
-226 4 -128 0 -222 3 -224 9 -1 5 -9 3 -16 -5z"/>
<path d="M3918 6098 c-8 -4 13 -8 46 -8 33 0 57 2 54 5 -8 9 -88 11 -100 3z"/>
<path d="M3853 6093 c9 -2 25 -2 35 0 9 3 1 5 -18 5 -19 0 -27 -2 -17 -5z"/>
<path d="M4011 6014 c0 -11 3 -14 6 -6 3 7 2 16 -1 19 -3 4 -6 -2 -5 -13z"/>
<path d="M3735 5750 c3 -5 8 -10 11 -10 2 0 4 5 4 10 0 6 -5 10 -11 10 -5 0
-7 -4 -4 -10z"/>
<path d="M3740 5710 c-9 -6 -10 -10 -3 -10 6 0 15 5 18 10 8 12 4 12 -15 0z"/>
<path d="M7240 7555 c0 -8 4 -15 8 -15 5 0 9 7 9 15 0 8 -4 15 -9 15 -4 0 -8
-7 -8 -15z"/>
<path d="M7480 7555 c0 -8 5 -15 11 -15 5 0 8 4 5 9 -4 5 0 12 6 14 8 3 6 6
-4 6 -10 1 -18 -6 -18 -14z"/>
<path d="M7340 7550 c-9 -6 -10 -10 -3 -10 6 0 15 5 18 10 8 12 4 12 -15 0z"/>
<path d="M7255 7506 c-23 -19 -27 -27 -19 -36 7 -7 20 -10 30 -7 16 4 15 5 -3
6 -32 1 -29 16 10 40 17 11 28 21 22 21 -5 0 -23 -11 -40 -24z"/>
<path d="M7300 7480 c0 -21 15 -27 25 -10 3 6 0 10 -7 10 -9 0 -9 3 2 10 13 8
12 10 -2 10 -11 0 -18 -8 -18 -20z"/>
<path d="M7385 7480 c-3 -5 -2 -10 4 -10 5 0 13 5 16 10 3 6 2 10 -4 10 -5 0
-13 -4 -16 -10z"/>
<path d="M7556 7457 c3 -10 9 -15 12 -12 3 3 0 11 -7 18 -10 9 -11 8 -5 -6z"/>
<path d="M7204 7448 c-4 -7 -3 -8 4 -4 7 4 12 2 12 -3 0 -6 7 -11 16 -11 14 0
14 2 0 15 -18 18 -23 19 -32 3z"/>
<path d="M7275 7431 c-3 -5 0 -13 6 -17 7 -4 9 -3 5 4 -3 6 2 13 11 15 16 4
16 5 1 6 -9 0 -19 -3 -23 -8z"/>
<path d="M7248 7393 c7 -3 16 -2 19 1 4 3 -2 6 -13 5 -11 0 -14 -3 -6 -6z"/>
<path d="M7225 7370 c3 -5 8 -10 11 -10 2 0 4 5 4 10 0 6 -5 10 -11 10 -5 0
-7 -4 -4 -10z"/>
<path d="M7354 7349 c-2 -4 3 -9 11 -13 8 -3 15 -1 15 5 0 6 5 7 12 3 19 -12
59 -14 52 -2 -3 5 -15 8 -25 5 -11 -3 -19 -1 -19 3 0 10 -40 9 -46 -1z"/>
<path d="M7200 7318 c0 -7 4 -19 9 -26 7 -11 9 -11 14 2 4 9 2 16 -4 16 -6 0
-7 5 -4 10 3 6 1 10 -4 10 -6 0 -11 -6 -11 -12z"/>
<path d="M4320 5589 c0 -5 5 -7 10 -4 6 3 10 8 10 11 0 2 -4 4 -10 4 -5 0 -10
-5 -10 -11z"/>
<path d="M4490 5596 c0 -2 6 -9 13 -15 10 -8 14 -7 14 4 0 8 -6 15 -14 15 -7
0 -13 -2 -13 -4z"/>
<path d="M4122 5358 c-1 -120 1 -218 6 -218 4 0 6 80 4 177 -4 267 -8 285 -10
41z"/>
<path d="M4509 5550 c-1 -5 -1 -17 -1 -25 0 -28 2 -35 12 -35 6 0 6 9 1 23 -4
12 -6 28 -4 35 3 6 2 12 -1 12 -3 0 -7 -4 -7 -10z"/>
<path d="M4520 5418 c0 -4 7 -8 15 -8 8 0 15 4 15 8 0 5 -7 9 -15 9 -8 0 -15
-4 -15 -9z"/>
<path d="M4245 5160 c-4 -6 37 -10 114 -10 74 0 121 4 121 10 0 6 -45 10 -114
10 -66 0 -117 -4 -121 -10z"/>
<path d="M6619 4972 c-3 -20 -2 -29 4 -23 5 5 7 19 5 32 -3 20 -5 19 -9 -9z"/>
<path d="M6587 4964 c-3 -3 -3 -12 0 -20 3 -8 0 -14 -7 -14 -6 0 -8 -4 -5 -10
3 -5 13 -10 22 -10 11 0 13 5 8 18 -4 9 -8 23 -8 30 0 14 -1 14 -10 6z"/>
<path d="M6492 4945 c2 -16 10 -20 37 -21 20 0 30 1 24 3 -7 3 -13 9 -13 14 0
6 5 7 12 3 7 -4 8 -3 4 4 -5 9 -13 9 -28 1 -16 -8 -22 -8 -29 2 -6 10 -8 8 -7
-6z"/>
<path d="M6623 4915 c-3 -9 -3 -18 -1 -21 3 -3 8 4 11 16 6 23 -1 27 -10 5z"/>
<path d="M6467 4907 c-3 -8 1 -14 8 -14 7 0 11 6 8 14 -3 7 -6 13 -8 13 -2 0
-5 -6 -8 -13z"/>
<path d="M6601 4844 c0 -11 3 -14 6 -6 3 7 2 16 -1 19 -3 4 -6 -2 -5 -13z"/>
<path d="M6495 4810 c10 -11 20 -20 23 -20 3 0 -3 9 -13 20 -10 11 -20 20 -23
20 -3 0 3 -9 13 -20z"/>
<path d="M6621 4774 c0 -32 1 -55 4 -52 7 6 9 97 3 103 -3 3 -6 -20 -7 -51z"/>
<path d="M6190 4812 c0 -5 7 -9 15 -9 8 0 15 4 15 9 0 4 -7 8 -15 8 -8 0 -15
-4 -15 -8z"/>
<path d="M6590 4801 c-7 -14 -6 -21 3 -24 9 -4 9 -6 0 -6 -7 -1 -13 -11 -13
-23 1 -22 1 -22 12 -4 11 20 21 76 13 76 -2 0 -9 -9 -15 -19z"/>
<path d="M6540 4796 c0 -2 8 -10 18 -17 15 -13 16 -12 3 4 -13 16 -21 21 -21
13z"/>
<path d="M6621 4694 c0 -11 3 -14 6 -6 3 7 2 16 -1 19 -3 4 -6 -2 -5 -13z"/>
<path d="M6581 4669 c-1 -16 5 -29 15 -33 26 -10 41 -7 41 8 0 12 -5 13 -20 4
-17 -9 -19 -8 -14 6 4 10 3 14 -2 11 -5 -3 -12 3 -14 12 -3 12 -5 9 -6 -8z"/>
<path d="M6518 4633 c7 -3 16 -2 19 1 4 3 -2 6 -13 5 -11 0 -14 -3 -6 -6z"/>
</g>
</svg>
