<?xml version="1.0" standalone="no"?>
<!DOCTYPE svg PUBLIC "-//W3C//DTD SVG 20010904//EN"
 "http://www.w3.org/TR/2001/REC-SVG-20010904/DTD/svg10.dtd">
<svg version="1.0" xmlns="http://www.w3.org/2000/svg"
 width="2048.000000pt" height="2048.000000pt" viewBox="0 0 2048.000000 2048.000000"
 preserveAspectRatio="xMidYMid meet">

<g transform="translate(0.000000,2048.000000) scale(0.100000,-0.100000)"
fill="#000000" stroke="none">
<path d="M10240 14595 l0 -255 -770 0 -770 0 0 -255 c0 -198 -3 -255 -12 -255
-7 1 -166 -1 -353 -4 -187 -3 -411 -5 -497 -6 l-158 0 0 -256 0 -257 -510 8
-510 7 -1 -233 c-1 -129 -2 -245 -2 -259 l-2 -25 -257 -3 -258 -2 0 -256 c0
-237 -1 -255 -17 -253 -10 1 -240 1 -510 0 l-493 -1 0 -255 0 -255 -255 0
-255 0 -2 -257 -3 -258 -253 -3 -252 -2 0 -255 0 -255 -257 2 -258 3 -3 252
-2 253 -253 2 -252 3 -3 258 -2 257 -255 0 -255 0 0 255 0 255 -255 0 -255 0
-2 253 -3 252 -252 3 -253 2 0 -509 c0 -398 3 -510 13 -514 6 -2 91 -4 187 -5
96 0 204 -1 240 -1 l65 -1 0 -32 c1 -18 2 -133 3 -255 l2 -223 255 0 255 0 0
-255 0 -255 255 0 255 0 0 -510 0 -510 -255 0 -255 0 0 -255 0 -255 -255 0
-255 0 -2 -257 -3 -258 -250 -2 -250 -2 -3 -510 -2 -511 255 0 255 0 0 255 0
255 255 0 255 0 0 255 0 255 258 2 257 3 2 255 3 255 247 3 c136 2 250 5 253
8 3 3 6 116 7 250 2 134 5 244 8 244 3 0 118 0 255 0 l250 0 0 -250 0 -250
223 -2 c122 -1 236 -2 252 -2 l30 -1 3 -257 2 -258 255 0 255 0 0 -255 0 -255
510 0 510 0 0 -255 0 -255 260 0 260 0 0 -255 0 -255 148 0 c81 -1 309 -3 507
-6 l360 -6 3 -249 2 -249 510 0 510 0 2 -257 3 -258 768 -3 767 -2 0 -255 0
-255 1790 0 1790 0 2 255 3 255 768 0 767 0 0 260 0 260 513 2 512 3 2 250 2
250 253 0 253 0 3 258 2 257 255 0 256 0 -1 253 -1 252 255 3 256 2 0 255 0
255 256 2 255 3 3 255 4 255 248 2 249 2 3 1020 2 1021 -252 2 -253 3 -3 258
-2 257 -255 0 -255 0 0 255 0 255 -255 0 -255 0 -2 253 -3 252 -252 3 -253 2
0 255 0 255 -260 0 -260 0 0 254 0 254 -510 7 -510 7 0 254 0 254 -765 0 -765
0 -2 253 -3 252 -1792 3 -1793 2 0 -255z m3580 -1025 l0 -250 -252 -2 -253 -3
-3 -507 -2 -507 -249 -3 c-137 -2 -253 -7 -258 -11 -4 -5 -9 -111 -10 -235 -2
-180 -9 -346 -16 -402 0 -3 2 -34 6 -70 4 -36 8 -120 11 -187 l4 -123 -259 0
c-200 0 -259 -3 -259 -12 -2 -275 1 -2043 4 -2045 2 -2 116 -5 252 -6 156 -1
250 -6 251 -12 2 -6 -28 -10 -77 -9 -44 1 -78 -2 -75 -6 2 -4 -8 -5 -23 -2
-15 3 -74 7 -131 9 -79 3 -106 1 -112 -9 -7 -10 -9 -10 -9 0 0 6 -7 12 -15 12
-8 0 -15 -4 -15 -10 0 -5 -8 -11 -17 -11 -10 -1 7 -5 37 -10 63 -8 170 -1 170
12 0 12 38 11 42 -1 3 -9 80 -13 172 -8 l49 3 -3 -75 c-6 -111 -3 -767 4 -826
5 -49 4 -52 -19 -56 -50 -10 -455 -8 -455 2 0 6 7 10 15 10 8 0 15 5 15 10 0
6 -4 10 -10 10 -5 0 -10 19 -10 42 0 44 -15 43 -23 -2 -2 -14 -5 68 -6 182 -1
162 2 207 12 205 7 -1 12 9 13 23 1 23 -2 25 -41 25 -33 0 -41 3 -38 15 3 10
1 9 -7 -2 -10 -16 -31 -18 -205 -18 -172 0 -195 2 -195 16 0 10 -6 14 -14 11
-22 -9 -27 91 -25 541 1 298 5 412 13 412 7 0 7 3 1 8 -5 4 -12 16 -13 27 -6
29 -21 35 -77 30 -63 -5 -154 -7 -318 -6 l-129 1 3 288 c1 159 6 292 12 299 6
8 5 24 -2 44 -7 21 -11 172 -11 456 l0 423 25 -4 c13 -3 30 -8 36 -12 8 -4 9
-3 5 4 -5 9 48 12 208 12 l216 0 0 -27 c0 -30 12 -24 17 10 3 12 4 117 4 232
-1 116 2 229 5 253 l5 42 250 0 250 0 -2 260 -3 260 -513 0 -513 0 0 250 0
249 -32 6 c-18 3 -132 5 -253 3 l-220 -3 -3 -252 -3 -253 23 0 c13 -1 122 0
244 0 121 0 227 -2 235 -5 12 -4 14 -47 11 -254 -2 -226 -4 -249 -20 -252 -9
-2 -124 -3 -254 -1 l-238 3 0 254 0 255 -255 0 -255 0 0 255 0 255 -255 0
-255 0 0 -256 0 -255 -512 3 -512 3 -1 250 0 250 513 3 512 2 0 255 0 255 378
0 c208 0 554 3 768 7 l389 6 -3 249 -3 248 1281 0 1280 0 0 -250z m1020 -517
l-1 -253 521 0 520 0 0 -251 c0 -164 3 -248 10 -244 6 3 10 1 10 -4 0 -8 74
-11 226 -11 189 0 225 2 221 14 -4 10 0 12 15 8 15 -4 17 -7 6 -13 -7 -5 107
-9 260 -9 l272 0 -2 -257 -3 -258 -510 3 -510 3 -2 242 c-1 133 -3 248 -3 254
0 10 -113 13 -512 15 l-513 3 -3 253 -2 252 -250 0 -250 0 -2 -252 -3 -253
-252 -3 -253 -2 0 510 0 510 506 -2 505 -3 -1 -252z m1529 -500 c-1 -131 -3
-231 -5 -223 -7 35 -10 460 -2 460 4 0 7 -107 7 -237z m-8179 -518 l0 -255
-255 0 -255 0 0 -260 0 -260 -257 2 -258 3 -3 258 -2 257 260 0 260 0 0 255 0
255 255 0 255 0 0 -255z m5523 245 l107 0 0 -504 0 -504 -22 -6 c-13 -3 -125
-6 -250 -6 l-228 0 -1 103 c-1 109 -1 310 0 687 l1 235 143 -2 c78 -1 190 -2
250 -3z m-3473 -245 l0 -245 -240 0 c-185 0 -240 3 -241 13 0 10 -2 10 -6 0
-16 -41 -22 12 -23 213 0 125 -3 231 -6 235 -13 22 46 28 274 29 l242 0 0
-245z m-521 -469 c1 -112 -1 -225 -4 -250 l-7 -47 -244 1 -244 1 2 249 3 250
240 2 c132 2 243 2 246 1 3 -1 6 -94 8 -207z m1015 208 c14 -5 16 -38 16 -260
l0 -254 -255 0 c-163 0 -255 -4 -255 -10 0 -5 -12 -11 -27 -11 l-28 -2 26 -4
26 -4 -3 -292 c-4 -349 -4 -279 1 -532 3 -215 0 -234 -37 -266 -20 -18 -24
-64 -6 -75 6 -4 8 -3 5 3 -4 6 2 13 13 16 15 4 20 0 20 -16 0 -12 1 -35 1 -52
2 -52 -5 -82 -18 -82 -7 0 -14 6 -17 14 -3 7 -11 13 -17 13 -9 0 -9 -3 0 -14
9 -11 9 -15 -1 -19 -9 -4 -8 -6 3 -6 12 -1 16 -13 17 -46 1 -25 3 -49 4 -53 6
-20 -13 -72 -26 -72 -12 0 -15 -12 -14 -46 0 -30 4 -41 9 -33 6 10 9 8 9 -9 0
-15 -4 -21 -11 -16 -9 5 -10 -1 -5 -20 3 -14 2 -26 -3 -26 -10 0 -9 -25 2 -36
11 -11 8 -36 -3 -29 -6 3 -10 -4 -10 -17 0 -13 -10 -34 -21 -48 -11 -14 -18
-19 -14 -12 3 6 2 12 -3 12 -11 0 -53 -36 -48 -41 2 -2 7 -34 11 -71 6 -64 5
-68 -14 -68 -11 0 -23 5 -26 10 -4 6 -1 9 6 8 10 -2 14 13 16 55 2 61 -2 70
-17 35 -9 -20 -10 -19 -7 9 2 18 0 30 -5 27 -4 -3 -8 -14 -8 -24 0 -10 -4 -22
-10 -25 -12 -7 -14 -55 -2 -55 4 0 13 5 20 12 9 9 12 8 12 -5 0 -9 -7 -17 -17
-17 -15 0 -15 -2 1 -19 14 -15 14 -20 4 -25 -7 -3 -1 -4 15 -1 15 3 27 2 27
-3 0 -5 14 -7 30 -4 17 2 30 8 30 13 0 5 7 5 17 2 11 -4 14 -3 9 5 -4 7 -1 12
8 12 9 0 16 5 16 10 0 15 17 12 17 -2 0 -7 4 -21 8 -30 4 -11 3 -18 -5 -18 -6
0 -9 4 -5 9 6 10 -13 26 -21 18 -3 -3 4 -15 16 -27 18 -18 24 -20 31 -9 7 11
9 10 9 -3 0 -17 -18 -18 -247 -18 l-248 0 -1 1015 0 1015 253 0 253 0 0 260 0
260 239 0 c132 0 246 -3 255 -6z m6666 -259 l0 -255 260 0 260 0 0 -254 0
-255 -249 -1 c-190 0 -251 2 -259 12 -6 8 -11 95 -11 238 0 124 -1 233 -1 242
0 16 -21 18 -247 20 l-248 3 -3 249 c-1 144 2 252 7 255 5 3 117 5 250 3 l241
-3 0 -254z m-1520 -505 l0 -260 -257 2 -258 3 -3 258 -2 257 260 0 260 0 0
-260z m-9220 5 c0 -220 -2 -246 -17 -252 -9 -4 -125 -7 -257 -7 l-241 0 -3
252 -2 252 260 0 260 0 0 -245z m6602 -274 c22 -1 29 -8 36 -35 6 -19 9 -231
7 -497 l-3 -464 -246 -3 -246 -2 0 503 0 502 213 -1 c116 -1 224 -2 239 -3z
m78 -1011 c0 -6 79 -10 218 -10 119 0 226 -3 238 -6 21 -6 21 -7 23 -505 l2
-499 -251 0 -250 0 0 515 c0 337 3 515 10 515 6 0 10 -4 10 -10z m-3173 -314
c3 -62 2 -64 -20 -58 -12 3 -26 10 -30 16 -6 8 -10 7 -14 -1 -7 -18 -23 -16
-23 2 0 9 12 28 26 42 21 21 28 23 35 12 6 -9 7 -2 3 19 -5 23 -3 32 7 32 10
0 15 -18 16 -64z m-27 -106 c0 -5 -5 -10 -11 -10 -5 0 -7 5 -4 10 3 6 8 10 11
10 2 0 4 -4 4 -10z m-23 -26 c-3 -3 -12 -4 -19 -1 -8 3 -5 6 6 6 11 1 17 -2
13 -5z m148 -83 c3 -5 1 -12 -5 -16 -5 -3 -10 1 -10 9 0 18 6 21 15 7z m55
-28 c0 -20 -3 -24 -9 -14 -7 11 -10 10 -14 -5 -3 -14 -5 -12 -6 8 -1 22 5 30
27 37 1 1 2 -11 2 -26z m147 11 c36 -5 58 -3 68 6 13 11 14 10 9 -3 -4 -12 0
-14 18 -10 13 2 33 10 46 16 17 8 28 8 43 -1 13 -8 19 -9 19 -1 0 6 6 9 13 6
6 -2 11 -13 9 -23 -2 -15 1 -13 12 6 10 15 15 19 16 10 0 -13 1 -13 10 0 8 13
10 12 10 -2 0 -10 -6 -18 -12 -18 -10 0 -10 -2 -1 -8 11 -7 14 -99 12 -385 l0
-67 -227 1 c-125 1 -213 5 -197 8 17 4 117 7 223 6 105 0 192 3 192 7 0 5 -8
9 -17 9 -17 1 -17 2 0 6 9 2 17 9 17 15 0 6 -11 3 -25 -6 -27 -18 -70 -22 -60
-6 3 6 -5 11 -19 11 -38 2 -44 3 -52 12 -14 14 -34 7 -34 -13 0 -15 -6 -19
-25 -18 -18 2 -25 8 -25 24 0 22 -26 51 -36 41 -9 -9 6 -28 17 -22 13 9 11
-19 -3 -33 -7 -7 -34 -12 -61 -12 -42 0 -48 2 -37 15 6 8 8 20 4 27 -5 7 -7
24 -5 37 2 15 -1 21 -8 17 -6 -4 -11 1 -12 11 -8 168 -12 183 -21 88 -4 -49
-10 -106 -12 -125 -3 -19 -5 -45 -5 -57 -1 -13 -5 -23 -10 -23 -5 0 -9 89 -9
198 0 116 3 187 8 172 l8 -25 1 24 c1 16 5 21 16 17 14 -5 20 7 15 29 -13 51
-10 56 33 50 23 -3 66 -8 94 -11z m-201 -110 c2 -44 6 -88 9 -100 2 -11 1 -34
-4 -51 -5 -18 -5 -37 1 -48 8 -13 7 -16 -1 -11 -15 10 -14 -17 2 -33 10 -11
10 -13 0 -7 -16 9 -17 -34 -4 -82 8 -25 7 -32 -5 -32 -12 0 -14 37 -14 227 0
225 7 286 16 137z m297 -319 c-3 -9 -8 -14 -10 -11 -3 3 -2 9 2 15 9 16 15 13
8 -4z m60 -12 c-7 -2 -19 -2 -25 0 -7 3 -2 5 12 5 14 0 19 -2 13 -5z m1164
-25 c-3 -7 -5 -2 -5 12 0 14 2 19 5 13 2 -7 2 -19 0 -25z m-850 -34 c-2 -2
-36 -5 -76 -5 -66 -1 -94 -10 -72 -23 5 -3 7 -32 4 -63 -2 -32 -5 -103 -5
-158 0 -57 -4 -91 -8 -79 -4 11 -8 71 -8 133 0 62 -2 114 -4 116 -2 2 -2 23 0
47 l4 43 85 -3 c47 -2 83 -6 80 -8z m81 -1 c-10 -2 -26 -2 -35 0 -10 3 -2 5
17 5 19 0 27 -2 18 -5z m-148 -33 c0 -5 5 -10 11 -10 5 0 8 4 5 9 -6 9 43 9
59 0 6 -4 18 -5 27 -4 11 2 15 -2 11 -11 -3 -8 0 -14 6 -14 6 0 11 4 11 9 0 5
11 11 25 13 16 4 22 1 18 -6 -5 -7 -2 -7 8 1 16 13 139 22 139 11 0 -5 7 -8
14 -8 19 0 22 -47 18 -238 -2 -82 -7 -140 -12 -137 -5 3 -7 12 -4 19 8 21 -37
28 -51 9 -10 -13 -14 -13 -20 -3 -6 9 -4 11 6 6 8 -4 5 0 -5 8 -24 19 -53 21
-59 4 -3 -10 -9 -10 -30 1 -21 11 -29 12 -42 1 -21 -18 -44 3 -43 41 1 29 18
43 18 14 0 -8 5 -15 11 -15 6 0 9 19 8 48 -1 26 0 52 3 58 8 14 -3 84 -13 84
-5 0 -9 14 -9 30 0 21 -5 30 -16 30 -8 0 -13 4 -10 8 2 4 -4 9 -15 9 -17 2
-18 -1 -8 -13 7 -8 8 -14 3 -13 -17 3 -74 -14 -74 -22 0 -14 38 -11 43 4 2 6
8 8 13 4 5 -4 2 -13 -6 -18 -11 -8 -12 -12 -2 -16 6 -2 12 -13 12 -24 0 -10 5
-19 10 -19 15 0 12 38 -2 43 -10 3 -10 7 1 20 22 28 30 20 33 -35 2 -44 6 -52
21 -50 9 2 17 -2 17 -8 0 -16 -37 -12 -44 6 -3 8 -11 12 -17 8 -6 -3 -15 0
-20 7 -4 7 -11 10 -16 6 -4 -4 -2 -17 5 -27 15 -24 16 -50 2 -50 -5 0 -10 -13
-10 -30 0 -16 5 -30 11 -30 5 0 7 -4 4 -10 -3 -5 -13 -10 -21 -10 -10 0 -14
12 -14 45 0 25 -4 45 -10 45 -5 0 -10 -4 -10 -10 0 -5 -6 -7 -12 -5 -7 3 -13
23 -13 45 -1 31 2 37 12 28 9 -7 13 -7 13 1 0 6 9 11 20 11 13 0 20 7 20 20 0
13 -7 20 -20 20 -11 0 -20 -4 -20 -10 0 -19 -17 -10 -28 15 -10 21 -9 25 6 25
11 0 13 3 6 8 -21 13 -25 49 -9 66 19 18 35 21 35 6z m380 -209 c1 -106 -1
-196 -4 -199 -3 -3 -6 86 -6 198 0 112 2 201 5 199 2 -3 5 -92 5 -198z m-366
-137 c3 -8 2 -12 -4 -9 -6 3 -10 10 -10 16 0 14 7 11 14 -7z m-104 -54 c0 -5
-4 -10 -10 -10 -5 0 -10 5 -10 10 0 6 5 10 10 10 6 0 10 -4 10 -10z m200 -5
c0 -6 -8 -11 -19 -11 -10 0 -17 5 -14 11 2 7 10 12 18 12 8 0 15 -5 15 -12z
m35 5 c-3 -5 -1 -10 5 -10 7 0 5 -6 -4 -15 -8 -8 -18 -15 -22 -15 -5 0 -3 5 3
11 6 6 9 18 6 25 -3 8 0 14 7 14 6 0 8 -4 5 -10z m104 1 c8 -1 11 -4 7 -8 -9
-9 -79 -4 -89 6 -7 7 12 7 82 2z m-189 -7 c0 -8 -19 -13 -24 -6 -3 5 1 9 9 9
8 0 15 -2 15 -3z m237 0 c-3 -3 -12 -4 -19 -1 -8 3 -5 6 6 6 11 1 17 -2 13 -5z
m53 -3 c0 -5 -9 -7 -20 -4 -11 3 -20 7 -20 9 0 2 9 4 20 4 11 0 20 -4 20 -9z
m-400 -27 c0 -2 -9 -4 -21 -4 -11 0 -18 4 -14 10 5 8 35 3 35 -6z m425 -4 c-3
-5 -13 -6 -21 -3 -12 4 -13 8 -3 14 15 9 32 2 24 -11z m-308 4 c-3 -3 -12 -4
-19 -1 -8 3 -5 6 6 6 11 1 17 -2 13 -5z m344 -151 c-3 -120 -11 -119 -11 2 0
54 3 96 6 92 4 -3 6 -46 5 -94z m99 86 c11 -8 9 -9 -10 -4 -20 6 -22 5 -13 -5
14 -15 6 -40 -13 -40 -18 0 -19 46 -1 53 18 8 21 8 37 -4z m323 -33 c7 4 8 3
4 -1 -17 -19 -35 -13 -29 9 5 18 7 18 10 3 2 -10 8 -14 15 -11z m67 -138 c0
-78 -2 -139 -5 -137 -7 8 -10 279 -2 279 4 0 7 -64 7 -142z m-410 56 c0 -24 5
-44 13 -47 7 -3 4 -6 -6 -6 -11 -1 -15 -6 -11 -13 4 -6 3 -8 -4 -4 -6 3 -12
-2 -15 -11 -2 -10 -4 0 -4 22 0 22 -1 45 -3 50 -6 25 1 52 15 52 11 0 15 -12
15 -43z m51 22 c-10 -11 -9 -16 4 -23 15 -9 15 -11 0 -23 -8 -7 -18 -10 -22
-6 -3 3 -1 6 5 6 7 0 12 4 12 9 0 5 -8 8 -17 6 -10 -1 -12 0 -5 2 11 4 11 8 0
21 -8 10 -9 13 -1 9 6 -4 14 -3 18 3 3 5 9 10 12 10 3 0 0 -6 -6 -14z m-134
-143 c-3 -10 -5 -2 -5 17 0 19 2 27 5 18 2 -10 2 -26 0 -35z m119 -30 c-10
-10 -19 5 -10 18 6 11 8 11 12 0 2 -7 1 -15 -2 -18z m21 5 c-3 -8 -6 -5 -6 6
-1 11 2 17 5 13 3 -3 4 -12 1 -19z m-140 -30 c-3 -7 -5 -2 -5 12 0 14 2 19 5
13 2 -7 2 -19 0 -25z m298 -98 c-3 -5 -12 -10 -18 -10 -7 0 -6 4 3 10 19 12
23 12 15 0z m105 -10 c0 -6 -11 -10 -25 -10 -14 0 -25 4 -25 8 0 4 11 9 25 10
14 1 25 -3 25 -8z"/>
<path d="M12340 11299 c0 -5 5 -7 10 -4 6 3 10 8 10 11 0 2 -4 4 -10 4 -5 0
-10 -5 -10 -11z"/>
<path d="M11823 9555 c0 -38 2 -53 4 -32 2 20 2 52 0 70 -2 17 -4 1 -4 -38z"/>
<path d="M12186 9468 c3 -5 10 -6 15 -3 13 9 11 12 -6 12 -8 0 -12 -4 -9 -9z"/>
<path d="M11821 9424 c0 -11 3 -14 6 -6 3 7 2 16 -1 19 -3 4 -6 -2 -5 -13z"/>
<path d="M11822 9375 c0 -16 2 -22 5 -12 2 9 2 23 0 30 -3 6 -5 -1 -5 -18z"/>
<path d="M11824 9200 c0 -80 2 -112 3 -72 2 39 2 105 0 145 -1 39 -3 7 -3 -73z"/>
<path d="M12180 9179 c0 -5 5 -7 10 -4 6 3 10 8 10 11 0 2 -4 4 -10 4 -5 0
-10 -5 -10 -11z"/>
<path d="M12288 9183 c7 -3 16 -2 19 1 4 3 -2 6 -13 5 -11 0 -14 -3 -6 -6z"/>
<path d="M12646 9140 c3 -3 16 -5 29 -5 14 -1 22 2 19 5 -3 3 -16 5 -29 5 -14
1 -22 -2 -19 -5z"/>
<path d="M12746 9120 c8 -43 14 -51 14 -19 0 13 -5 31 -10 39 -7 11 -8 5 -4
-20z"/>
<path d="M12588 9133 c7 -3 16 -2 19 1 4 3 -2 6 -13 5 -11 0 -14 -3 -6 -6z"/>
<path d="M12750 9054 c-8 -202 -8 -203 -20 -184 -7 11 -9 4 -8 -25 0 -23 3
-30 5 -17 9 45 18 20 21 -58 2 -46 -1 -80 -6 -80 -13 0 -21 45 -11 62 4 8 4
20 -1 28 -10 16 -12 2 -12 -85 1 -259 10 -337 23 -202 5 50 6 38 7 -56 1 -67
-2 -116 -7 -113 -5 3 -11 -3 -14 -14 -3 -11 -1 -20 5 -20 5 0 6 -5 2 -12 -4
-7 -3 -8 5 -4 6 4 8 12 5 18 -4 6 -1 14 5 17 9 6 12 104 11 376 0 203 -3 371
-5 374 -3 2 -5 0 -5 -5z m0 -400 c0 -8 -4 -14 -10 -14 -5 0 -10 9 -10 21 0 11
5 17 10 14 6 -3 10 -13 10 -21z m-3 -86 c-3 -8 -6 -5 -6 6 -1 11 2 17 5 13 3
-3 4 -12 1 -19z"/>
<path d="M11822 9025 c0 -16 2 -22 5 -12 2 9 2 23 0 30 -3 6 -5 -1 -5 -18z"/>
<path d="M11823 8905 c0 -38 2 -53 4 -32 2 20 2 52 0 70 -2 17 -4 1 -4 -38z"/>
<path d="M12722 8950 c0 -14 2 -19 5 -12 2 6 2 18 0 25 -3 6 -5 1 -5 -13z"/>
<path d="M11817 8823 c-10 -9 -9 -51 1 -57 5 -3 9 10 9 29 0 38 0 38 -10 28z"/>
<path d="M12311 8634 c0 -11 3 -14 6 -6 3 7 2 16 -1 19 -3 4 -6 -2 -5 -13z"/>
<path d="M12655 8621 c-3 -5 -2 -12 3 -15 5 -3 9 1 9 9 0 17 -3 19 -12 6z"/>
<path d="M12313 8545 c0 -38 2 -53 4 -32 2 20 2 52 0 70 -2 17 -4 1 -4 -38z"/>
<path d="M12682 8470 c0 -19 2 -27 5 -17 2 9 2 25 0 35 -3 9 -5 1 -5 -18z"/>
<path d="M12305 8450 c3 -5 8 -10 11 -10 2 0 4 5 4 10 0 6 -5 10 -11 10 -5 0
-7 -4 -4 -10z"/>
<path d="M12313 8380 c0 -30 2 -43 4 -27 2 15 2 39 0 55 -2 15 -4 2 -4 -28z"/>
<path d="M12682 8400 c0 -14 2 -19 5 -12 2 6 2 18 0 25 -3 6 -5 1 -5 -13z"/>
<path d="M12721 8394 c0 -11 3 -14 6 -6 3 7 2 16 -1 19 -3 4 -6 -2 -5 -13z"/>
<path d="M12580 8390 c0 -5 5 -10 11 -10 5 0 7 5 4 10 -3 6 -8 10 -11 10 -2 0
-4 -4 -4 -10z"/>
<path d="M12720 8360 c0 -5 5 -10 11 -10 5 0 7 5 4 10 -3 6 -8 10 -11 10 -2 0
-4 -4 -4 -10z"/>
<path d="M12665 8250 c3 -5 8 -10 11 -10 2 0 4 5 4 10 0 6 -5 10 -11 10 -5 0
-7 -4 -4 -10z"/>
<path d="M12350 8228 c0 -5 27 -8 60 -8 33 0 60 3 60 8 0 4 -27 7 -60 7 -33 0
-60 -3 -60 -7z"/>
<path d="M12628 8223 c7 -3 16 -2 19 1 4 3 -2 6 -13 5 -11 0 -14 -3 -6 -6z"/>
<path d="M10108 11803 c7 -3 16 -2 19 1 4 3 -2 6 -13 5 -11 0 -14 -3 -6 -6z"/>
<path d="M9354 11307 c-4 -7 -4 -9 1 -5 4 4 16 3 27 -3 11 -6 22 -9 24 -6 2 2
-7 9 -21 15 -18 9 -26 8 -31 -1z"/>
<path d="M9290 11300 c0 -5 7 -7 15 -4 8 4 15 8 15 10 0 2 -7 4 -15 4 -8 0
-15 -4 -15 -10z"/>
<path d="M9750 11228 c0 -4 10 -9 23 -9 16 -1 18 -2 5 -6 -15 -4 -18 -16 -18
-79 0 -45 4 -74 11 -74 5 0 8 4 4 9 -3 5 1 16 9 24 8 8 16 35 18 60 2 34 6 43
18 40 10 -3 9 0 -4 11 -18 14 -17 15 10 21 52 12 50 14 -13 13 -35 -1 -63 -5
-63 -10z m38 -63 c-3 -3 -9 2 -12 12 -6 14 -5 15 5 6 7 -7 10 -15 7 -18z m2
-40 c0 -8 -4 -15 -10 -15 -5 0 -7 7 -4 15 4 8 8 15 10 15 2 0 4 -7 4 -15z"/>
<path d="M10068 11233 c12 -2 32 -2 45 0 12 2 2 4 -23 4 -25 0 -35 -2 -22 -4z"/>
<path d="M9760 10916 c0 -15 7 -26 20 -29 24 -6 37 8 15 17 -8 3 -15 12 -15
21 0 8 -4 15 -10 15 -5 0 -10 -11 -10 -24z"/>
<path d="M9761 10824 c0 -11 3 -14 6 -6 3 7 2 16 -1 19 -3 4 -6 -2 -5 -13z"/>
<path d="M9768 10793 c6 -2 12 -9 12 -14 0 -6 -5 -7 -12 -3 -7 5 -8 3 -3 -5 5
-9 11 -9 17 -3 12 12 2 32 -15 31 -9 0 -9 -2 1 -6z"/>
<path d="M9760 10636 c0 -44 2 -77 4 -75 9 9 13 128 5 141 -5 8 -9 -19 -9 -66z"/>
<path d="M9750 10420 c0 -5 5 -10 10 -10 6 0 10 5 10 10 0 6 -4 10 -10 10 -5
0 -10 -4 -10 -10z"/>
<path d="M9750 10355 c0 -33 4 -45 15 -45 11 0 12 5 5 24 -5 13 -6 33 -3 45 3
12 1 21 -6 21 -6 0 -11 -19 -11 -45z"/>
<path d="M9756 9828 c3 -562 3 -550 14 -523 5 11 10 38 11 60 1 24 3 31 6 18
3 -16 11 -23 29 -23 13 0 24 5 24 11 0 6 -7 9 -15 5 -19 -7 -20 8 -1 23 18 15
27 49 14 57 -5 3 -1 12 9 20 14 11 15 13 3 14 -13 0 -13 1 0 10 13 8 13 11 1
19 -10 6 -12 19 -8 41 5 21 2 36 -7 46 -19 19 -30 18 -22 -2 4 -12 2 -15 -9
-11 -8 4 -19 -1 -24 -11 -7 -12 -10 -13 -11 -3 0 8 8 20 18 28 9 8 11 11 3 7
-9 -4 -12 -2 -9 7 3 8 16 13 31 12 15 -1 27 2 27 7 0 15 -33 49 -42 44 -16
-10 -8 29 9 41 15 11 14 12 -10 10 -31 -4 -36 9 -9 24 16 9 16 10 -1 16 -13 6
-15 11 -7 20 8 9 8 15 0 20 -6 3 -10 31 -9 60 1 30 6 52 10 49 4 -2 6 11 3 31
-2 19 -6 51 -8 70 -3 19 -1 35 3 35 5 0 5 21 0 46 -10 54 -6 90 11 86 6 -1 9
2 5 8 -3 6 -11 8 -16 4 -6 -3 -10 0 -8 7 4 33 -2 89 -9 89 -5 0 -8 -213 -6
-472z m21 -155 c-3 -10 -5 -2 -5 17 0 19 2 27 5 18 2 -10 2 -26 0 -35z m45
-108 c2 3 5 -1 5 -9 0 -8 -8 -13 -19 -11 -13 3 -18 -2 -19 -18 0 -12 -3 -16
-6 -9 -3 7 -2 24 1 38 5 20 10 23 20 15 7 -6 15 -9 18 -6z m-18 -110 c-3 -7
-1 -16 5 -20 6 -3 11 -12 11 -18 0 -7 -5 -4 -11 6 -6 9 -13 16 -17 13 -4 -2
-7 9 -7 24 0 21 3 26 12 18 6 -5 10 -15 7 -23z"/>
<path d="M9831 10044 c0 -11 3 -14 6 -6 3 7 2 16 -1 19 -3 4 -6 -2 -5 -13z"/>
<path d="M9806 10025 c4 -8 8 -15 10 -15 2 0 4 7 4 15 0 8 -4 15 -10 15 -5 0
-7 -7 -4 -15z"/>
<path d="M9820 9940 c6 -11 15 -20 20 -20 14 0 1 28 -16 34 -12 4 -12 2 -4
-14z"/>
<path d="M10165 9901 c-3 -5 -2 -12 3 -15 5 -3 9 1 9 9 0 17 -3 19 -12 6z"/>
<path d="M10167 9820 c3 -11 7 -20 9 -20 2 0 4 9 4 20 0 11 -4 20 -9 20 -5 0
-7 -9 -4 -20z"/>
<path d="M9820 9770 c0 -5 5 -10 11 -10 5 0 7 5 4 10 -3 6 -8 10 -11 10 -2 0
-4 -4 -4 -10z"/>
<path d="M10160 9770 c0 -5 7 -7 15 -4 8 4 15 8 15 10 0 2 -7 4 -15 4 -8 0
-15 -4 -15 -10z"/>
<path d="M10082 9524 c-1 -15 4 -24 13 -24 18 0 20 36 2 43 -8 3 -14 -4 -15
-19z"/>
<path d="M9905 9530 c3 -5 8 -10 11 -10 2 0 4 5 4 10 0 6 -5 10 -11 10 -5 0
-7 -4 -4 -10z"/>
<path d="M9950 9295 c-7 -8 -10 -18 -7 -21 10 -10 39 5 32 16 -3 5 1 10 10 10
9 0 14 -4 10 -9 -3 -5 -1 -12 4 -15 5 -4 8 2 7 11 -4 23 -39 28 -56 8z"/>
<path d="M10148 9253 c7 -3 16 -2 19 1 4 3 -2 6 -13 5 -11 0 -14 -3 -6 -6z"/>
<path d="M9978 9243 c28 -2 76 -2 105 0 28 2 5 3 -53 3 -58 0 -81 -1 -52 -3z"/>
<path d="M12851 10704 c0 -11 3 -14 6 -6 3 7 2 16 -1 19 -3 4 -6 -2 -5 -13z"/>
<path d="M12850 10070 c0 -11 4 -20 9 -20 5 0 7 9 4 20 -3 11 -7 20 -9 20 -2
0 -4 -9 -4 -20z"/>
<path d="M12857 9997 c-4 -10 -7 -26 -7 -35 1 -15 2 -15 11 1 6 10 9 25 7 35
-3 16 -4 15 -11 -1z"/>
<path d="M12833 9900 c0 -47 2 -66 4 -42 2 23 2 61 0 85 -2 23 -4 4 -4 -43z"/>
<path d="M12832 9780 c0 -19 2 -27 5 -17 2 9 2 25 0 35 -3 9 -5 1 -5 -18z"/>
<path d="M13340 9656 c0 -31 6 -34 13 -6 3 11 1 23 -4 26 -5 3 -9 -6 -9 -20z"/>
<path d="M13340 9390 c0 -123 2 -221 5 -218 7 7 9 427 1 435 -3 3 -6 -94 -6
-217z"/>
<path d="M13341 8945 c0 -161 2 -215 10 -202 6 10 9 27 6 37 -3 11 0 21 7 24
6 2 7 5 1 5 -6 1 -10 61 -9 163 1 90 -2 170 -7 178 -4 8 -8 -84 -8 -205z"/>
<path d="M13779 8790 c-6 -32 0 -60 12 -60 11 0 11 37 0 65 -7 18 -8 18 -12
-5z"/>
<path d="M13595 8740 c-17 -8 -17 -9 7 -7 15 1 24 5 22 9 -3 4 -6 8 -7 7 -1 0
-11 -4 -22 -9z"/>
<path d="M13438 8733 c12 -2 32 -2 45 0 12 2 2 4 -23 4 -25 0 -35 -2 -22 -4z"/>
<path d="M13518 8733 c6 -2 18 -2 25 0 6 3 1 5 -13 5 -14 0 -19 -2 -12 -5z"/>
<path d="M13748 8733 c7 -3 16 -2 19 1 4 3 -2 6 -13 5 -11 0 -14 -3 -6 -6z"/>
<path d="M10525 9150 c-4 -6 -10 -8 -15 -5 -4 3 -10 -1 -13 -8 -8 -20 19 -16
32 5 6 10 9 18 7 18 -3 0 -8 -5 -11 -10z"/>
<path d="M10580 9150 c-8 -5 -18 -6 -22 -4 -4 3 -5 -2 -2 -10 8 -20 12 -20 31
-1 18 19 14 28 -7 15z"/>
<path d="M10450 9140 c-8 -5 -18 -6 -22 -4 -4 3 -8 1 -8 -4 0 -5 13 -9 30 -8
29 1 39 10 22 20 -4 2 -14 1 -22 -4z"/>
<path d="M10301 9054 c0 -11 3 -14 6 -6 3 7 2 16 -1 19 -3 4 -6 -2 -5 -13z"/>
<path d="M10420 8798 c-5 -13 -9 -17 -9 -10 -1 6 -6 12 -13 12 -6 0 -8 -3 -5
-6 3 -4 2 -15 -4 -25 -6 -13 -6 -19 1 -19 5 0 10 4 10 10 0 5 7 7 15 4 9 -4
15 0 16 7 0 8 2 22 4 32 5 24 -4 21 -15 -5z"/>
<path d="M10713 8813 c-7 -2 -13 -11 -13 -19 0 -9 -4 -12 -10 -9 -5 3 -10 1
-10 -4 0 -17 20 -13 27 5 5 13 7 13 14 2 6 -9 9 -7 9 10 0 12 -1 22 -2 21 -2
0 -9 -3 -15 -6z"/>
<path d="M10647 8783 c-3 -5 4 -15 16 -23 21 -12 21 -12 7 6 -8 10 -15 20 -16
22 -1 2 -4 -1 -7 -5z"/>
<path d="M11090 8630 c19 -13 30 -13 30 0 0 6 -10 10 -22 10 -19 0 -20 -2 -8
-10z"/>
<path d="M10842 8617 c7 -8 19 -14 26 -14 11 0 10 4 -4 14 -10 7 -22 13 -26
13 -5 0 -3 -6 4 -13z"/>
<path d="M11060 8599 c0 -11 4 -18 10 -14 5 3 7 12 3 20 -7 21 -13 19 -13 -6z"/>
<path d="M11040 8580 c0 -11 4 -20 9 -20 5 0 7 9 4 20 -3 11 -7 20 -9 20 -2 0
-4 -9 -4 -20z"/>
<path d="M11000 8573 c0 -5 5 -15 10 -23 8 -12 10 -11 10 8 0 12 -4 22 -10 22
-5 0 -10 -3 -10 -7z"/>
<path d="M11166 8557 c3 -10 9 -15 12 -12 3 3 0 11 -7 18 -10 9 -11 8 -5 -6z"/>
<path d="M11040 8530 c0 -5 5 -10 11 -10 5 0 7 5 4 10 -3 6 -8 10 -11 10 -2 0
-4 -4 -4 -10z"/>
<path d="M11137 8488 c-2 -7 -1 -22 3 -33 6 -17 8 -15 12 13 4 31 -5 45 -15
20z"/>
<path d="M11100 8460 c0 -11 5 -20 10 -20 6 0 10 9 10 20 0 11 -4 20 -10 20
-5 0 -10 -9 -10 -20z"/>
<path d="M10880 8450 c0 -5 7 -10 15 -10 8 0 15 5 15 10 0 6 -7 10 -15 10 -8
0 -15 -4 -15 -10z"/>
<path d="M11086 8401 c-4 -7 -5 -15 -2 -18 9 -9 19 4 14 18 -4 11 -6 11 -12 0z"/>
<path d="M11140 8350 c0 -5 5 -10 10 -10 6 0 10 5 10 10 0 6 -4 10 -10 10 -5
0 -10 -4 -10 -10z"/>
<path d="M10970 8330 c0 -5 5 -10 10 -10 6 0 10 5 10 10 0 6 -4 10 -10 10 -5
0 -10 -4 -10 -10z"/>
</g>
</svg>
