<?xml version="1.0" standalone="no"?>
<!DOCTYPE svg PUBLIC "-//W3C//DTD SVG 20010904//EN"
 "http://www.w3.org/TR/2001/REC-SVG-20010904/DTD/svg10.dtd">
<svg version="1.0" xmlns="http://www.w3.org/2000/svg"
 width="2048.000000pt" height="2048.000000pt" viewBox="0 0 2048.000000 2048.000000"
 preserveAspectRatio="xMidYMid meet">

<g transform="translate(0.000000,2048.000000) scale(0.100000,-0.100000)"
fill="#000000" stroke="none">
<path d="M7282 20028 l3 -143 133 -1 132 -1 15 31 c11 23 13 57 10 131 -2 55
-4 106 -5 113 0 9 -36 12 -145 12 l-146 0 3 -142z m217 95 c-3 -20 2 -24 16
-13 13 10 15 9 15 -9 0 -31 18 -26 23 7 2 15 4 -4 4 -43 0 -48 -2 -59 -6 -35
-6 35 -11 39 -56 42 -15 1 -25 9 -26 18 0 8 -3 10 -5 4 -3 -6 -16 -9 -29 -6
-31 6 -43 21 -12 15 12 -2 33 3 47 11 32 18 30 17 29 9z m25 -115 c8 -5 7 -8
-1 -8 -7 0 -17 9 -23 19 -14 27 -12 41 2 16 6 -11 16 -23 22 -27z m30 -33 c-4
-8 -8 -15 -10 -15 -2 0 -4 7 -4 15 0 8 4 15 10 15 5 0 7 -7 4 -15z m0 -40 c3
-8 1 -15 -4 -15 -6 0 -10 7 -10 15 0 8 2 15 4 15 2 0 6 -7 10 -15z m-184 -31
c0 -2 -16 -4 -35 -4 -19 0 -35 4 -35 8 0 4 16 6 35 4 19 -2 35 -6 35 -8z m73
-1 c-7 -2 -21 -2 -30 0 -10 3 -4 5 12 5 17 0 24 -2 18 -5z m54 1 c-3 -3 -12
-4 -19 -1 -8 3 -5 6 6 6 11 1 17 -2 13 -5z m40 0 c-3 -3 -12 -4 -19 -1 -8 3
-5 6 6 6 11 1 17 -2 13 -5z"/>
<path d="M13823 19683 c-10 -3 -13 -50 -13 -186 0 -154 2 -178 13 -162 8 10
19 15 25 11 6 -3 13 -2 16 3 9 14 46 0 47 -18 0 -10 4 -7 11 9 l11 25 5 -25
c3 -21 27 -49 43 -50 3 0 5 11 5 25 0 14 -5 25 -10 25 -6 0 -5 5 2 12 7 7 12
32 12 56 0 43 -1 44 -27 38 -16 -3 -22 -3 -15 0 21 10 14 41 -9 40 -12 -1 -28
9 -37 22 -12 18 -12 22 -2 20 8 -2 13 6 13 20 -1 37 -3 42 -13 42 -5 0 -7 -7
-4 -15 4 -11 2 -13 -9 -9 -9 3 -13 13 -10 25 3 11 11 18 18 15 7 -2 25 2 40
10 21 11 31 11 41 3 11 -9 14 -5 14 24 0 34 2 36 38 40 20 2 -15 4 -78 5 -63
0 -121 -2 -127 -5z m17 -17 c0 -3 -4 -8 -10 -11 -5 -3 -10 -1 -10 4 0 6 5 11
10 11 6 0 10 -2 10 -4z m-7 -61 c-7 -21 -13 -19 -13 6 0 11 4 18 10 14 5 -3 7
-12 3 -20z m0 -97 c-3 -43 -1 -49 7 -29 6 13 13 21 16 18 3 -3 1 -14 -5 -25
-6 -11 -7 -23 -3 -27 4 -5 2 -5 -4 -2 -8 4 -10 -6 -8 -33 2 -21 -1 -42 -6 -45
-6 -4 -10 32 -10 94 0 56 4 101 9 101 4 0 6 -24 4 -52z m82 -88 c0 -14 4 -31
9 -38 7 -11 4 -12 -13 -3 -22 12 -29 31 -11 31 6 0 10 8 10 18 0 14 -2 15 -10
2 -6 -9 -10 -10 -10 -3 0 6 -8 14 -17 17 -10 2 -4 4 12 3 25 -2 30 -6 30 -27z
m-36 7 c-2 -1 -12 -9 -22 -16 -15 -12 -17 -12 -11 3 3 9 13 16 22 16 8 0 13
-1 11 -3z m1 -48 c0 -4 -7 -9 -15 -13 -9 -3 -15 0 -15 8 0 7 7 13 15 13 8 0
15 -4 15 -8z"/>
<path d="M14110 19485 l-4 -200 -6 190 c-5 162 -6 174 -9 80 -2 -60 -2 -125
-1 -144 1 -24 -2 -31 -11 -26 -8 6 -10 4 -4 -6 5 -7 12 -33 15 -56 l7 -43
-121 -1 c-141 -2 -149 -1 -158 14 -5 8 -8 6 -8 -5 0 -25 24 -29 169 -27 l131
2 5 31 c3 17 4 112 3 211 l-3 180 -5 -200z"/>
<path d="M13981 19564 c0 -11 3 -14 6 -6 3 7 2 16 -1 19 -3 4 -6 -2 -5 -13z"/>
<path d="M13981 19524 c0 -11 3 -14 6 -6 3 7 2 16 -1 19 -3 4 -6 -2 -5 -13z"/>
<path d="M14060 19409 c0 -5 5 -7 10 -4 6 3 10 8 10 11 0 2 -4 4 -10 4 -5 0
-10 -5 -10 -11z"/>
<path d="M14045 19379 c-4 -6 -5 -12 -2 -15 2 -3 7 2 10 11 7 17 1 20 -8 4z"/>
<path d="M13918 19293 c6 -2 18 -2 25 0 6 3 1 5 -13 5 -14 0 -19 -2 -12 -5z"/>
<path d="M8800 18205 l0 -455 -150 0 -150 0 0 -455 0 -455 -310 0 -310 0 0
-150 0 -150 -300 0 -300 0 0 -150 0 -150 -450 0 -450 0 -2 138 c0 75 -1 143
-1 150 1 9 -67 12 -308 12 l-309 0 0 150 0 150 -132 1 c-73 1 -141 1 -150 0
-16 -2 -18 11 -18 148 l0 151 -300 0 -300 0 0 -150 0 -150 145 0 145 0 0 -150
0 -150 305 0 305 0 0 -150 0 -150 150 0 150 0 0 -155 0 -155 310 0 310 0 0
-155 0 -155 150 0 150 0 0 155 0 155 300 0 300 0 0 155 0 155 305 0 305 0 2
138 c0 75 1 143 1 150 -1 9 66 12 303 12 l304 0 0 380 0 380 150 0 150 0 0
530 0 530 1140 0 1140 0 0 -530 0 -530 150 0 150 0 0 -380 0 -380 305 0 305 0
0 -150 0 -150 305 0 305 0 0 -155 0 -155 300 0 300 0 0 -155 0 -155 150 0 150
0 0 155 0 155 310 0 310 0 0 155 0 155 150 0 150 0 0 150 0 150 304 0 304 0 0
-147 0 -148 146 -3 146 -3 0 -139 c0 -124 2 -139 18 -143 16 -4 16 -5 0 -6
-10 0 -18 -5 -18 -11 0 -6 58 -10 155 -10 l155 0 1 -27 c0 -16 4 -81 7 -146 4
-64 4 -117 0 -117 -5 0 -8 -5 -8 -10 0 -6 3 -9 8 -9 4 1 73 1 155 0 l147 -1 0
-150 0 -150 150 0 150 0 0 -150 0 -150 -150 0 -150 0 0 -300 0 -300 -135 -1
c-74 -1 -141 -2 -147 -3 -10 -1 -14 -41 -18 -151 l-5 -150 -157 -3 -158 -3 0
-454 0 -454 156 -3 156 -3 1 -297 2 -298 153 0 152 0 0 -460 0 -460 150 0 150
0 0 -152 0 -153 605 3 605 2 0 -150 0 -150 231 0 c129 0 228 -4 225 -9 -3 -5
-6 -370 -6 -812 -1 -744 -2 -805 -18 -823 -9 -11 -11 -16 -4 -12 6 4 12 3 12
-2 0 -5 -95 -9 -217 -10 -166 -1 -218 -4 -224 -14 -5 -7 -9 -42 -9 -78 0 -49
-3 -61 -11 -47 -5 9 -8 21 -4 26 3 5 0 13 -6 17 -8 5 -10 -3 -7 -25 l5 -31
-404 0 c-222 0 -402 3 -400 8 3 4 -10 8 -28 8 -27 1 -32 -2 -27 -15 5 -13 4
-14 -10 -1 -9 8 -13 19 -10 24 3 5 0 6 -5 3 -7 -5 -8 -20 -2 -44 5 -21 9 -95
9 -165 l0 -128 -44 0 c-25 0 -48 5 -51 10 -3 5 -12 10 -18 10 -7 0 -6 -4 3
-10 16 -10 -350 -13 -388 -3 -12 3 -23 12 -25 22 -3 9 -5 4 -6 -11 -1 -28 -31
-42 -31 -15 0 7 -3 8 -8 2 -8 -11 -47 -13 -58 -2 -4 4 -2 7 4 7 6 0 9 7 6 15
-4 9 0 15 7 15 11 0 11 3 -1 10 -11 7 -12 10 -2 10 8 0 22 -10 33 -22 16 -20
18 -21 19 -5 0 12 5 16 13 11 9 -5 9 -4 0 6 -10 11 -9 16 5 27 9 8 11 12 5 8
-16 -7 -16 -4 -3 29 5 14 18 29 29 35 17 9 18 8 15 -12 -4 -21 -4 -20 6 2 6
13 8 26 5 29 -10 10 -35 11 -35 1 0 -5 -4 -9 -9 -9 -4 0 -7 11 -6 25 2 14 -1
23 -6 19 -5 -3 -7 -9 -4 -14 3 -5 -4 -7 -15 -5 -11 2 -20 0 -20 -6 0 -5 -5 -9
-11 -9 -5 0 -7 5 -4 10 3 6 1 10 -4 10 -6 0 -11 -4 -11 -10 0 -5 -7 -7 -15 -4
-8 4 -12 11 -8 17 3 6 1 7 -5 3 -7 -4 -10 -19 -7 -34 l5 -27 -10 27 c-6 14
-18 29 -26 32 -11 4 -10 -4 7 -34 21 -38 23 -39 36 -20 19 26 37 26 23 0 -10
-18 -8 -19 15 -10 17 6 25 6 25 -1 0 -6 5 -7 11 -3 9 5 10 -1 4 -22 -4 -16 -9
-36 -10 -44 -2 -8 -4 -17 -5 -20 -1 -3 -10 13 -21 35 -10 22 -16 29 -13 16 4
-16 3 -21 -5 -17 -21 13 -54 15 -70 5 -14 -9 -14 -10 1 -5 10 3 20 0 24 -6 5
-8 -3 -9 -24 -5 -18 4 -32 3 -32 -2 0 -5 18 -12 40 -16 39 -7 50 -18 31 -30
-5 -3 -12 -1 -16 5 -3 5 -13 10 -21 10 -9 0 -12 -5 -8 -12 4 -7 3 -8 -5 -4 -6
4 -9 12 -6 17 4 5 1 9 -4 9 -6 0 -11 -6 -11 -12 0 -10 -53 -14 -222 -16 -159
-2 -224 -6 -230 -14 -4 -7 -10 -9 -14 -5 -4 4 -14 1 -22 -6 -13 -9 -14 -9 -8
1 9 14 -4 15 -56 3 -24 -6 -38 -5 -38 1 0 5 -4 6 -10 3 -5 -3 -32 -6 -60 -7
-27 0 -52 -3 -55 -8 -2 -4 -22 -6 -44 -4 -37 3 -40 1 -29 -16 9 -13 22 -18 46
-16 18 1 35 -1 37 -4 3 -4 22 -4 44 0 22 4 57 6 78 4 21 -1 59 -3 86 -3 46 -1
62 -13 31 -25 -9 -4 -13 -2 -8 5 4 8 -1 9 -16 4 -40 -13 -99 -15 -106 -4 -4 8
-9 7 -14 -1 -5 -8 -15 -10 -26 -5 -28 12 -44 14 -44 6 0 -4 -11 -8 -25 -9 -14
-1 -25 3 -25 9 0 6 -7 4 -15 -5 -16 -16 -49 -11 -39 5 3 6 -2 22 -12 36 -12
19 -13 28 -6 31 30 10 6 21 -43 21 -30 -1 -55 -4 -55 -8 0 -4 16 -6 35 -5 19
2 37 -1 40 -6 4 -6 -3 -10 -14 -10 -14 0 -19 -5 -15 -15 5 -12 10 -13 20 -4
11 9 14 7 14 -12 0 -20 2 -21 11 -9 9 12 10 12 5 -3 -3 -10 -6 -21 -6 -23 0
-2 -5 -4 -10 -4 -6 0 -9 3 -8 8 2 4 -1 7 -7 7 -5 0 -9 -4 -7 -10 2 -5 -2 -5
-9 2 -8 8 -18 9 -31 2 -22 -12 -23 -2 -1 23 15 17 15 18 -8 18 -19 0 -21 -2
-9 -10 12 -7 10 -9 -7 -7 -17 1 -20 5 -12 19 7 12 6 18 -1 18 -6 0 -9 4 -5 9
3 5 2 12 -3 15 -5 3 -9 -66 -11 -152 -1 -86 -4 -159 -7 -161 -2 -2 -4 136 -4
307 l0 312 84 0 c59 0 86 -4 89 -12 2 -7 3 -5 1 5 -1 9 4 24 13 32 9 9 10 15
3 15 -6 0 -10 12 -9 28 1 15 0 137 -2 272 l-3 245 -6 -175 c-3 -96 -6 249 -5
768 l0 942 -82 0 -83 0 0 304 0 305 -77 -2 -78 -2 -3 308 -2 307 -150 0 -150
0 0 150 0 150 -150 0 c-113 0 -150 3 -150 13 -1 6 0 141 0 300 l1 287 -159 0
-160 0 0 148 c-1 81 -1 150 -2 155 0 4 -68 7 -151 7 l-150 0 3 148 3 147 -152
-3 -153 -3 0 161 0 160 -300 0 -300 0 0 -160 c0 -123 3 -160 13 -159 6 1 74 1
150 0 l137 -1 0 -145 0 -144 148 -3 147 -3 3 -153 3 -152 149 6 150 7 0 -156
0 -157 155 0 155 0 0 -150 0 -150 155 0 155 0 0 -305 0 -305 150 0 150 0 0
-305 0 -305 75 0 75 0 0 -300 0 -300 63 -1 c34 -1 68 -1 75 0 9 2 12 -186 12
-909 l0 -910 -80 0 -80 0 0 -305 0 -305 -70 0 -70 0 0 -155 0 -155 -80 0 -79
0 -3 -148 -3 -147 -67 3 -68 4 0 -151 0 -151 -57 5 c-41 4 -52 3 -38 -4 18 -9
18 -10 -7 -10 -15 -1 -30 4 -33 9 -3 6 -12 10 -18 10 -7 0 -6 -4 3 -10 13 -8
12 -10 -2 -10 -16 0 -18 -14 -18 -151 l0 -151 -144 4 -145 3 -6 -70 c-4 -38
-5 -108 -3 -155 l3 -85 -77 -3 -78 -3 0 -149 0 -150 -150 0 c-113 0 -150 -3
-151 -12 0 -7 0 -77 1 -155 l1 -143 -230 0 -231 0 0 -150 0 -150 -225 0 -225
0 0 -150 0 -150 -305 0 -305 0 0 -150 0 -150 -302 -2 -302 -3 1 -77 1 -78
-1140 0 -1140 0 4 80 3 80 -302 0 -303 0 0 150 0 150 -305 0 -305 0 0 150 0
151 -307 -3 -308 -3 5 60 c3 33 4 102 2 153 l-3 92 -150 0 -149 0 0 155 0 155
-150 0 -150 0 0 150 0 150 -150 0 -150 0 0 155 0 154 -77 3 -78 3 0 145 0 145
-77 3 -78 3 0 149 0 150 -75 0 -75 0 0 150 0 150 -80 0 -80 0 0 150 0 150 -70
0 -71 0 1 298 c0 163 0 303 0 310 0 8 -23 12 -80 12 l-80 0 0 910 0 910 80 0
80 0 0 300 0 300 70 0 70 0 0 305 0 305 150 0 150 0 0 305 0 305 -150 0 -150
0 0 -150 0 -149 -151 -3 -150 -3 1 -306 1 -305 -78 0 -78 1 -3 -302 -2 -303
-83 0 -82 0 3 -1060 2 -1060 83 -1 c45 -1 73 -3 62 -6 -11 -3 -24 -10 -30 -15
-7 -8 -6 -9 2 -4 6 3 18 3 27 0 14 -5 16 -41 16 -302 0 -162 -2 -293 -5 -290
-3 3 -5 75 -6 161 l0 157 -275 0 c-217 0 -274 -3 -268 -12 6 -10 5 -10 -7 -1
-12 10 -18 10 -29 0 -10 -9 -11 -9 -6 1 5 7 1 12 -9 12 -9 0 -14 -4 -11 -8 2
-4 -23 -7 -57 -5 -34 1 -62 3 -62 4 0 1 -26 2 -57 4 -40 1 -55 -1 -51 -9 4 -6
0 -6 -8 1 -9 7 -38 13 -65 14 -27 1 -52 7 -56 13 -5 7 -8 4 -8 -6 0 -14 -9
-18 -40 -18 l-41 0 5 -87 c2 -49 5 -185 5 -303 l1 -215 62 4 c35 1 104 0 155
-4 l93 -7 0 -449 0 -449 -160 0 -160 0 0 303 0 302 -127 -3 c-70 -2 -137 -1
-150 3 l-23 5 -2 298 -3 297 -148 3 -148 3 6 307 c4 169 9 311 13 316 3 5 0 6
-6 2 -8 -5 -12 -57 -12 -167 l0 -159 -450 0 -450 0 0 155 0 155 -380 0 -380 0
0 1060 0 1060 385 -2 c242 -2 381 0 375 6 -6 6 -10 74 -10 153 l0 143 605 0
605 0 0 460 0 460 150 0 150 0 0 300 0 300 160 0 160 0 0 305 0 305 -160 0
-160 0 0 305 0 305 -150 0 -150 0 0 300 0 300 -150 0 -150 0 0 299 c0 231 -3
300 -12 302 -7 2 -75 3 -150 1 l-138 -3 0 -450 0 -449 150 0 150 0 0 -310 0
-310 150 0 150 0 0 -150 0 -150 150 0 150 0 0 -300 0 -300 -150 0 -150 0 0
-300 0 -300 -150 0 -150 0 0 -310 0 -311 -453 1 -452 1 -3 -150 -3 -151 -454
0 -455 0 0 -150 0 -150 -80 0 -80 0 0 -1220 0 -1220 155 0 154 0 3 -147 3
-148 378 -3 377 -2 0 -150 0 -150 455 0 455 0 0 -300 0 -300 150 0 150 0 0
-310 0 -310 150 0 150 0 0 -145 0 -145 -44 0 c-26 0 -46 5 -49 13 -4 9 -6 9
-6 0 -1 -7 -10 -13 -21 -13 -19 0 -20 -7 -20 -156 l0 -156 -80 4 -80 4 0 -152
0 -152 -150 1 c-144 2 -150 1 -150 -18 -1 -11 -1 -147 -1 -302 l0 -283 -149 0
-150 0 0 -460 0 -459 147 -3 c123 -3 148 -6 149 -18 1 -8 2 -75 2 -147 l2
-133 144 0 143 0 7 -52 c3 -29 6 -97 6 -150 l0 -98 150 0 150 0 0 -150 c0
-149 0 -150 23 -151 12 0 82 0 155 1 l132 1 0 -158 c0 -114 -3 -154 -11 -143
-9 13 -10 13 -6 0 3 -12 32 -15 166 -18 l163 -3 -5 -69 -6 -70 307 2 307 3 3
68 3 67 144 0 145 0 0 155 0 155 219 0 c121 0 226 3 235 6 14 5 16 28 16 155
l0 149 225 0 225 0 0 150 0 150 150 0 150 0 0 -150 0 -150 300 0 300 0 0 -155
0 -155 305 0 305 0 0 -155 0 -155 150 0 150 0 0 -300 0 -300 80 0 80 0 0 -450
0 -450 75 0 75 0 0 -160 0 -160 1440 0 1440 0 0 460 0 460 80 0 80 0 0 150 0
150 70 0 c48 0 71 4 72 13 1 6 3 140 3 297 l0 285 153 3 153 3 -3 154 -3 155
300 1 c165 1 303 1 308 0 4 0 7 69 7 154 l0 155 300 0 c279 0 300 1 301 18 0
9 0 77 -1 150 l-1 132 151 0 150 0 0 -150 0 -150 225 0 225 0 0 -156 0 -156
235 4 235 3 0 -157 0 -158 150 0 150 0 0 -70 0 -70 305 0 305 0 0 70 0 70 155
0 155 0 0 158 0 157 150 -2 150 -3 0 155 0 155 150 0 150 0 0 150 0 150 150 0
150 0 0 150 0 150 150 0 150 0 0 460 0 460 -150 0 -150 0 -2 301 -3 301 -145
4 -145 4 -5 146 -5 147 -77 -2 -78 -2 0 155 0 156 -70 0 -70 0 0 145 0 145
150 0 150 0 0 310 0 310 150 0 150 0 0 300 0 300 455 0 455 0 0 150 0 150 379
0 379 0 7 27 c3 15 6 77 5 138 -1 60 -1 117 -1 125 1 13 23 15 151 12 l150 -3
0 1223 0 1223 -152 0 -153 0 -3 148 -3 147 -379 0 -379 0 -3 153 -3 152 -450
-3 -450 -4 -5 309 -5 308 -147 3 -148 3 0 299 0 300 -80 0 -80 0 0 300 0 300
80 0 80 0 0 150 0 150 150 0 150 0 0 310 0 310 150 0 150 0 2 453 3 453 -152
-4 -153 -4 0 140 c0 77 -3 147 -6 156 -5 14 -28 16 -150 16 l-144 0 0 155 0
156 -152 -3 -153 -3 3 153 3 152 -151 0 -150 0 0 150 0 149 -157 3 -158 3 -3
148 -3 147 -299 0 -300 0 0 -150 0 -150 -227 -2 c-126 -1 -193 -4 -150 -5 l77
-4 0 -55 c0 -51 -1 -54 -19 -44 -25 13 -53 14 -33 1 11 -7 11 -9 -2 -14 -9 -4
-16 1 -19 11 -3 9 -5 4 -6 -13 l-2 -30 -15 28 c-8 15 -17 27 -20 27 -3 0 -2
-4 1 -10 3 -5 -1 -10 -9 -10 -9 0 -16 -7 -16 -15 0 -14 12 -19 33 -16 4 0 7
-14 8 -32 1 -30 1 -31 9 -7 7 23 8 22 9 -10 1 -26 4 -31 11 -20 5 8 7 23 4 33
-8 26 4 55 26 62 26 8 47 -4 29 -16 -10 -6 -11 -9 -1 -9 8 0 12 -21 12 -74 l0
-73 -77 0 c-43 1 -181 0 -308 -1 l-230 -2 3 -150 3 -150 -455 0 -456 0 0 150
0 150 -300 0 -300 0 0 140 c0 105 3 140 13 140 8 0 7 4 -3 10 -9 6 -141 10
-322 10 l-308 0 0 455 0 455 -150 0 -150 0 0 455 0 455 -1440 0 -1440 0 0
-455z m287 -507 c-2 -13 -4 -5 -4 17 -1 22 1 32 4 23 2 -10 2 -28 0 -40z m0
-65 c-3 -10 -5 -4 -5 12 0 17 2 24 5 18 2 -7 2 -21 0 -30z m2338 27 c3 -5 1
-10 -4 -10 -6 0 -11 5 -11 10 0 6 2 10 4 10 3 0 8 -4 11 -10z m42 -335 c0 -8
-4 -15 -9 -15 -4 0 -8 7 -8 15 0 8 4 15 8 15 5 0 9 -7 9 -15z m-2377 -5 c0 -5
-5 -10 -11 -10 -5 0 -7 5 -4 10 3 6 8 10 11 10 2 0 4 -4 4 -10z m-62 -7 c-10
-2 -28 -2 -40 0 -13 2 -5 4 17 4 22 1 32 -1 23 -4z m2535 0 c-7 -2 -19 -2 -25
0 -7 3 -2 5 12 5 14 0 19 -2 13 -5z m3814 -479 c-3 -3 -12 -4 -19 -1 -8 3 -5
6 6 6 11 1 17 -2 13 -5z m50 0 c-3 -3 -12 -4 -19 -1 -8 3 -5 6 6 6 11 1 17 -2
13 -5z m171 -1 c-15 -2 -42 -2 -60 0 -18 2 -6 4 27 4 33 0 48 -2 33 -4z m19
-65 c-3 -7 -5 -2 -5 12 0 14 2 19 5 13 2 -7 2 -19 0 -25z m245 -235 c-40 -2
-103 -2 -140 0 -37 2 -4 3 73 3 77 0 107 -2 67 -3z m911 -920 c-23 -2 -64 -2
-90 0 -26 2 -7 3 42 3 50 0 71 -1 48 -3z m67 -568 c0 -24 -2 -25 -57 -23 l-58
2 53 3 c44 3 52 7 52 24 0 10 2 19 5 19 3 0 5 -11 5 -25z m-182 -22 c-10 -2
-26 -2 -35 0 -10 3 -2 5 17 5 19 0 27 -2 18 -5z m1790 -3650 c-10 -2 -26 -2
-35 0 -10 3 -2 5 17 5 19 0 27 -2 18 -5z m49 -340 c-2 -21 -4 -4 -4 37 0 41 2
58 4 38 2 -21 2 -55 0 -75z m0 -145 c-2 -18 -4 -4 -4 32 0 36 2 50 4 33 2 -18
2 -48 0 -65z m0 -185 c-2 -21 -4 -6 -4 32 0 39 2 55 4 38 2 -18 2 -50 0 -70z
m0 -155 c-2 -24 -4 -7 -4 37 0 44 2 63 4 43 2 -21 2 -57 0 -80z m0 -80 c-3 -7
-5 -2 -5 12 0 14 2 19 5 13 2 -7 2 -19 0 -25z m0 -40 c-3 -8 -6 -5 -6 6 -1 11
2 17 5 13 3 -3 4 -12 1 -19z m0 -225 c-3 -10 -5 -2 -5 17 0 19 2 27 5 18 2
-10 2 -26 0 -35z m0 -930 c-3 -10 -5 -2 -5 17 0 19 2 27 5 18 2 -10 2 -26 0
-35z m-2117 -485 c0 -83 -2 -149 -5 -146 -3 3 -6 63 -6 134 -1 156 0 164 6
164 3 0 5 -68 5 -152z m-12082 135 c-10 -2 -26 -2 -35 0 -10 3 -2 5 17 5 19 0
27 -2 18 -5z m12 -51 c0 -10 -36 -9 -46 1 -4 4 5 7 19 7 15 0 27 -4 27 -8z
m474 -4 c-3 -4 -11 -5 -19 -1 -8 3 -15 1 -15 -5 0 -6 6 -12 13 -15 6 -2 -5 -3
-25 -3 -28 1 -34 4 -26 13 6 7 14 11 18 8 5 -3 11 -1 15 4 3 5 14 9 25 8 10
-1 17 -5 14 -9z m10436 2 c0 -5 -4 -10 -10 -10 -5 0 -10 5 -10 10 0 6 5 10 10
10 6 0 10 -4 10 -10z m-10600 -18 c0 -4 -15 -8 -34 -8 -19 0 -32 4 -30 8 3 4
18 8 35 8 16 0 29 -4 29 -8z m35 -2 c-3 -5 -10 -10 -16 -10 -5 0 -9 5 -9 10 0
6 7 10 16 10 8 0 12 -4 9 -10z m10800 -48 c-3 -3 -11 0 -18 7 -9 10 -8 11 6 5
10 -3 15 -9 12 -12z m92 12 c-3 -3 -12 -4 -19 -1 -8 3 -5 6 6 6 11 1 17 -2 13
-5z m790 -66 c-3 -8 -6 -5 -6 6 -1 11 2 17 5 13 3 -3 4 -12 1 -19z m-10879
-405 l-3 -298 -2 290 c-3 216 -6 291 -16 297 -8 5 -7 8 6 8 16 0 17 -20 15
-297z m9599 291 c-3 -3 -12 -4 -19 -1 -8 3 -5 6 6 6 11 1 17 -2 13 -5z m1173
-51 c0 -22 -2 -25 -10 -13 -8 13 -10 12 -10 -4 0 -11 -3 -16 -7 -13 -6 6 15
57 24 57 2 0 3 -12 3 -27z m-11945 -183 c3 -5 1 -10 -4 -10 -6 0 -11 5 -11 10
0 6 2 10 4 10 3 0 8 -4 11 -10z m11945 -20 c0 -5 -5 -10 -11 -10 -5 0 -7 5 -4
10 3 6 8 10 11 10 2 0 4 -4 4 -10z m-11930 -8 c0 -4 -9 -8 -20 -9 -11 -1 -18
2 -15 8 7 11 35 12 35 1z m233 -9 c-13 -2 -33 -2 -45 0 -13 2 -3 4 22 4 25 0
35 -2 23 -4z m10490 -334 c-4 -4 -6 24 -3 64 l5 72 3 -64 c2 -35 -1 -68 -5
-72z m-9364 6 c-3 -2 -29 -5 -59 -7 -30 -1 -58 -7 -62 -13 -5 -6 -8 -5 -8 3 0
6 -7 12 -16 12 -8 0 -12 -4 -9 -10 3 -5 1 -10 -4 -10 -6 0 -11 5 -11 11 0 5
-4 8 -9 4 -5 -3 -12 -1 -16 5 -4 6 29 10 96 10 56 0 100 -2 98 -5z m98 -1 c-3
-3 -12 -4 -19 -1 -8 3 -5 6 6 6 11 1 17 -2 13 -5z m9036 -1 c-13 -2 -35 -2
-50 0 -16 2 -5 4 22 4 28 0 40 -2 28 -4z m-9933 -1048 l0 -455 -135 -1 c-74
-1 -141 -2 -147 -3 -10 -1 -14 -70 -16 -303 l-2 -303 -158 0 -158 0 4 -152 4
-153 -86 5 c-54 3 -82 2 -76 -4 6 -6 10 -78 10 -160 l0 -151 -230 0 -230 0 0
153 0 152 150 0 149 0 3 151 3 151 145 1 145 2 3 303 2 302 160 0 160 0 0 460
0 460 150 0 150 0 0 -455z m1197 343 c-2 -18 -4 -4 -4 32 0 36 2 50 4 33 2
-18 2 -48 0 -65z m0 -60 c-3 -8 -6 -5 -6 6 -1 11 2 17 5 13 3 -3 4 -12 1 -19z
m0 -85 c-3 -10 -5 -2 -5 17 0 19 2 27 5 18 2 -10 2 -26 0 -35z m8370 -55 c-3
-8 -6 -5 -6 6 -1 11 2 17 5 13 3 -3 4 -12 1 -19z m-7910 -314 c-3 -3 -12 -4
-19 -1 -8 3 -5 6 6 6 11 1 17 -2 13 -5z m7561 -1 c-21 -2 -57 -2 -80 0 -24 2
-7 4 37 4 44 0 63 -2 43 -4z m85 0 c-7 -2 -21 -2 -30 0 -10 3 -4 5 12 5 17 0
24 -2 18 -5z m-7250 -300 c-7 -2 -19 -2 -25 0 -7 3 -2 5 12 5 14 0 19 -2 13
-5z m4915 -1220 c-64 -2 -172 -2 -240 0 -68 1 -15 3 117 3 132 0 187 -2 123
-3z m-8181 -65 c-3 -8 -6 -5 -6 6 -1 11 2 17 5 13 3 -3 4 -12 1 -19z"/>
<path d="M3950 5890 c0 -5 4 -10 9 -10 6 0 13 5 16 10 3 6 -1 10 -9 10 -9 0
-16 -4 -16 -10z"/>
<path d="M4113 5633 c9 -2 23 -2 30 0 6 3 -1 5 -18 5 -16 0 -22 -2 -12 -5z"/>
<path d="M17761 18510 l1 -151 146 3 147 3 0 135 c0 74 -2 141 -4 148 -2 9
-41 12 -147 12 l-145 0 2 -150z m229 131 c0 -10 -26 -9 -36 2 -4 4 2 7 14 7
12 0 22 -4 22 -9z m27 -83 c-2 -13 -4 -5 -4 17 -1 22 1 32 4 23 2 -10 2 -28 0
-40z m20 -20 c-3 -8 -6 -5 -6 6 -1 11 2 17 5 13 3 -3 4 -12 1 -19z m0 -85 c-3
-10 -5 -2 -5 17 0 19 2 27 5 18 2 -10 2 -26 0 -35z m-20 15 c-3 -8 -6 -5 -6 6
-1 11 2 17 5 13 3 -3 4 -12 1 -19z m20 -85 c-3 -10 -5 -2 -5 17 0 19 2 27 5
18 2 -10 2 -26 0 -35z m-224 -10 c-7 -2 -19 -2 -25 0 -7 3 -2 5 12 5 14 0 19
-2 13 -5z m54 1 c-3 -3 -12 -4 -19 -1 -8 3 -5 6 6 6 11 1 17 -2 13 -5z"/>
<path d="M3040 18130 l0 -230 150 0 150 0 -2 233 -3 232 -2 -223 c-3 -172 -6
-223 -16 -219 -6 2 -13 21 -13 43 l-2 39 8 -40 c4 -23 7 51 6 175 l-1 215
-137 3 -138 3 0 -231z m210 210 c0 -5 -2 -10 -4 -10 -3 0 -8 5 -11 10 -3 6 -1
10 4 10 6 0 11 -4 11 -10z m30 -30 c0 -11 -7 -20 -15 -20 -15 0 -21 21 -8 33
12 13 23 7 23 -13z m27 -57 c-3 -10 -5 -4 -5 12 0 17 2 24 5 18 2 -7 2 -21 0
-30z m-27 -31 c0 -46 -3 -59 -15 -59 -10 0 -15 10 -15 29 0 17 -4 27 -10 23
-5 -3 -10 -1 -10 4 0 6 9 16 20 23 11 7 20 18 20 25 0 7 2 13 5 13 3 0 5 -26
5 -58z m-27 -97 c-3 -8 -2 -15 1 -15 4 0 10 10 15 22 6 16 8 9 8 -28 -1 -27
-2 -38 -5 -26 -3 18 -9 23 -22 19 -16 -4 -17 -1 -10 18 5 13 6 26 2 31 -4 4
-2 4 5 0 7 -4 10 -13 6 -21z m54 3 c-3 -8 -6 -5 -6 6 -1 11 2 17 5 13 3 -3 4
-12 1 -19z m-47 -97 c0 -15 5 -32 11 -38 9 -9 6 -11 -12 -7 -17 4 -20 3 -10
-4 7 -5 11 -15 7 -21 -5 -7 -1 -9 8 -5 12 5 16 0 15 -17 0 -14 -3 -18 -6 -10
-4 11 -7 11 -14 0 -4 -7 -11 -11 -14 -7 -10 10 -15 67 -6 73 5 3 5 20 1 39 -6
27 -5 33 6 29 8 -3 14 -17 14 -32z m47 7 c-3 -7 -5 -2 -5 12 0 14 2 19 5 13 2
-7 2 -19 0 -25z m-30 -10 c-3 -8 -6 -5 -6 6 -1 11 2 17 5 13 3 -3 4 -12 1 -19z"/>
<path d="M6700 18353 c0 -9 129 -8 137 1 4 3 -26 6 -65 6 -40 0 -72 -3 -72 -7z"/>
<path d="M6853 18345 c0 -8 4 -12 9 -9 5 3 6 10 3 15 -9 13 -12 11 -12 -6z"/>
<path d="M6934 18349 c-3 -5 0 -8 8 -7 10 2 14 -26 16 -129 l3 -132 -32 1
c-18 1 -41 10 -52 21 -17 17 -18 19 -3 14 15 -6 17 -2 13 28 -3 19 -1 35 3 35
4 0 4 21 -1 47 -6 31 -5 50 2 59 13 16 5 44 -13 44 -9 0 -8 -3 2 -10 11 -7 7
-10 -17 -10 -18 0 -33 5 -33 10 0 6 -21 10 -47 10 -27 0 -43 -4 -36 -8 9 -5 6
-11 -9 -21 -19 -12 -20 -11 -15 8 3 14 0 21 -9 21 -11 0 -14 -18 -16 -72 l-2
-73 -6 85 c-6 78 -6 74 -8 -57 l-2 -142 33 -6 c17 -3 84 -5 147 -3 l115 3 -2
144 c-1 122 -4 145 -17 147 -9 1 -19 -2 -22 -7z m-71 -56 c3 -5 -8 -8 -25 -9
-20 -1 -25 2 -16 7 16 11 35 11 41 2z m-63 -12 c0 -12 -20 -25 -27 -18 -7 7 6
27 18 27 5 0 9 -4 9 -9z m-103 -138 c-3 -10 -5 -4 -5 12 0 17 2 24 5 18 2 -7
2 -21 0 -30z m27 22 c-4 -8 -8 -15 -10 -15 -2 0 -4 7 -4 15 0 8 4 15 10 15 5
0 7 -7 4 -15z m143 -20 c0 -8 -4 -12 -9 -9 -5 3 -6 10 -3 15 9 13 12 11 12 -6z
m-170 -57 c-3 -7 -5 -2 -5 12 0 14 2 19 5 13 2 -7 2 -19 0 -25z m166 5 c-7 -2
-19 -2 -25 0 -7 3 -2 5 12 5 14 0 19 -2 13 -5z"/>
<path d="M18065 18338 c-3 -13 -4 -115 -3 -228 l3 -205 290 0 c227 0 289 3
287 13 -1 6 2 12 7 12 6 0 10 72 10 166 1 145 0 166 -14 160 -8 -3 -15 -1 -15
3 0 5 6 11 13 14 7 2 12 21 12 43 l0 39 -292 3 -293 2 -5 -22z m420 2 c-11 -5
-47 -8 -80 -8 l-60 1 50 6 c28 3 64 7 80 8 25 2 27 0 10 -7z m-408 -22 c-3 -8
-6 -5 -6 6 -1 11 2 17 5 13 3 -3 4 -12 1 -19z m490 16 c-3 -3 -12 -4 -19 -1
-8 3 -5 6 6 6 11 1 17 -2 13 -5z m59 -52 c-15 -15 -15 -15 -4 10 7 15 15 23
17 17 2 -6 -4 -18 -13 -27z m-549 -104 c-3 -7 -5 -2 -5 12 0 14 2 19 5 13 2
-7 2 -19 0 -25z m547 -174 c3 -8 2 -12 -4 -9 -6 3 -10 10 -10 16 0 14 7 11 14
-7z"/>
<path d="M6913 18138 c14 -21 23 -23 33 -6 4 7 3 8 -4 4 -7 -4 -12 -1 -12 7 0
7 -6 14 -14 14 -11 0 -12 -4 -3 -19z"/>
<path d="M2720 17750 l0 -150 154 0 155 0 3 140 c2 77 2 145 0 150 -2 6 -66
10 -158 10 l-154 0 0 -150z m300 136 c0 -3 -4 -8 -10 -11 -5 -3 -10 -1 -10 4
0 6 5 11 10 11 6 0 10 -2 10 -4z m-2 -51 c-3 -3 -9 2 -12 12 -6 14 -5 15 5 6
7 -7 10 -15 7 -18z m-1 -67 c-2 -13 -4 -5 -4 17 -1 22 1 32 4 23 2 -10 2 -28
0 -40z m0 -120 c-2 -18 -4 -6 -4 27 0 33 2 48 4 33 2 -15 2 -42 0 -60z m-30
-5 c-3 -10 -5 -4 -5 12 0 17 2 24 5 18 2 -7 2 -21 0 -30z"/>
<path d="M4855 17160 c-3 -5 -2 -10 4 -10 5 0 13 5 16 10 3 6 2 10 -4 10 -5 0
-13 -4 -16 -10z"/>
<path d="M12590 16860 c0 -5 5 -10 10 -10 6 0 10 5 10 10 0 6 -4 10 -10 10 -5
0 -10 -4 -10 -10z"/>
<path d="M4560 16690 l0 -150 -157 0 -158 0 3 -150 3 -150 155 0 154 0 0 150
0 150 150 0 150 0 0 150 0 150 -150 0 -150 0 0 -150z"/>
<path d="M14560 16789 c0 -5 5 -7 10 -4 6 3 10 1 10 -4 0 -6 4 -11 10 -11 5 0
7 7 4 15 -7 17 -34 21 -34 4z"/>
<path d="M14649 16798 c-7 -30 -7 -48 0 -48 12 0 21 39 10 46 -5 3 -9 4 -10 2z"/>
<path d="M14561 16734 c0 -11 3 -14 6 -6 3 7 2 16 -1 19 -3 4 -6 -2 -5 -13z"/>
<path d="M14556 16672 c-2 -4 -1 -14 4 -22 7 -11 9 -9 7 8 -1 24 -3 26 -11 14z"/>
<path d="M14665 16610 c-10 -11 -15 -23 -12 -27 4 -3 7 -1 7 6 0 7 5 9 10 6 6
-3 13 1 16 10 10 25 -1 27 -21 5z"/>
<path d="M14565 16609 c-11 -17 1 -21 15 -4 8 9 8 15 2 15 -6 0 -14 -5 -17
-11z"/>
<path d="M14610 16605 c10 -12 10 -15 0 -15 -8 0 -11 -3 -7 -6 3 -4 13 -4 22
0 15 5 15 8 1 21 -19 19 -32 20 -16 0z"/>
<path d="M14662 16571 c-11 -7 -11 -9 0 -14 9 -3 15 1 15 9 0 8 -1 14 -1 14
-1 0 -7 -4 -14 -9z"/>
<path d="M3940 16086 c0 -115 3 -155 13 -157 6 -2 74 -3 150 -1 l137 3 0 155
0 154 -150 0 -150 0 0 -154z"/>
<path d="M8418 16233 c12 -2 30 -2 40 0 9 3 -1 5 -23 4 -22 0 -30 -2 -17 -4z"/>
<path d="M8513 16233 c9 -2 23 -2 30 0 6 3 -1 5 -18 5 -16 0 -22 -2 -12 -5z"/>
<path d="M4862 16030 c0 -14 2 -19 5 -12 2 6 2 18 0 25 -3 6 -5 1 -5 -13z"/>
<path d="M3610 15941 c0 -6 4 -12 8 -15 5 -3 9 1 9 9 0 8 -4 15 -9 15 -4 0 -8
-4 -8 -9z"/>
<path d="M16836 15936 c10 -8 21 -12 24 -10 5 6 -21 24 -34 24 -6 0 -1 -6 10
-14z"/>
<path d="M3640 15775 l0 -155 150 0 150 0 0 155 0 155 -150 0 -150 0 0 -155z"/>
<path d="M14422 15820 c0 -19 2 -27 5 -17 2 9 2 25 0 35 -3 9 -5 1 -5 -18z"/>
<path d="M8492 15170 l3 -150 -307 0 -308 0 0 -150 0 -150 -150 0 -150 0 0
-150 0 -150 -300 0 -300 0 0 -160 0 -160 -150 0 -150 0 0 -149 0 -149 -147 -1
c-81 -1 -149 -4 -151 -6 -2 -2 -4 -69 -5 -149 l-2 -146 -157 0 -158 0 0 -300
0 -300 155 0 155 0 0 150 0 150 155 0 155 0 0 150 0 150 150 0 150 0 0 150 c0
136 2 150 18 151 9 0 77 0 150 -1 l132 -1 0 151 0 150 150 0 150 0 0 160 0
160 305 0 305 0 1 23 c1 12 0 27 -1 32 -1 6 1 63 5 128 l7 117 449 0 449 0 0
150 0 150 1140 0 1140 0 0 -150 0 -150 455 0 455 0 0 -150 0 -150 305 0 305 0
0 150 0 150 -150 0 -150 0 0 150 0 150 -310 0 -310 0 0 150 0 150 -1746 0
-1745 0 3 -150z"/>
<path d="M3943 15105 c0 -44 2 -61 4 -37 2 23 2 59 0 80 -2 20 -4 1 -4 -43z"/>
<path d="M1520 14865 l0 -145 145 0 145 0 0 136 c0 81 -4 133 -9 129 -5 -3
-12 -1 -15 4 -4 5 4 12 16 14 13 2 -46 5 -129 6 l-153 1 0 -145z m203 128
c-29 -2 -78 -2 -110 0 -32 2 -8 3 52 3 61 0 87 -1 58 -3z m-105 -55 c-2 -5 -8
-9 -13 -9 -5 0 -11 4 -13 9 -1 5 4 9 13 9 9 0 14 -4 13 -9z m179 -20 c-3 -7
-5 -2 -5 12 0 14 2 19 5 13 2 -7 2 -19 0 -25z m-210 -54 c-3 -3 -12 -4 -19 -1
-8 3 -5 6 6 6 11 1 17 -2 13 -5z m138 -22 c-3 -3 -11 0 -18 7 -9 10 -8 11 6 5
10 -3 15 -9 12 -12z m72 -24 c-3 -8 -6 -5 -6 6 -1 11 2 17 5 13 3 -3 4 -12 1
-19z m0 -50 c-3 -8 -6 -5 -6 6 -1 11 2 17 5 13 3 -3 4 -12 1 -19z m-197 -24
c0 -2 -16 -4 -35 -4 -19 0 -35 4 -35 8 0 4 16 6 35 4 19 -2 35 -6 35 -8z"/>
<path d="M12916 14452 c-3 -5 1 -9 9 -9 8 0 12 4 9 9 -3 4 -7 8 -9 8 -2 0 -6
-4 -9 -8z"/>
<path d="M469 14063 c-1 -21 -2 -49 -1 -63 0 -14 0 -65 1 -113 l1 -88 142 3
142 3 3 138 c3 90 0 137 -7 137 -6 0 -11 -27 -12 -62 l-1 -63 -6 60 -6 60
-123 0 c-67 0 -122 4 -122 8 0 4 56 7 126 6 69 -1 128 2 131 5 4 3 -55 6 -130
6 l-137 0 -1 -37z m248 -55 c-3 -8 -6 -5 -6 6 -1 11 2 17 5 13 3 -3 4 -12 1
-19z m20 -135 c-3 -10 -5 -2 -5 17 0 19 2 27 5 18 2 -10 2 -26 0 -35z"/>
<path d="M9100 13350 l0 -150 -302 0 -303 0 3 -150 4 -150 -156 0 -156 0 0
-150 0 -150 -155 0 -155 0 0 -154 c0 -95 4 -156 10 -158 6 -1 -62 -2 -150 0
l-160 3 0 -155 0 -156 -150 0 -150 0 0 -300 0 -300 -150 0 -150 0 0 -1060 0
-1060 150 0 150 0 0 -460 0 -460 150 0 150 0 0 -150 0 -150 150 0 150 0 0
-150 0 -150 155 0 155 0 0 -150 0 -150 305 0 305 0 0 -160 0 -161 300 3 300 3
0 -72 0 -73 846 0 846 0 -4 70 -3 70 298 0 297 0 0 160 0 160 305 0 305 0 0
150 0 150 155 0 155 0 0 150 0 150 150 0 150 0 0 150 0 150 150 0 150 0 0 460
0 460 150 0 150 0 0 1060 0 1060 -150 0 -150 0 0 300 0 300 -150 0 -150 0 0
155 0 155 -150 0 -149 0 -3 153 -3 152 -77 3 -78 3 0 149 0 150 -230 0 -230 0
0 150 0 150 -300 0 -300 0 0 150 0 150 -1140 0 -1140 0 0 -150z m2280 -603 l0
-152 150 3 150 4 0 -156 0 -156 138 -1 c75 -1 143 -1 150 0 9 1 12 -35 12
-154 l0 -156 143 1 c78 1 148 1 155 0 9 0 12 -37 12 -150 l0 -150 155 0 155 0
0 -290 c0 -225 3 -290 13 -290 8 0 7 -4 -3 -10 -10 -6 35 -10 138 -10 l152 0
0 -910 0 -910 -150 0 -150 0 0 -310 0 -310 -155 0 -155 0 0 -150 0 -150 -155
0 -155 0 0 -150 0 -150 -290 0 c-269 0 -290 -1 -291 -17 0 -15 -2 -15 -9 2 -5
12 -9 -38 -9 -132 l-1 -153 -1212 2 c-667 1 -1180 4 -1140 5 l72 4 0 144 0
145 -303 0 -304 0 5 151 4 150 -151 -3 -151 -3 0 153 0 152 -160 0 -160 0 0
311 0 310 -150 -3 -150 -3 0 913 0 912 150 0 150 0 0 300 0 300 155 0 155 0 1
93 c2 84 4 154 8 200 1 17 12 18 146 15 l145 -3 0 153 0 152 155 0 155 0 0
155 0 156 138 -1 c75 -1 143 -1 150 0 9 0 12 37 12 150 l0 150 983 2 c540 2
1053 2 1140 0 l157 -3 0 -152z m-2293 131 c-3 -8 -6 -5 -6 6 -1 11 2 17 5 13
3 -3 4 -12 1 -19z m2551 15 c-26 -2 -71 -2 -100 0 -29 2 -8 3 47 3 55 0 79 -1
53 -3z m-241 -55 c-3 -8 -6 -5 -6 6 -1 11 2 17 5 13 3 -3 4 -12 1 -19z m1500
-1420 c-2 -13 -4 -5 -4 17 -1 22 1 32 4 23 2 -10 2 -28 0 -40z m-5494 -1855
c-24 -2 -62 -2 -85 0 -24 2 -5 4 42 4 47 0 66 -2 43 -4z m5770 0 c-18 -2 -48
-2 -65 0 -18 2 -4 4 32 4 36 0 50 -2 33 -4z m-5636 -300 c-20 -2 -52 -2 -70 0
-17 2 0 4 38 4 39 0 53 -2 32 -4z m5470 0 c-20 -2 -52 -2 -70 0 -17 2 0 4 38
4 39 0 53 -2 32 -4z m-4820 -765 c-2 -13 -4 -5 -4 17 -1 22 1 32 4 23 2 -10 2
-28 0 -40z m0 -50 c-3 -8 -6 -5 -6 6 -1 11 2 17 5 13 3 -3 4 -12 1 -19z m0
-50 c-3 -8 -6 -5 -6 6 -1 11 2 17 5 13 3 -3 4 -12 1 -19z m0 -50 c-3 -7 -5 -2
-5 12 0 14 2 19 5 13 2 -7 2 -19 0 -25z m4250 -135 c-2 -16 -4 -3 -4 27 0 30
2 43 4 28 2 -16 2 -40 0 -55z m0 -75 c-3 -8 -6 -5 -6 6 -1 11 2 17 5 13 3 -3
4 -12 1 -19z m-3854 -115 c-7 -2 -21 -2 -30 0 -10 3 -4 5 12 5 17 0 24 -2 18
-5z m435 0 c-15 -2 -42 -2 -60 0 -18 2 -6 4 27 4 33 0 48 -2 33 -4z m2525 0
c-13 -2 -33 -2 -45 0 -13 2 -3 4 22 4 25 0 35 -2 23 -4z m265 0 c-15 -2 -42
-2 -60 0 -18 2 -6 4 27 4 33 0 48 -2 33 -4z m-3301 -70 c-3 -10 -5 -2 -5 17 0
19 2 27 5 18 2 -10 2 -26 0 -35z m2890 0 c-3 -10 -5 -2 -5 17 0 19 2 27 5 18
2 -10 2 -26 0 -35z m-2890 -45 c-3 -8 -6 -5 -6 6 -1 11 2 17 5 13 3 -3 4 -12
1 -19z m2890 -10 c-3 -7 -5 -2 -5 12 0 14 2 19 5 13 2 -7 2 -19 0 -25z m580
10 c-3 -8 -6 -5 -6 6 -1 11 2 17 5 13 3 -3 4 -12 1 -19z m3 -138 l0 -30 -197
2 -198 3 193 2 192 3 0 25 c0 14 2 25 5 25 3 0 5 -13 5 -30z m-583 -17 c-3
-10 -5 -4 -5 12 0 17 2 24 5 18 2 -7 2 -21 0 -30z m-2844 -10 c-7 -2 -19 -2
-25 0 -7 3 -2 5 12 5 14 0 19 -2 13 -5z m2990 0 c-23 -2 -64 -2 -90 0 -26 2
-7 3 42 3 50 0 71 -1 48 -3z m-166 -245 c-2 -35 -3 -9 -3 57 0 66 1 94 3 63 2
-32 2 -86 0 -120z m-610 -210 c-3 -8 -6 -5 -6 6 -1 11 2 17 5 13 3 -3 4 -12 1
-19z m-1042 2 c3 -5 1 -10 -4 -10 -6 0 -11 5 -11 10 0 6 2 10 4 10 3 0 8 -4
11 -10z"/>
<path d="M9548 11983 l-148 -4 0 -149 0 -150 156 0 155 0 -2 155 c-1 85 -5
154 -8 153 -3 -1 -72 -4 -153 -5z"/>
<path d="M10780 11830 l0 -151 148 3 147 3 3 148 3 147 -151 0 -150 0 0 -150z"/>
<path d="M8640 11300 l0 -80 -70 0 -70 0 0 -300 0 -300 70 0 69 0 3 -77 3 -78
308 -3 307 -2 0 80 0 80 70 0 70 0 0 300 0 300 -70 0 -70 0 0 80 0 80 -310 0
-310 0 0 -80z m300 -230 l0 -150 -150 0 -150 0 0 150 0 150 150 0 150 0 0
-150z"/>
<path d="M11222 11303 l3 -78 148 -3 147 -3 0 -149 0 -150 -150 0 -150 0 0
150 0 150 -70 0 -70 0 0 -300 0 -300 70 0 70 0 0 -80 0 -80 311 0 311 0 -4 80
-3 80 73 0 72 0 0 300 0 300 -70 0 -70 0 0 80 0 80 -310 0 -311 0 3 -77z"/>
<path d="M9710 10411 c0 -90 -1 -91 -81 -91 l-69 0 0 -80 0 -80 75 0 75 0 0
-72 0 -73 75 3 75 4 0 -81 0 -81 80 0 80 0 0 -300 0 -300 -80 0 -80 0 0 -80 0
-80 -380 0 -380 0 0 150 0 150 80 0 80 0 0 81 0 81 -77 -3 -78 -4 -5 -75 -5
-75 -145 0 -145 0 -3 78 -3 77 -229 0 -230 0 0 -80 0 -80 -152 0 -153 0 3 -70
4 -70 149 0 149 0 0 70 0 70 230 0 230 0 0 -150 0 -150 -80 0 -80 0 0 -75 0
-75 -75 0 -75 0 0 -75 0 -75 -75 0 -75 0 0 -75 0 -75 75 0 c71 0 75 1 76 23 0
12 1 45 2 72 l2 50 73 3 72 3 0 69 c0 39 3 70 8 71 4 1 30 2 57 4 28 1 60 3
73 4 21 1 22 5 22 76 l0 75 108 -1 c59 -1 95 -4 80 -6 -27 -4 -28 -6 -28 -74
l0 -69 70 0 70 0 0 -75 0 -75 380 0 380 0 0 74 0 74 80 -1 80 -2 0 80 c0 44 4
75 8 69 4 -6 14 -14 22 -17 12 -4 11 -6 -2 -6 -15 -1 -18 -11 -18 -55 0 -40 4
-55 16 -60 9 -3 103 -6 210 -6 l194 0 0 69 0 70 -37 4 -38 4 43 1 42 2 0 -77
0 -78 80 3 80 4 0 -76 0 -76 380 0 380 0 0 75 0 75 75 0 75 0 0 75 0 75 75 0
75 0 0 -75 0 -74 78 -3 c60 -2 77 -6 78 -18 1 -8 2 -41 2 -72 l2 -58 75 0 75
0 0 -75 0 -75 75 0 75 0 0 75 0 75 -75 0 -75 0 0 75 0 75 -75 0 -75 0 0 75 0
75 -80 0 -80 0 0 150 0 150 230 0 230 0 0 -70 0 -70 155 0 155 0 0 70 0 70
-155 0 -155 0 0 80 0 80 -230 0 -230 0 0 -80 0 -80 -150 0 -150 0 0 80 0 80
-80 0 -80 0 0 -80 0 -80 80 0 80 0 0 -150 0 -150 -380 0 -380 0 0 80 0 80 -80
0 -80 0 0 300 0 300 80 0 80 0 0 81 0 80 77 -2 76 -2 -2 71 -2 72 75 0 76 0 0
80 0 80 -70 0 -69 0 -3 73 -3 72 -532 3 -533 2 0 -59z m317 -173 c-2 -18 -4
-6 -4 27 0 33 2 48 4 33 2 -15 2 -42 0 -60z m241 75 c-21 -2 -57 -2 -80 0 -24
2 -7 4 37 4 44 0 63 -2 43 -4z m115 0 c-13 -2 -35 -2 -50 0 -16 2 -5 4 22 4
28 0 40 -2 28 -4z m45 -140 c-21 -2 -55 -2 -75 0 -21 2 -4 4 37 4 41 0 58 -2
38 -4z m-1350 -1080 c-10 -2 -28 -2 -40 0 -13 2 -5 4 17 4 22 1 32 -1 23 -4z
m1105 0 c-23 -2 -64 -2 -90 0 -26 2 -7 3 42 3 50 0 71 -1 48 -3z m154 1 c-3
-3 -12 -4 -19 -1 -8 3 -5 6 6 6 11 1 17 -2 13 -5z m1059 -14 c0 -11 -4 -20 -8
-20 -10 0 -11 24 -1 33 9 9 9 10 9 -13z"/>
<path d="M8340 9940 l0 -80 380 0 380 0 0 -80 0 -80 80 0 80 0 0 80 0 80 -80
0 -80 0 0 80 0 80 -380 0 -380 0 0 -80z"/>
<path d="M11380 9940 l0 -80 -80 0 -80 0 0 -80 0 -80 80 0 80 0 0 80 0 80 380
0 380 0 0 80 0 80 -380 0 -380 0 0 -80z"/>
<path d="M9400 9480 l0 -80 76 0 c54 0 73 -3 68 -12 -4 -7 -3 -8 4 -4 8 5 12
39 12 92 l0 84 -80 0 -80 0 0 -80z"/>
<path d="M10920 9480 l0 -80 80 0 80 0 0 80 0 80 -80 0 -80 0 0 -80z"/>
<path d="M9560 8415 c0 -55 3 -75 10 -65 6 10 10 11 10 3 0 -9 18 -13 55 -13
50 0 55 2 56 23 2 54 17 -31 19 -108 1 -55 4 -74 10 -60 5 11 9 14 9 8 1 -9
21 -13 66 -13 l65 0 0 -75 0 -75 370 0 c289 0 370 3 370 13 0 8 4 7 10 -3 7
-10 10 9 10 63 l0 77 75 0 74 0 3 77 3 76 73 -2 72 -2 0 75 0 76 -150 0 -150
0 0 -75 0 -75 -377 0 c-269 0 -374 -3 -363 -11 13 -9 13 -10 0 -6 -11 3 -16
23 -18 85 l-3 81 -149 3 -150 3 0 -80z m433 -92 c-18 -2 -48 -2 -65 0 -18 2
-4 4 32 4 36 0 50 -2 33 -4z m140 0 c-13 -2 -35 -2 -50 0 -16 2 -5 4 22 4 28
0 40 -2 28 -4z m275 0 c-16 -2 -40 -2 -55 0 -16 2 -3 4 27 4 30 0 43 -2 28 -4z
m80 0 c-10 -2 -26 -2 -35 0 -10 3 -2 5 17 5 19 0 27 -2 18 -5z m119 -125 c-3
-8 -6 -5 -6 6 -1 11 2 17 5 13 3 -3 4 -12 1 -19z m0 -105 c-3 -10 -5 -4 -5 12
0 17 2 24 5 18 2 -7 2 -21 0 -30z"/>
<path d="M18360 13048 l0 -148 230 0 231 0 -3 148 -3 147 -227 0 -228 0 0
-147z m25 133 c3 -5 1 -12 -5 -16 -5 -3 -10 1 -10 9 0 18 6 21 15 7z m218 -8
c-7 -2 -19 -2 -25 0 -7 3 -2 5 12 5 14 0 19 -2 13 -5z m-218 -32 c3 -5 1 -12
-5 -16 -5 -3 -10 1 -10 9 0 18 6 21 15 7z m192 3 c-3 -3 -12 -4 -19 -1 -8 3
-5 6 6 6 11 1 17 -2 13 -5z m-195 -226 c-7 -7 -12 -8 -12 -2 0 14 12 26 19 19
2 -3 -1 -11 -7 -17z m45 6 c-3 -3 -12 -4 -19 -1 -8 3 -5 6 6 6 11 1 17 -2 13
-5z m121 -1 c-21 -2 -55 -2 -75 0 -21 2 -4 4 37 4 41 0 58 -2 38 -4z"/>
<path d="M3623 12420 c0 -41 2 -58 4 -37 2 20 2 54 0 75 -2 20 -4 3 -4 -38z"/>
<path d="M4048 11673 c34 -2 90 -2 125 0 34 2 6 3 -63 3 -69 0 -97 -1 -62 -3z"/>
<path d="M3053 11373 c164 -2 430 -2 590 0 161 1 27 2 -298 2 -324 0 -456 -1
-292 -2z"/>
<path d="M2733 11135 c0 -38 2 -53 4 -32 2 20 2 52 0 70 -2 17 -4 1 -4 -38z"/>
<path d="M2284 10930 c0 -85 2 -120 3 -77 2 42 2 112 0 155 -1 42 -3 7 -3 -78z"/>
<path d="M2413 11073 c59 -2 154 -2 210 0 56 1 8 3 -108 3 -115 0 -161 -2
-102 -3z"/>
<path d="M2285 10055 c0 -357 1 -502 2 -322 2 181 2 473 0 650 -1 177 -2 30
-2 -328z"/>
<path d="M15353 10370 c0 -30 2 -43 4 -27 2 15 2 39 0 55 -2 15 -4 2 -4 -28z"/>
<path d="M15354 10145 c0 -66 1 -92 3 -57 2 34 2 88 0 120 -2 31 -3 3 -3 -63z"/>
<path d="M15353 9965 c0 -33 2 -45 4 -27 2 18 2 45 0 60 -2 15 -4 0 -4 -33z"/>
<path d="M2300 9750 c0 -5 5 -10 11 -10 5 0 7 5 4 10 -3 6 -8 10 -11 10 -2 0
-4 -4 -4 -10z"/>
<path d="M2300 9557 c0 -86 3 -157 8 -157 8 0 6 299 -2 308 -3 3 -6 -65 -6
-151z"/>
<path d="M16455 9590 c3 -5 8 -10 11 -10 2 0 4 5 4 10 0 6 -5 10 -11 10 -5 0
-7 -4 -4 -10z"/>
<path d="M2363 9561 c-9 -11 -20 -18 -25 -15 -4 3 -8 -2 -8 -11 0 -10 5 -13
13 -9 9 6 9 5 0 -7 -9 -11 -8 -18 2 -33 8 -10 18 -15 24 -11 6 3 11 0 11 -7 0
-9 3 -9 10 2 13 20 13 97 0 105 -5 3 -17 -3 -27 -14z"/>
<path d="M2920 9538 c-13 -13 -20 -18 -17 -13 3 6 -6 11 -20 12 -15 0 -22 -2
-16 -5 6 -4 9 -16 7 -26 -4 -28 5 -39 22 -25 7 6 11 16 7 22 -3 6 -1 7 6 3 6
-4 14 0 18 11 4 10 11 21 17 25 6 4 8 10 4 13 -3 4 -16 -4 -28 -17z"/>
<path d="M3060 9553 c0 -7 -7 -13 -16 -13 -8 0 -13 -4 -9 -9 3 -5 -8 -9 -24
-9 -18 1 -28 5 -24 11 3 6 1 7 -5 3 -5 -3 -13 0 -16 6 -4 7 -4 3 -2 -9 2 -13
-1 -26 -6 -30 -6 -3 -8 -1 -4 5 3 6 2 13 -4 17 -5 3 -10 -1 -10 -9 0 -9 -5
-16 -10 -16 -6 0 -14 -8 -17 -17 -4 -10 -14 -24 -22 -31 -9 -8 -10 -11 -4 -7
24 12 82 15 88 4 5 -7 11 -6 21 2 7 6 12 14 10 18 -8 13 54 3 71 -11 12 -9 15
-9 9 0 -4 6 -2 12 3 12 6 0 11 -4 11 -10 0 -6 9 -6 26 0 33 13 57 13 49 0 -3
-5 0 -8 7 -5 8 3 13 23 13 51 l1 46 -43 -5 c-23 -2 -40 -1 -37 4 7 12 -7 11
-26 -1 -9 -6 -17 -5 -22 3 -6 9 -8 9 -8 0z m40 -23 c0 -5 -5 -10 -11 -10 -5 0
-7 5 -4 10 3 6 8 10 11 10 2 0 4 -4 4 -10z m-156 -48 c3 -5 -1 -9 -9 -9 -8 0
-12 4 -9 9 3 4 7 8 9 8 2 0 6 -4 9 -8z"/>
<path d="M3355 9550 c-16 -7 -17 -9 -3 -9 9 -1 20 4 23 9 7 11 7 11 -20 0z"/>
<path d="M3695 9550 c-3 -5 -1 -10 4 -10 6 0 11 5 11 10 0 6 -2 10 -4 10 -3 0
-8 -4 -11 -10z"/>
<path d="M3732 9552 c-9 -6 7 -9 42 -9 31 1 54 3 51 5 -9 9 -81 12 -93 4z"/>
<path d="M3906 9552 c-2 -4 4 -9 15 -9 10 -1 19 2 19 8 0 11 -27 12 -34 1z"/>
<path d="M5039 9538 c-7 -14 -6 -18 6 -18 8 0 15 5 15 11 0 5 5 7 10 4 6 -3
10 -1 10 5 0 7 5 6 14 -2 10 -9 11 -18 5 -30 -6 -10 -6 -18 -2 -18 8 0 33 47
33 63 0 5 -8 3 -17 -4 -9 -8 -14 -9 -11 -4 4 7 -5 11 -24 10 -18 0 -34 -7 -39
-17z"/>
<path d="M16819 9554 c-1 -5 -1 -13 0 -18 1 -5 -4 -5 -11 1 -17 14 -91 13
-100 -1 -5 -7 -8 -8 -8 -1 0 19 -49 16 -59 -4 -6 -10 -7 -21 -4 -25 6 -6 -21
-10 -41 -7 -5 1 -6 -5 -2 -14 3 -9 2 -13 -4 -10 -6 3 -10 0 -10 -7 0 -8 14
-13 40 -13 37 -1 45 5 40 30 -1 5 7 2 18 -8 21 -19 42 -22 60 -7 9 7 9 7 3 -1
-6 -8 -5 -17 5 -26 8 -8 12 -19 9 -24 -4 -5 1 -9 9 -9 19 0 21 11 4 28 -14 14
-10 19 17 24 11 1 23 7 27 12 4 6 13 4 22 -4 9 -7 19 -10 23 -6 3 3 0 6 -8 6
-11 0 -11 2 1 10 20 13 43 13 35 0 -3 -5 -2 -10 3 -10 24 0 19 32 -9 60 -32
31 -45 39 -33 18 5 -9 2 -9 -9 1 -9 7 -18 10 -18 5z m-134 -24 c3 -6 -1 -7 -9
-4 -18 7 -21 14 -7 14 6 0 13 -4 16 -10z m195 -24 c0 -2 -7 -7 -16 -10 -8 -3
-12 -2 -9 4 6 10 25 14 25 6z"/>
<path d="M17620 9548 c0 -9 5 -20 10 -23 16 -10 1 -25 -25 -25 -30 0 -39 -14
-20 -30 12 -10 16 -9 21 4 3 9 12 16 20 16 14 0 18 12 14 40 -3 22 -20 37 -20
18z"/>
<path d="M17680 9544 c0 -8 5 -12 10 -9 6 3 10 10 10 16 0 5 -4 9 -10 9 -5 0
-10 -7 -10 -16z"/>
<path d="M17739 9555 c-1 -3 -1 -14 -1 -25 0 -35 2 -41 11 -35 5 3 12 1 16 -5
3 -5 19 -7 35 -3 21 4 30 2 30 -7 0 -8 3 -11 6 -8 3 3 -1 15 -8 27 -13 22 -42
28 -53 11 -3 -5 -13 -6 -22 -3 -13 5 -12 8 7 15 18 7 20 11 10 23 -12 15 -29
20 -31 10z"/>
<path d="M17804 9545 c-10 -8 -14 -15 -7 -15 6 0 15 5 18 10 4 6 11 7 17 4 7
-4 8 -2 4 4 -9 15 -8 15 -32 -3z"/>
<path d="M4005 9538 c8 -21 -9 -38 -38 -40 -27 -2 -33 -9 -20 -21 3 -4 11 -3
17 2 6 5 22 11 35 13 13 1 31 14 39 28 9 14 12 22 8 18 -5 -4 -17 -3 -27 3
-14 7 -17 6 -14 -3z"/>
<path d="M4094 9536 c5 -14 2 -17 -9 -12 -9 3 -13 2 -10 -4 3 -6 -5 -14 -19
-20 -39 -14 -31 -19 13 -8 32 8 39 14 36 30 -3 12 -7 23 -11 27 -4 3 -4 -2 0
-13z"/>
<path d="M17650 9540 c0 -5 5 -10 11 -10 5 0 7 5 4 10 -3 6 -8 10 -11 10 -2 0
-4 -4 -4 -10z"/>
<path d="M4120 9515 c0 -7 9 -17 20 -20 11 -3 21 -11 21 -16 3 -19 5 -24 15
-42 9 -16 12 -16 23 -4 9 12 8 15 -6 13 -14 -1 -17 5 -14 24 1 14 8 29 15 33
7 6 5 7 -6 4 -9 -3 -18 -2 -20 4 -5 16 -48 20 -48 4z"/>
<path d="M16429 9523 c-1 -5 -1 -12 0 -17 1 -5 -5 -6 -14 -3 -8 4 -15 3 -16
-1 0 -4 -2 -15 -4 -25 -4 -21 27 -41 42 -26 8 8 13 7 18 -2 5 -7 4 -10 -2 -6
-5 3 -10 0 -10 -8 0 -8 4 -15 9 -15 8 0 9 3 12 32 1 15 74 18 94 4 7 -5 12 -4
12 2 0 6 3 17 6 26 5 12 0 16 -19 16 -14 0 -28 -6 -31 -12 -5 -10 -7 -10 -12
0 -8 18 -27 15 -20 -4 3 -9 2 -12 -5 -9 -6 4 -8 13 -6 19 3 7 1 19 -4 27 -8
12 -10 12 -19 -1 -6 -10 -10 -11 -10 -2 0 13 -19 17 -21 5z m36 -33 c3 -5 -1
-10 -9 -10 -9 0 -16 5 -16 10 0 6 4 10 9 10 6 0 13 -4 16 -10z"/>
<path d="M17891 9521 c-15 -10 -7 -31 12 -30 8 0 8 2 -1 6 -10 4 -10 8 -1 19
13 16 10 18 -10 5z"/>
<path d="M15555 9511 c-3 -5 -2 -12 3 -15 5 -3 9 1 9 9 0 17 -3 19 -12 6z"/>
<path d="M16029 9518 c-6 -22 -5 -38 3 -38 6 0 8 6 5 14 -4 11 3 16 26 19 l32
4 -32 1 c-18 1 -33 1 -34 0z"/>
<path d="M16261 9503 c-1 -12 -7 -24 -13 -26 -8 -4 -7 -6 3 -6 17 -1 30 -22
34 -54 2 -18 25 -40 33 -32 2 2 -2 13 -8 26 -11 19 -10 21 4 16 9 -4 16 -4 16
-1 0 2 -11 9 -25 14 -29 11 -33 27 -7 33 14 4 14 5 1 6 -9 0 -21 11 -27 24
l-11 22 0 -22z"/>
<path d="M16285 9510 c-3 -5 -1 -10 4 -10 6 0 11 5 11 10 0 6 -2 10 -4 10 -3
0 -8 -4 -11 -10z"/>
<path d="M17475 9510 c-3 -5 -1 -10 4 -10 6 0 11 5 11 10 0 6 -2 10 -4 10 -3
0 -8 -4 -11 -10z"/>
<path d="M17528 9513 c7 -3 16 -2 19 1 4 3 -2 6 -13 5 -11 0 -14 -3 -6 -6z"/>
<path d="M2623 9493 c-3 -10 -8 -22 -11 -27 -3 -5 0 -6 6 -2 7 4 14 -3 18 -19
7 -28 14 -31 32 -13 9 9 12 9 12 -1 0 -7 5 -9 11 -5 7 4 2 14 -15 29 -14 12
-22 26 -18 31 4 4 -1 2 -10 -5 -15 -11 -18 -11 -18 2 0 8 6 18 13 20 9 4 9 6
-1 6 -7 1 -15 -7 -19 -16z"/>
<path d="M2715 9484 l-30 -25 30 6 c17 4 25 3 19 -2 -6 -4 -14 -18 -18 -29 -5
-17 -2 -23 16 -27 12 -4 27 -2 34 4 7 5 14 6 16 2 3 -4 3 -2 1 6 -2 8 1 18 8
21 8 5 8 13 1 27 -8 14 -8 23 0 31 8 8 5 10 -8 7 -11 -1 -18 -8 -16 -15 1 -6
-3 -10 -10 -7 -7 2 -12 10 -10 16 3 15 2 14 -33 -15z m65 -25 c0 -4 -6 -9 -13
-12 -8 -3 -14 0 -14 7 0 7 6 13 14 13 7 0 13 -4 13 -8z"/>
<path d="M3406 9503 c-10 -10 -7 -33 5 -33 5 0 7 5 4 10 -3 6 4 10 17 9 13 0
17 -3 11 -6 -24 -9 -13 -23 17 -23 17 0 30 5 30 13 0 8 3 7 9 -3 6 -8 8 -17 6
-20 -2 -3 8 -6 23 -7 15 0 19 1 10 4 -27 7 -21 26 6 21 14 -3 31 -1 38 3 10 7
9 9 -4 9 -9 0 -19 6 -21 13 -4 10 -6 10 -6 0 -1 -7 -10 -13 -22 -13 -11 0 -17
5 -14 10 4 6 -5 10 -20 10 -14 0 -23 -4 -20 -10 3 -5 -10 -3 -28 5 -19 8 -37
11 -41 8z"/>
<path d="M3590 9506 c0 -1 11 -15 25 -30 29 -31 33 -22 6 12 -17 20 -31 28
-31 18z"/>
<path d="M3634 9499 c-6 -10 1 -12 29 -10 9 1 17 -3 17 -9 0 -6 -5 -8 -12 -4
-9 5 -9 3 1 -9 13 -17 36 -14 26 3 -3 5 4 12 17 14 58 13 60 15 18 14 -25 0
-47 1 -50 2 -21 7 -41 7 -46 -1z"/>
<path d="M4255 9494 c9 -9 19 -13 23 -10 3 4 0 11 -8 16 -24 15 -33 11 -15 -6z"/>
<path d="M4345 9501 c-5 -10 -4 -16 3 -19 7 -2 9 -9 5 -15 -4 -7 1 -6 10 2 9
7 17 19 17 25 0 6 -4 5 -9 -3 -7 -11 -10 -10 -13 5 -3 16 -5 16 -13 5z"/>
<path d="M4473 9503 c-18 -7 -16 -23 3 -23 9 0 12 5 8 13 -4 7 -3 9 2 4 5 -5
9 -14 9 -20 0 -7 17 -12 43 -12 46 -1 59 14 15 16 -16 1 -31 1 -35 0 -5 0 -8
6 -8 14 0 15 -14 18 -37 8z"/>
<path d="M4827 9495 c-9 -24 6 -31 65 -28 67 3 78 7 60 25 -14 14 -120 17
-125 3z"/>
<path d="M5030 9502 c0 -2 7 -10 15 -18 12 -13 15 -12 24 3 7 15 5 18 -15 18
-13 0 -24 -1 -24 -3z"/>
<path d="M16320 9495 c0 -9 12 -20 26 -25 33 -13 34 -13 34 5 0 8 -6 12 -14 9
-7 -3 -16 2 -19 10 -8 20 -27 21 -27 1z"/>
<path d="M17965 9503 c-29 -7 -40 -20 -15 -18 11 1 26 7 32 13 7 7 10 11 8 11
-3 -1 -14 -3 -25 -6z"/>
<path d="M18016 9495 c-3 -8 -1 -15 4 -15 6 0 10 7 10 15 0 8 -2 15 -4 15 -2
0 -6 -7 -10 -15z"/>
<path d="M3245 9490 c-3 -5 -1 -10 4 -10 6 0 11 5 11 10 0 6 -2 10 -4 10 -3 0
-8 -4 -11 -10z"/>
<path d="M4656 9484 c-3 -8 -10 -13 -15 -10 -5 3 -14 0 -20 -8 -10 -12 -6 -13
25 -6 20 5 63 7 95 6 32 -1 62 0 66 3 24 18 4 26 -67 28 -63 2 -79 0 -84 -13z"/>
<path d="M15792 9489 c6 -17 35 -35 44 -27 7 8 -15 32 -35 36 -7 1 -11 -3 -9
-9z"/>
<path d="M16053 9488 c-4 -7 -17 -18 -28 -24 -24 -13 -31 -64 -9 -64 8 0 14
-4 14 -10 0 -5 5 -10 11 -10 6 0 8 9 4 20 -4 14 -2 20 9 20 14 0 15 -27 2 -48
-11 -18 9 -29 34 -20 l25 10 -25 10 c-15 6 -20 12 -12 15 6 3 10 9 7 13 -3 5
-1 12 5 15 6 4 10 3 9 -2 -5 -31 14 -46 24 -19 4 10 1 13 -9 9 -8 -3 -14 -2
-13 3 1 5 0 12 -1 17 -1 4 -3 12 -4 19 -1 14 -36 20 -36 6 0 -11 -30 -37 -43
-38 -4 0 -3 9 3 20 6 11 7 20 3 21 -4 0 1 4 12 9 11 4 41 6 66 3 37 -3 48 -1
53 13 4 9 4 19 1 22 -3 3 -5 1 -5 -5 0 -5 -20 -10 -45 -11 -25 0 -43 4 -39 9
3 5 3 9 0 9 -3 0 -9 -6 -13 -12z"/>
<path d="M16191 9484 c0 -11 3 -14 6 -6 3 7 2 16 -1 19 -3 4 -6 -2 -5 -13z"/>
<path d="M16211 9484 c0 -11 3 -14 6 -6 3 7 2 16 -1 19 -3 4 -6 -2 -5 -13z"/>
<path d="M16960 9481 c0 -29 15 -33 18 -5 1 13 -3 24 -8 24 -6 0 -10 -9 -10
-19z"/>
<path d="M17517 9485 c-4 -8 -1 -17 5 -21 7 -4 8 -3 4 4 -4 7 -2 12 3 12 6 0
11 -5 11 -12 0 -9 3 -9 11 -1 6 6 8 16 5 22 -10 16 -33 14 -39 -4z"/>
<path d="M3281 9468 c-8 -22 13 -58 26 -44 4 3 3 6 -2 6 -4 0 -2 7 5 15 10 12
9 16 -4 21 -9 3 -13 10 -10 15 3 5 3 9 -1 9 -3 0 -9 -10 -14 -22z"/>
<path d="M3338 9479 c13 -5 20 -14 17 -20 -4 -6 2 -5 14 3 19 12 19 13 3 20
-9 3 -26 7 -37 7 -18 0 -17 -1 3 -10z"/>
<path d="M3900 9480 c18 -12 30 -13 30 -2 0 4 -10 9 -22 9 -18 2 -20 0 -8 -7z"/>
<path d="M2806 9471 c-4 -5 -2 -12 3 -15 5 -4 12 -2 15 3 4 5 2 12 -3 15 -5 4
-12 2 -15 -3z"/>
<path d="M3714 9468 c-7 -10 35 -9 61 2 15 6 11 7 -18 7 -21 -1 -41 -5 -43 -9z"/>
<path d="M17445 9462 c-3 -9 -3 -13 1 -9 4 4 13 2 21 -5 7 -6 15 -9 18 -6 2 2
-4 11 -15 20 -17 15 -19 15 -25 0z"/>
<path d="M3230 9461 c0 -5 7 -11 15 -15 8 -3 15 -1 15 3 0 5 -7 11 -15 15 -8
3 -15 1 -15 -3z"/>
<path d="M4466 9455 c-3 -8 -1 -15 3 -15 5 0 11 7 15 15 3 8 1 15 -3 15 -5 0
-11 -7 -15 -15z"/>
<path d="M17377 9463 c-4 -3 -7 -11 -7 -17 0 -6 5 -5 12 2 6 6 9 14 7 17 -3 3
-9 2 -12 -2z"/>
<path d="M4115 9450 c3 -5 8 -10 11 -10 2 0 4 5 4 10 0 6 -5 10 -11 10 -5 0
-7 -4 -4 -10z"/>
<path d="M2848 9443 c7 -3 16 -2 19 1 4 3 -2 6 -13 5 -11 0 -14 -3 -6 -6z"/>
<path d="M15818 9436 c-22 -16 -23 -23 -3 -23 8 0 13 3 10 5 -3 3 0 11 6 19
14 16 9 16 -13 -1z"/>
<path d="M16720 9431 c0 -12 -7 -21 -15 -21 -8 0 -15 -4 -15 -9 0 -15 21 -24
31 -14 14 14 19 52 8 58 -5 4 -9 -3 -9 -14z"/>
<path d="M2363 9425 c0 -8 6 -15 13 -15 6 0 14 7 18 15 3 10 -1 15 -13 15 -10
0 -18 -7 -18 -15z"/>
<path d="M2605 9430 c-3 -5 1 -10 10 -10 9 0 13 5 10 10 -3 6 -8 10 -10 10 -2
0 -7 -4 -10 -10z"/>
<path d="M3360 9431 c0 -5 5 -13 10 -16 6 -3 10 -2 10 4 0 5 -4 13 -10 16 -5
3 -10 2 -10 -4z"/>
<path d="M3440 9431 c0 -7 -6 -11 -14 -8 -9 4 -13 1 -10 -6 5 -13 44 -21 44
-9 0 4 -5 14 -10 22 -7 12 -10 12 -10 1z"/>
<path d="M4300 9430 c0 -5 5 -10 11 -10 5 0 7 5 4 10 -3 6 -8 10 -11 10 -2 0
-4 -4 -4 -10z"/>
<path d="M15746 9427 c3 -10 9 -15 12 -12 3 3 0 11 -7 18 -10 9 -11 8 -5 -6z"/>
<path d="M15924 9425 c3 -23 12 -26 13 -5 1 11 -2 20 -7 20 -4 0 -7 -7 -6 -15z"/>
<path d="M16150 9426 c6 -6 3 -17 -8 -30 -9 -11 -12 -16 -5 -13 6 4 23 3 38
-3 17 -7 24 -7 20 0 -3 6 -13 10 -21 10 -8 0 -14 5 -14 10 0 16 18 12 39 -9
12 -12 23 -16 32 -10 10 6 11 9 2 9 -7 0 -13 7 -13 15 0 9 9 15 22 15 12 0 18
3 14 7 -3 4 -31 7 -61 7 -33 1 -50 -3 -45 -8z"/>
<path d="M17360 9420 c6 -11 15 -20 20 -20 6 0 2 9 -7 20 -10 11 -19 20 -21
20 -1 0 2 -9 8 -20z"/>
<path d="M2947 9419 c-9 -6 -25 -9 -35 -8 -32 3 -36 -1 -16 -15 14 -11 21 -11
26 -3 6 9 10 9 16 0 4 -7 19 -10 34 -8 21 4 30 0 39 -16 10 -20 9 -21 -10 -16
-18 4 -21 2 -15 -15 4 -15 3 -19 -7 -13 -8 3 -4 -2 8 -13 14 -12 32 -18 45
-16 21 4 21 4 3 -5 -12 -5 -27 -5 -37 1 -12 6 -18 5 -18 -2 0 -6 -5 -8 -10 -5
-6 4 -8 10 -5 14 2 5 -2 16 -9 26 -11 16 -13 14 -12 -16 1 -24 -3 -34 -14 -34
-8 0 -14 6 -12 13 2 10 -2 10 -20 1 -19 -11 -59 -16 -137 -19 -8 0 -12 -3 -9
-6 11 -10 868 -10 865 1 -2 6 -61 11 -142 12 -99 2 -141 6 -146 15 -7 10 -11
10 -21 0 -18 -18 -28 -15 -28 11 0 17 -2 19 -9 7 -6 -8 -7 -18 -5 -22 3 -4 -4
-8 -15 -8 -11 0 -22 9 -26 20 -3 11 -11 20 -17 20 -6 0 -8 -9 -5 -20 3 -11 1
-20 -4 -20 -5 0 -9 6 -9 13 0 9 -2 9 -8 0 -14 -22 -82 -20 -82 3 0 8 4 13 9 9
5 -3 12 -1 16 5 9 15 25 2 18 -15 -4 -11 -1 -13 11 -9 22 9 20 19 -9 38 -23
15 -25 15 -25 -1 0 -13 -3 -14 -12 -5 -8 8 -17 8 -30 1 -14 -7 -23 -7 -34 2
-11 9 -14 9 -14 -1 0 -8 -2 -11 -5 -8 -11 11 7 58 19 51 6 -3 8 -3 4 2 -4 4
-3 14 3 22 7 8 8 13 1 13 -5 0 -13 -7 -16 -16 -9 -22 -36 0 -36 30 0 17 -2 18
-10 6 -6 -10 -10 -11 -10 -2 0 14 -9 15 -33 1z"/>
<path d="M3118 9423 c-21 -5 -24 -19 -5 -20 6 0 19 -4 28 -7 10 -5 16 -2 16 8
0 8 -6 12 -15 8 -10 -3 -13 -1 -8 6 4 7 6 11 4 11 -2 -1 -11 -3 -20 -6z"/>
<path d="M16376 9417 c3 -10 9 -15 12 -12 3 3 0 11 -7 18 -10 9 -11 8 -5 -6z"/>
<path d="M17695 9420 c3 -5 8 -10 11 -10 2 0 4 5 4 10 0 6 -5 10 -11 10 -5 0
-7 -4 -4 -10z"/>
<path d="M4356 9413 c-10 -10 -7 -35 3 -28 6 3 14 -2 19 -11 6 -10 12 -12 16
-6 3 5 -1 13 -10 16 -8 3 -13 10 -9 15 6 11 -9 23 -19 14z"/>
<path d="M17487 9413 c-10 -9 -9 -23 1 -23 5 0 9 7 9 15 0 17 -1 18 -10 8z"/>
<path d="M15886 9398 c3 -5 10 -6 15 -3 13 9 11 12 -6 12 -8 0 -12 -4 -9 -9z"/>
<path d="M16355 9400 c-4 -6 -11 -7 -17 -4 -7 4 -8 2 -4 -4 10 -16 23 -15 30
3 6 17 0 20 -9 5z"/>
<path d="M16445 9401 c-3 -5 -1 -12 5 -16 5 -3 10 1 10 9 0 18 -6 21 -15 7z"/>
<path d="M2088 9393 c7 -3 16 -2 19 1 4 3 -2 6 -13 5 -11 0 -14 -3 -6 -6z"/>
<path d="M2245 9390 c3 -5 8 -10 11 -10 2 0 4 5 4 10 0 6 -5 10 -11 10 -5 0
-7 -4 -4 -10z"/>
<path d="M2271 9384 c0 -11 3 -14 6 -6 3 7 2 16 -1 19 -3 4 -6 -2 -5 -13z"/>
<path d="M3225 9389 c-4 -6 -5 -12 -2 -15 2 -3 7 2 10 11 7 17 1 20 -8 4z"/>
<path d="M17143 9380 c-1 -11 2 -22 8 -25 5 -4 9 5 9 19 0 30 -15 35 -17 6z"/>
<path d="M2290 9379 c0 -5 5 -7 10 -4 6 3 10 8 10 11 0 2 -4 4 -10 4 -5 0 -10
-5 -10 -11z"/>
<path d="M2763 9376 c5 -16 27 -19 27 -3 0 7 -7 14 -15 14 -9 0 -14 -5 -12
-11z"/>
<path d="M4460 9374 c0 -8 4 -13 9 -10 5 4 11 1 13 -5 2 -6 12 0 23 13 15 17
16 19 3 9 -12 -9 -18 -10 -18 -2 0 6 -7 11 -15 11 -8 0 -15 -7 -15 -16z"/>
<path d="M15851 9387 c2 -1 13 -9 24 -17 19 -14 19 -14 6 3 -7 9 -18 17 -24
17 -6 0 -8 -1 -6 -3z"/>
<path d="M17003 9373 c28 -32 22 -62 -13 -69 -16 -4 -30 -10 -30 -15 0 -14 38
-20 99 -17 58 3 59 3 40 21 -10 10 -19 31 -19 47 0 16 -4 32 -10 35 -6 4 -10
-10 -10 -34 0 -23 -4 -41 -10 -41 -5 0 -10 13 -10 29 0 20 -8 34 -27 46 -28
18 -28 18 -10 -2z"/>
<path d="M17387 9383 c-4 -3 -7 -11 -7 -17 0 -6 5 -5 12 2 6 6 9 14 7 17 -3 3
-9 2 -12 -2z"/>
<path d="M2891 9368 c0 -10 -7 -18 -13 -18 -7 0 -5 -5 5 -11 13 -8 22 -6 35 7
16 16 16 17 0 11 -11 -4 -18 0 -21 11 -4 16 -5 15 -6 0z"/>
<path d="M3240 9372 c0 -10 38 -13 44 -3 3 3 -6 8 -20 9 -13 1 -24 -2 -24 -6z"/>
<path d="M4009 9363 c-13 -16 -12 -17 4 -4 9 7 17 15 17 17 0 8 -8 3 -21 -13z"/>
<path d="M15440 9369 c0 -5 5 -9 10 -9 6 0 10 -5 10 -11 0 -5 -5 -7 -12 -3 -7
4 -8 3 -4 -4 10 -16 14 -15 25 7 9 15 7 20 -9 24 -11 3 -20 1 -20 -4z"/>
<path d="M17295 9370 c3 -5 8 -10 11 -10 2 0 4 5 4 10 0 6 -5 10 -11 10 -5 0
-7 -4 -4 -10z"/>
<path d="M15556 9361 c-3 -5 1 -11 9 -14 9 -4 12 -1 8 9 -6 16 -10 17 -17 5z"/>
<path d="M15836 9358 c3 -5 10 -6 15 -3 13 9 11 12 -6 12 -8 0 -12 -4 -9 -9z"/>
<path d="M16156 9355 c10 -8 15 -15 10 -15 -6 0 -1 -7 10 -16 16 -13 16 -15 2
-10 -11 3 -18 0 -18 -8 0 -9 7 -12 20 -9 20 5 29 33 11 33 -5 0 -13 9 -16 20
-3 11 -14 20 -23 20 -13 0 -13 -2 4 -15z"/>
<path d="M16515 9360 c-3 -6 1 -7 9 -4 18 7 21 14 7 14 -6 0 -13 -4 -16 -10z"/>
<path d="M17176 9357 c3 -10 9 -15 12 -12 3 3 0 11 -7 18 -10 9 -11 8 -5 -6z"/>
<path d="M17710 9349 c0 -11 4 -18 10 -14 5 3 7 12 3 20 -7 21 -13 19 -13 -6z"/>
<path d="M3055 9349 c-4 -6 -5 -12 -2 -15 2 -3 7 2 10 11 7 17 1 20 -8 4z"/>
<path d="M16286 9335 c-18 -18 -25 -21 -30 -10 -7 20 -45 15 -41 -6 3 -12 -9
-22 -41 -34 -44 -17 -61 -37 -24 -30 16 3 19 -1 16 -26 -2 -19 1 -29 10 -29 8
0 12 10 10 28 -5 35 13 59 42 57 13 -1 25 3 29 8 3 5 9 4 13 -3 6 -9 13 -7 28
8 13 13 17 24 11 28 -6 4 -6 11 2 20 19 23 2 16 -25 -11z m-36 -25 c0 -5 -2
-10 -4 -10 -3 0 -8 5 -11 10 -3 6 -1 10 4 10 6 0 11 -4 11 -10z"/>
<path d="M16334 9352 c3 -5 0 -13 -6 -15 -9 -4 -10 -6 -1 -6 17 -1 25 16 12
25 -7 4 -9 3 -5 -4z"/>
<path d="M16396 9345 c-3 -9 -2 -13 3 -10 5 3 12 -4 16 -15 3 -11 11 -20 16
-20 6 0 8 -4 5 -9 -3 -5 1 -11 9 -15 8 -3 15 -10 15 -16 0 -6 -5 -8 -11 -4 -6
3 -4 -5 5 -18 9 -14 13 -28 9 -31 -3 -4 -1 -7 5 -7 16 0 15 23 0 38 -8 8 -8
12 -1 12 8 0 8 7 0 25 -7 14 -15 25 -20 25 -4 0 -16 14 -26 31 -15 24 -20 27
-25 14z"/>
<path d="M16574 9348 c-4 -7 -4 -10 1 -6 4 4 15 2 24 -5 14 -11 14 -10 2 6
-16 20 -18 21 -27 5z"/>
<path d="M17337 9353 c-10 -9 -9 -23 1 -23 5 0 9 7 9 15 0 17 -1 18 -10 8z"/>
<path d="M3280 9341 c0 -6 4 -13 10 -16 6 -3 7 1 4 9 -7 18 -14 21 -14 7z"/>
<path d="M4490 9340 c-8 -5 -12 -11 -10 -14 3 -2 14 2 24 10 22 15 10 19 -14
4z"/>
<path d="M16977 9334 c6 -15 23 -19 23 -5 0 5 -7 11 -14 14 -10 4 -13 1 -9 -9z"/>
<path d="M3495 9330 c-3 -5 -2 -10 4 -10 5 0 13 5 16 10 3 6 2 10 -4 10 -5 0
-13 -4 -16 -10z"/>
<path d="M4051 9324 c0 -11 3 -14 6 -6 3 7 2 16 -1 19 -3 4 -6 -2 -5 -13z"/>
<path d="M15474 9324 c-18 -14 -18 -15 4 -4 12 6 22 13 22 15 0 8 -5 6 -26
-11z"/>
<path d="M16710 9325 c-7 -8 -9 -15 -6 -15 4 0 14 7 22 15 9 8 11 15 6 15 -5
0 -15 -7 -22 -15z"/>
<path d="M17235 9330 c3 -5 14 -10 23 -10 15 0 15 2 2 10 -20 13 -33 13 -25 0z"/>
<path d="M3424 9316 c1 -8 5 -18 8 -22 4 -3 5 1 4 10 -1 8 -5 18 -8 22 -4 3
-5 -1 -4 -10z"/>
<path d="M4160 9321 c0 -6 4 -13 10 -16 6 -3 7 1 4 9 -7 18 -14 21 -14 7z"/>
<path d="M15706 9315 c4 -8 8 -15 10 -15 2 0 4 7 4 15 0 8 -4 15 -10 15 -5 0
-7 -7 -4 -15z"/>
<path d="M15855 9320 c-3 -5 -5 -10 -3 -11 33 -8 38 -7 27 7 -14 17 -16 17
-24 4z"/>
<path d="M16044 9322 c4 -3 14 -7 22 -8 9 -1 13 0 10 4 -4 3 -14 7 -22 8 -9 1
-13 0 -10 -4z"/>
<path d="M16090 9319 c0 -5 5 -7 10 -4 6 3 10 8 10 11 0 2 -4 4 -10 4 -5 0
-10 -5 -10 -11z"/>
<path d="M16128 9303 c2 -12 8 -20 13 -18 12 8 7 42 -6 42 -7 0 -10 -10 -7
-24z"/>
<path d="M16506 9314 c-6 -14 9 -54 20 -54 2 0 0 9 -6 19 -5 11 -7 27 -4 35 3
9 4 16 1 16 -3 0 -8 -7 -11 -16z"/>
<path d="M17692 9305 c0 -16 2 -22 5 -12 2 9 2 23 0 30 -3 6 -5 -1 -5 -18z"/>
<path d="M4125 9310 c-7 -12 2 -30 16 -30 5 0 9 5 9 11 0 5 -5 7 -12 3 -8 -5
-9 -2 -5 9 7 19 2 23 -8 7z"/>
<path d="M4453 9307 c0 -8 6 -14 14 -14 9 0 10 4 2 14 -6 7 -12 13 -14 13 -1
0 -2 -6 -2 -13z"/>
<path d="M15977 9313 c-10 -10 -8 -23 4 -23 5 0 8 4 5 9 -4 5 0 12 6 14 7 3 8
6 2 6 -6 1 -14 -2 -17 -6z"/>
<path d="M16015 9311 c-3 -5 -1 -12 5 -16 5 -3 10 1 10 9 0 18 -6 21 -15 7z"/>
<path d="M16466 9308 c3 -4 9 -8 15 -8 5 0 9 4 9 8 0 5 -7 9 -15 9 -8 0 -12
-4 -9 -9z"/>
<path d="M16536 9305 c-6 -17 18 -27 33 -12 8 8 11 6 11 -7 0 -9 4 -15 9 -11
5 3 12 1 15 -4 3 -5 15 -7 26 -4 14 4 19 1 17 -8 -2 -8 -2 -11 0 -6 8 13 25 7
20 -7 -4 -10 -1 -13 9 -9 7 3 14 8 14 12 0 10 -17 33 -24 32 -26 -4 -39 2 -43
17 -5 22 -79 28 -87 7z"/>
<path d="M17190 9310 c0 -5 5 -10 10 -10 6 0 10 5 10 10 0 6 -4 10 -10 10 -5
0 -10 -4 -10 -10z"/>
<path d="M17280 9311 c0 -6 4 -13 10 -16 6 -3 7 1 4 9 -7 18 -14 21 -14 7z"/>
<path d="M17315 9310 c3 -5 8 -10 11 -10 2 0 4 5 4 10 0 6 -5 10 -11 10 -5 0
-7 -4 -4 -10z"/>
<path d="M4237 9304 c-3 -3 -3 -12 -1 -19 3 -7 1 -16 -5 -20 -6 -3 -11 0 -11
7 0 9 -3 9 -10 -2 -8 -13 -10 -13 -10 0 0 11 -4 11 -17 -3 -17 -17 -17 -19 0
-31 9 -7 17 -19 17 -25 0 -7 4 -10 8 -7 4 2 14 1 22 -5 13 -7 12 -9 -2 -9 -10
0 -18 -7 -18 -16 0 -8 -4 -13 -9 -9 -17 10 -21 -12 -5 -31 14 -18 14 -17 4 6
-9 21 -9 22 2 9 7 -9 20 -18 28 -22 15 -6 4 -8 -44 -11 -11 -1 -20 -7 -22 -14
-1 -7 0 -8 3 -2 2 5 9 10 14 10 6 0 7 -4 4 -10 -3 -5 -2 -10 4 -10 6 0 8 -8 4
-17 -5 -17 -5 -17 8 -1 12 15 16 15 27 2 11 -12 10 -14 -5 -14 -15 0 -16 -2
-3 -10 13 -8 13 -10 -2 -10 -9 0 -19 -6 -21 -12 -3 -8 -6 -6 -6 5 -1 9 -5 17
-11 17 -5 0 -6 7 -3 17 4 11 3 14 -5 9 -7 -4 -10 -17 -6 -32 4 -15 2 -24 -6
-24 -6 0 -8 5 -5 10 3 6 -3 10 -14 10 -12 0 -21 -5 -21 -11 0 -5 -5 -7 -10 -4
-6 4 -8 11 -5 16 4 5 -1 12 -10 16 -10 3 -20 1 -24 -6 -4 -7 -12 -11 -17 -10
-21 4 -24 -2 -13 -22 9 -17 8 -23 -2 -30 -10 -6 -11 -9 -1 -9 6 0 12 -4 12
-10 0 -20 -29 -9 -33 13 -4 21 -4 21 -6 1 -1 -16 -8 -21 -32 -22 -17 0 -34 -3
-37 -6 -3 -3 56 -6 132 -6 116 0 135 2 124 14 -7 8 -15 10 -18 6 -3 -5 -26 -8
-53 -8 -37 0 -47 3 -48 16 0 13 -2 13 -8 -3 -7 -17 -9 -16 -13 11 -6 42 16 62
42 39 10 -9 23 -14 28 -11 5 3 9 -1 9 -9 0 -8 -5 -11 -10 -8 -6 3 -7 2 -4 -4
6 -10 114 -9 124 1 7 7 -19 9 -57 6 -14 -1 -22 1 -18 5 4 4 25 7 47 7 22 0 43
3 46 9 4 5 18 9 33 9 15 0 23 4 17 8 -12 8 -15 82 -3 82 4 0 8 -15 8 -32 1
-28 2 -31 13 -17 7 9 22 14 35 13 20 -4 22 -1 16 24 -9 36 -11 37 -29 22 -12
-10 -15 -9 -15 5 0 14 -3 15 -14 6 -20 -16 -26 26 -10 64 7 17 13 26 14 20 0
-5 7 -1 16 10 13 18 14 17 8 -11 -4 -23 -2 -33 10 -37 19 -8 21 4 4 22 -11 11
-7 12 21 6 32 -7 34 -6 27 16 -4 13 -8 30 -8 37 -1 8 -5 9 -11 3 -7 -7 -6 -15
2 -25 8 -10 9 -16 1 -21 -5 -3 -11 -4 -11 -1 -11 48 -19 54 -70 51 -27 -2 -58
-9 -67 -17 -15 -12 -16 -11 -4 4 9 11 10 18 2 23 -6 3 -8 11 -5 16 7 10 2 12
-8 3z m-14 -63 c4 -1 12 -1 19 -1 8 0 9 -3 2 -10 -12 -12 -64 6 -64 22 0 5 8
4 18 -1 9 -5 20 -9 25 -10z m58 -64 c-10 -9 -11 -8 -5 6 3 10 9 15 12 12 3 -3
0 -11 -7 -18z m-24 -5 c1 -11 -5 -18 -16 -18 -10 0 -18 6 -18 13 0 7 4 10 8 7
4 -2 10 0 14 6 9 14 11 13 12 -8z"/>
<path d="M15930 9300 c0 -5 5 -10 11 -10 5 0 7 5 4 10 -3 6 -8 10 -11 10 -2 0
-4 -4 -4 -10z"/>
<path d="M16097 9299 c-10 -6 -24 -9 -31 -6 -6 3 -20 -1 -29 -8 -17 -12 -17
-13 0 -19 10 -4 19 -2 21 3 2 6 12 11 22 11 9 0 23 7 30 15 15 18 12 18 -13 4z"/>
<path d="M4486 9283 c-4 -10 -4 -14 0 -10 4 4 13 -1 20 -11 11 -15 9 -18 -13
-22 -26 -5 -45 -30 -23 -30 6 0 8 5 5 10 -3 6 4 10 17 10 19 0 20 -2 8 -11
-12 -9 -12 -10 4 -5 11 4 23 1 28 -6 5 -8 7 2 3 25 -5 36 -4 38 17 32 18 -5
20 -4 8 4 -8 6 -25 11 -38 11 -13 0 -20 4 -17 10 3 6 2 10 -3 10 -6 0 -13 -8
-16 -17z"/>
<path d="M15795 9290 c3 -5 8 -10 11 -10 2 0 4 5 4 10 0 6 -5 10 -11 10 -5 0
-7 -4 -4 -10z"/>
<path d="M16304 9293 c4 -7 2 -13 -3 -13 -6 0 -11 -10 -11 -23 0 -13 -6 -29
-12 -36 -11 -11 -9 -13 9 -8 13 3 26 0 30 -5 4 -7 1 -8 -8 -3 -11 6 -12 5 -2
-5 17 -18 29 -5 14 14 -7 8 -9 21 -5 27 5 8 3 9 -5 4 -10 -6 -11 -3 -1 15 9
17 9 25 -1 34 -9 8 -10 8 -5 -1z"/>
<path d="M16683 9293 c29 -3 37 -8 37 -24 0 -19 1 -19 16 -4 22 21 13 27 -43
30 -31 1 -35 1 -10 -2z"/>
<path d="M17140 9291 c0 -6 5 -13 10 -16 6 -3 10 1 10 9 0 9 -4 16 -10 16 -5
0 -10 -4 -10 -9z"/>
<path d="M16326 9275 c-3 -8 -1 -15 4 -15 6 0 10 7 10 15 0 8 -2 15 -4 15 -2
0 -6 -7 -10 -15z"/>
<path d="M4585 9270 c3 -5 11 -10 16 -10 6 0 7 5 4 10 -3 6 -11 10 -16 10 -6
0 -7 -4 -4 -10z"/>
<path d="M15995 9270 c-3 -5 -1 -10 4 -10 6 0 11 5 11 10 0 6 -2 10 -4 10 -3
0 -8 -4 -11 -10z"/>
<path d="M16213 9260 c-3 -11 -10 -20 -15 -20 -5 0 -6 -4 -3 -10 3 -5 11 -10
16 -10 6 0 7 5 3 11 -4 8 0 9 15 4 19 -6 31 8 14 18 -5 2 -3 3 3 1 6 -1 17 2
25 7 8 5 10 9 4 10 -5 0 -21 2 -33 5 -18 3 -25 -1 -29 -16z"/>
<path d="M15937 9253 c-4 -3 -7 -11 -7 -17 0 -6 5 -5 12 2 6 6 9 14 7 17 -3 3
-9 2 -12 -2z"/>
<path d="M16487 9246 c-3 -7 0 -22 7 -34 l12 -22 17 21 c10 11 15 24 12 28 -8
15 -43 19 -48 7z m40 -12 c-3 -3 -12 -4 -19 -1 -8 3 -5 6 6 6 11 1 17 -2 13
-5z"/>
<path d="M4434 9236 c1 -8 5 -18 8 -22 4 -3 5 1 4 10 -1 8 -5 18 -8 22 -4 3
-5 -1 -4 -10z"/>
<path d="M5130 9242 c0 -4 16 -7 36 -8 22 0 30 2 22 7 -16 11 -58 12 -58 1z"/>
<path d="M15235 9240 c45 -6 46 -7 15 -10 -19 -1 -41 -2 -47 -1 -7 1 -13 -2
-13 -6 0 -4 20 -9 45 -11 33 -1 47 2 51 13 8 21 25 19 18 -2 -5 -17 -5 -17 9
-1 8 10 18 14 22 10 5 -4 5 -1 1 6 -5 8 -31 11 -79 10 -71 -1 -71 -1 -22 -8z"/>
<path d="M16054 9242 c-12 -8 -14 -52 -2 -52 4 0 8 10 8 23 0 17 2 19 10 7 7
-12 9 -10 7 8 -1 23 -6 26 -23 14z"/>
<path d="M16251 9229 c-13 -10 -29 -19 -37 -19 -8 0 -14 -4 -14 -10 0 -5 3
-10 8 -9 18 3 51 -14 45 -24 -3 -5 -1 -7 5 -3 5 3 13 0 15 -6 3 -8 6 -6 6 5 1
20 5 21 32 7 13 -7 19 -7 19 0 0 5 -6 10 -14 10 -8 0 -17 6 -19 13 -4 9 -8 8
-16 -3 -9 -13 -12 -13 -23 -1 -9 10 -10 12 -1 7 9 -5 11 -2 6 9 -3 10 0 21 8
25 7 5 11 11 9 14 -3 2 -16 -4 -29 -15z"/>
<path d="M16363 9243 c-7 -2 -13 -12 -13 -21 0 -14 1 -14 13 0 6 9 19 18 27
21 13 5 13 5 0 5 -8 0 -21 -2 -27 -5z"/>
<path d="M16811 9243 c0 -6 -4 -20 -7 -30 -5 -14 -4 -15 5 -7 7 7 11 20 8 30
-3 11 -5 14 -6 7z"/>
<path d="M4560 9230 c-9 -6 -10 -10 -3 -10 6 0 15 5 18 10 8 12 4 12 -15 0z"/>
<path d="M5218 9233 c7 -3 16 -2 19 1 4 3 -2 6 -13 5 -11 0 -14 -3 -6 -6z"/>
<path d="M15820 9220 c0 -6 7 -10 15 -10 8 0 15 2 15 4 0 2 -7 6 -15 10 -8 3
-15 1 -15 -4z"/>
<path d="M16375 9221 c-3 -5 -1 -12 5 -16 5 -3 10 1 10 9 0 18 -6 21 -15 7z"/>
<path d="M15801 9204 c0 -11 3 -14 6 -6 3 7 2 16 -1 19 -3 4 -6 -2 -5 -13z"/>
<path d="M4326 9201 c-4 -7 -5 -15 -2 -18 9 -9 19 4 14 18 -4 11 -6 11 -12 0z"/>
<path d="M16547 9189 c-3 -12 -10 -18 -16 -14 -6 3 -11 2 -11 -3 0 -5 9 -12
19 -15 15 -3 18 -1 14 11 -4 8 -2 13 3 9 6 -3 16 -2 23 3 11 6 9 10 -7 19 -17
9 -21 7 -25 -10z"/>
<path d="M4560 9184 c0 -8 5 -12 10 -9 6 3 10 10 10 16 0 5 -4 9 -10 9 -5 0
-10 -7 -10 -16z"/>
<path d="M16135 9190 c3 -5 8 -10 11 -10 2 0 4 5 4 10 0 6 -5 10 -11 10 -5 0
-7 -4 -4 -10z"/>
<path d="M16735 9190 c-3 -6 1 -7 9 -4 18 7 21 14 7 14 -6 0 -13 -4 -16 -10z"/>
<path d="M16822 9160 c0 -19 2 -27 5 -17 2 9 2 25 0 35 -3 9 -5 1 -5 -18z"/>
<path d="M4408 9147 c10 -12 9 -16 -4 -21 -12 -5 -14 -9 -5 -20 6 -7 9 -15 7
-17 -2 -2 6 -4 19 -4 13 0 23 4 22 9 -1 5 4 11 12 14 8 3 11 0 7 -7 -5 -7 -1
-9 8 -5 9 3 16 10 16 16 0 5 -4 7 -9 4 -5 -3 -26 6 -47 20 -21 15 -33 20 -26
11z"/>
<path d="M4525 9150 c-3 -5 -1 -10 4 -10 6 0 11 5 11 10 0 6 -2 10 -4 10 -3 0
-8 -4 -11 -10z"/>
<path d="M16067 9146 c-4 -10 -3 -15 3 -11 6 3 10 1 10 -5 0 -7 -7 -9 -16 -6
-9 3 -18 6 -20 6 -3 0 -2 5 2 12 4 7 3 8 -5 4 -6 -4 -9 -11 -6 -16 3 -5 1 -11
-4 -14 -5 -3 -11 1 -15 9 -9 24 -26 17 -24 -9 1 -14 6 -22 12 -19 5 3 29 5 53
4 23 0 43 3 43 9 0 6 8 5 20 -2 11 -7 20 -18 20 -25 0 -6 5 -15 10 -18 6 -4
10 7 10 24 0 21 -5 31 -16 31 -8 0 -13 4 -10 9 3 5 -1 12 -10 15 -24 9 -31 7
-14 -4 13 -8 13 -10 -2 -10 -9 0 -21 7 -26 16 -8 15 -10 15 -15 0z"/>
<path d="M16500 9151 c0 -6 4 -13 10 -16 6 -3 7 1 4 9 -7 18 -14 21 -14 7z"/>
<path d="M16370 9126 c14 -16 20 -26 14 -23 -12 7 -29 -21 -19 -31 3 -3 5 0 5
6 0 13 32 16 44 5 13 -13 37 -11 43 4 5 12 7 12 14 1 6 -9 8 -6 6 10 -5 32
-24 49 -23 20 1 -31 -40 -34 -51 -4 -4 11 -6 26 -4 31 1 6 -3 4 -10 -2 -10
-10 -16 -10 -28 -1 -9 7 -5 -1 9 -16z"/>
<path d="M15686 9128 c3 -4 9 -8 15 -8 5 0 9 4 9 8 0 5 -7 9 -15 9 -8 0 -12
-4 -9 -9z"/>
<path d="M15825 9120 c-3 -5 -1 -10 4 -10 6 0 11 5 11 10 0 6 -2 10 -4 10 -3
0 -8 -4 -11 -10z"/>
<path d="M4010 9109 c-12 -9 -12 -10 4 -5 12 4 23 0 32 -11 12 -17 13 -17 10
2 -3 23 -24 30 -46 14z"/>
<path d="M4120 9111 c0 -5 5 -13 10 -16 6 -3 10 -2 10 4 0 5 -4 13 -10 16 -5
3 -10 2 -10 -4z"/>
<path d="M15855 9111 c-3 -5 -2 -12 3 -15 5 -3 9 1 9 9 0 17 -3 19 -12 6z"/>
<path d="M15920 9106 c0 -9 5 -16 10 -16 6 0 10 4 10 9 0 6 -4 13 -10 16 -5 3
-10 -1 -10 -9z"/>
<path d="M16673 9095 c4 -8 1 -17 -5 -21 -7 -5 -8 -2 -3 7 5 8 4 11 0 6 -5 -4
-9 -16 -10 -26 -2 -27 29 -20 33 7 2 12 8 22 13 22 6 0 7 5 4 10 -10 16 -38
12 -32 -5z"/>
<path d="M16100 9090 c0 -5 5 -10 10 -10 6 0 10 5 10 10 0 6 -4 10 -10 10 -5
0 -10 -4 -10 -10z"/>
<path d="M3712 9065 c0 -16 2 -22 5 -12 2 9 2 23 0 30 -3 6 -5 -1 -5 -18z"/>
<path d="M3805 9080 c-3 -5 1 -10 10 -10 9 0 13 5 10 10 -3 6 -8 10 -10 10 -2
0 -7 -4 -10 -10z"/>
<path d="M16821 9074 c0 -11 3 -14 6 -6 3 7 2 16 -1 19 -3 4 -6 -2 -5 -13z"/>
<path d="M4004 9050 c1 -33 22 -42 22 -10 0 11 -4 20 -9 20 -4 0 -5 5 -2 10 3
6 2 10 -3 10 -5 0 -9 -13 -8 -30z"/>
<path d="M15915 9070 c-3 -5 -1 -10 4 -10 6 0 11 5 11 10 0 6 -2 10 -4 10 -3
0 -8 -4 -11 -10z"/>
<path d="M16033 9043 c0 -7 4 -13 9 -13 5 0 6 -5 2 -11 -4 -7 -2 -10 5 -8 7 3
12 8 12 12 -1 4 -1 13 -1 20 0 8 -6 14 -13 14 -8 0 -14 -6 -14 -14z"/>
<path d="M16083 9033 c0 -15 6 -33 13 -41 8 -7 14 -10 14 -5 0 5 -5 14 -12 21
-9 9 -9 12 1 12 10 0 11 3 2 13 -6 8 -8 17 -4 20 3 4 2 7 -4 7 -6 0 -10 -12
-10 -27z"/>
<path d="M4460 9035 c-7 -9 -8 -15 -2 -15 5 0 12 7 16 15 3 8 4 15 2 15 -2 0
-9 -7 -16 -15z"/>
<path d="M15860 9040 c0 -5 5 -10 11 -10 5 0 7 5 4 10 -3 6 -8 10 -11 10 -2 0
-4 -4 -4 -10z"/>
<path d="M15926 9042 c-3 -5 1 -9 9 -9 8 0 12 4 9 9 -3 4 -7 8 -9 8 -2 0 -6
-4 -9 -8z"/>
<path d="M16126 9038 c3 -4 11 -5 19 -1 21 7 19 12 -4 10 -11 0 -18 -5 -15 -9z"/>
<path d="M4396 9028 c3 -5 10 -6 15 -3 13 9 11 12 -6 12 -8 0 -12 -4 -9 -9z"/>
<path d="M15988 9003 c-9 -11 -7 -12 7 -7 14 6 16 4 10 -6 -5 -9 -4 -11 3 -6
7 4 12 2 12 -4 0 -7 6 -8 18 -2 9 5 24 7 32 4 8 -2 12 -1 8 3 -4 4 -18 8 -30
9 -13 1 -22 7 -21 12 3 15 -25 13 -39 -3z"/>
<path d="M16509 8993 c-13 -16 -12 -17 4 -4 9 7 17 15 17 17 0 8 -8 3 -21 -13z"/>
<path d="M16821 8994 c0 -11 3 -14 6 -6 3 7 2 16 -1 19 -3 4 -6 -2 -5 -13z"/>
<path d="M4220 8962 c0 -7 4 -11 8 -8 5 3 24 8 43 11 48 9 47 13 -6 11 -30 0
-45 -5 -45 -14z"/>
<path d="M3650 8909 c0 -5 5 -7 10 -4 6 3 10 8 10 11 0 2 -4 4 -10 4 -5 0 -10
-5 -10 -11z"/>
<path d="M3668 8673 c7 -3 16 -2 19 1 4 3 -2 6 -13 5 -11 0 -14 -3 -6 -6z"/>
<path d="M5888 8363 c7 -3 16 -2 19 1 4 3 -2 6 -13 5 -11 0 -14 -3 -6 -6z"/>
<path d="M4263 8030 c0 -25 2 -35 4 -22 2 12 2 32 0 45 -2 12 -4 2 -4 -23z"/>
<path d="M18361 7900 l-1 -146 113 -3 c61 -2 128 -4 147 -5 l35 -1 3 115 c2
63 0 130 -3 148 l-6 32 -134 0 c-122 0 -135 -2 -136 -17 0 -15 -2 -15 -9 2 -5
12 -9 -35 -9 -125z m286 -62 c-2 -35 -3 -9 -3 57 0 66 1 94 3 63 2 -32 2 -86
0 -120z m-270 -10 c-2 -35 -3 -9 -3 57 0 66 1 94 3 63 2 -32 2 -86 0 -120z"/>
<path d="M2120 6971 l0 -149 150 -1 150 -2 0 151 0 150 -150 0 -150 0 0 -149z
m227 62 c-3 -10 -5 -4 -5 12 0 17 2 24 5 18 2 -7 2 -21 0 -30z m-210 5 c-3 -8
-6 -5 -6 6 -1 11 2 17 5 13 3 -3 4 -12 1 -19z m270 -75 c-2 -16 -4 -5 -4 22 0
28 2 40 4 28 2 -13 2 -35 0 -50z m-60 25 c-3 -8 -6 -5 -6 6 -1 11 2 17 5 13 3
-3 4 -12 1 -19z m-210 -50 c-3 -7 -5 -2 -5 12 0 14 2 19 5 13 2 -7 2 -19 0
-25z m210 10 c-3 -8 -6 -5 -6 6 -1 11 2 17 5 13 3 -3 4 -12 1 -19z m1 -105
c-27 -2 -69 -2 -95 0 -27 2 -5 3 47 3 52 0 74 -1 48 -3z"/>
<path d="M19286 7104 c-3 -9 -6 -144 -6 -300 l0 -284 300 0 300 0 0 300 0 300
-294 0 c-259 0 -295 -2 -300 -16z m21 -41 c-3 -10 -5 -4 -5 12 0 17 2 24 5 18
2 -7 2 -21 0 -30z m43 28 c0 -6 -4 -12 -8 -15 -5 -3 -9 1 -9 9 0 8 4 15 9 15
4 0 8 -4 8 -9z m517 -398 c-1 -76 -3 -14 -3 137 0 151 2 213 3 138 2 -76 2
-200 0 -275z m-570 -25 c-1 -68 -3 -15 -3 117 0 132 2 187 3 123 2 -64 2 -172
0 -240z m20 80 c-3 -7 -5 -2 -5 12 0 14 2 19 5 13 2 -7 2 -19 0 -25z m0 -135
c-2 -21 -4 -4 -4 37 0 41 2 58 4 38 2 -21 2 -55 0 -75z m20 70 c-3 -10 -5 -4
-5 12 0 17 2 24 5 18 2 -7 2 -21 0 -30z m0 -80 c-3 -10 -5 -2 -5 17 0 19 2 27
5 18 2 -10 2 -26 0 -35z m46 -70 c-18 -2 -48 -2 -65 0 -18 2 -4 4 32 4 36 0
50 -2 33 -4z"/>
<path d="M11962 5690 c0 -19 2 -27 5 -17 2 9 2 25 0 35 -3 9 -5 1 -5 -18z"/>
<path d="M9078 5653 c6 -2 18 -2 25 0 6 3 1 5 -13 5 -14 0 -19 -2 -12 -5z"/>
<path d="M11370 5656 c0 -2 7 -6 15 -10 8 -3 15 -1 15 4 0 6 -7 10 -15 10 -8
0 -15 -2 -15 -4z"/>
<path d="M11415 5650 c-3 -5 -1 -10 4 -10 6 0 11 5 11 10 0 6 -2 10 -4 10 -3
0 -8 -4 -11 -10z"/>
<path d="M8518 5643 c7 -3 16 -2 19 1 4 3 -2 6 -13 5 -11 0 -14 -3 -6 -6z"/>
<path d="M9798 5483 c7 -3 16 -2 19 1 4 3 -2 6 -13 5 -11 0 -14 -3 -6 -6z"/>
<path d="M10538 5483 c6 -2 18 -2 25 0 6 3 1 5 -13 5 -14 0 -19 -2 -12 -5z"/>
<path d="M10718 5483 c7 -3 16 -2 19 1 4 3 -2 6 -13 5 -11 0 -14 -3 -6 -6z"/>
<path d="M10788 5483 c12 -2 30 -2 40 0 9 3 -1 5 -23 4 -22 0 -30 -2 -17 -4z"/>
<path d="M19120 4896 c0 -57 -3 -123 -6 -148 l-6 -44 153 0 154 1 3 148 3 147
-151 0 -150 0 0 -104z m287 -128 c-3 -8 -6 -5 -6 6 -1 11 2 17 5 13 3 -3 4
-12 1 -19z"/>
<path d="M6380 3186 c0 -259 2 -295 16 -300 9 -3 144 -6 300 -6 l284 0 0 300
0 300 -300 0 -300 0 0 -294z m240 275 c0 -4 -11 -6 -25 -3 -14 2 -25 6 -25 8
0 2 11 4 25 4 14 0 25 -4 25 -9z m128 -1 c-29 -9 -85 -7 -95 4 -3 3 23 6 58 5
49 -1 58 -3 37 -9z m-351 -257 c-2 -16 -4 -5 -4 22 0 28 2 40 4 28 2 -13 2
-35 0 -50z m0 -85 c-3 -8 -6 -5 -6 6 -1 11 2 17 5 13 3 -3 4 -12 1 -19z"/>
<path d="M11691 2334 c0 -11 3 -14 6 -6 3 7 2 16 -1 19 -3 4 -6 -2 -5 -13z"/>
<path d="M13937 2269 c-5 -14 -7 -84 -5 -155 l3 -129 163 -3 162 -2 -2 142 -2
143 -6 -140 -6 -140 -2 148 -2 147 -117 0 c-65 0 -128 3 -140 6 -23 6 -23 5
-25 -112 l-2 -119 -6 120 c-3 83 -8 112 -13 94z m20 -271 c-3 -7 -5 -2 -5 12
0 14 2 19 5 13 2 -7 2 -19 0 -25z m201 -5 c-10 -2 -28 -2 -40 0 -13 2 -5 4 17
4 22 1 32 -1 23 -4z"/>
<path d="M1520 1970 l0 -310 302 2 c258 3 302 5 305 18 3 10 2 11 -4 3 -4 -6
-8 122 -8 285 0 164 3 266 6 227 l5 -70 2 71 c2 67 0 72 -20 78 -13 3 -150 6
-305 6 l-283 0 0 -310z"/>
<path d="M16540 1970 l0 -310 283 0 c263 0 285 1 301 18 15 17 16 50 14 308
l-3 289 -297 3 -298 2 0 -310z m183 293 c-13 -2 -35 -2 -50 0 -16 2 -5 4 22 4
28 0 40 -2 28 -4z m70 0 c-7 -2 -21 -2 -30 0 -10 3 -4 5 12 5 17 0 24 -2 18
-5z m60 0 c-7 -2 -21 -2 -30 0 -10 3 -4 5 12 5 17 0 24 -2 18 -5z m70 0 c-7
-2 -19 -2 -25 0 -7 3 -2 5 12 5 14 0 19 -2 13 -5z m114 0 c-20 -2 -52 -2 -70
0 -17 2 0 4 38 4 39 0 53 -2 32 -4z m70 1 c-3 -3 -12 -4 -19 -1 -8 3 -5 6 6 6
11 1 17 -2 13 -5z m20 -371 c-3 -10 -5 -4 -5 12 0 17 2 24 5 18 2 -7 2 -21 0
-30z m0 -105 c-3 -8 -6 -5 -6 6 -1 11 2 17 5 13 3 -3 4 -12 1 -19z m-550 -114
c-3 -3 -12 -4 -19 -1 -8 3 -5 6 6 6 11 1 17 -2 13 -5z m40 0 c-3 -3 -12 -4
-19 -1 -8 3 -5 6 6 6 11 1 17 -2 13 -5z m80 0 c-3 -3 -12 -4 -19 -1 -8 3 -5 6
6 6 11 1 17 -2 13 -5z m56 -1 c-7 -2 -21 -2 -30 0 -10 3 -4 5 12 5 17 0 24 -2
18 -5z m44 1 c-3 -3 -12 -4 -19 -1 -8 3 -5 6 6 6 11 1 17 -2 13 -5z m120 0
c-3 -3 -12 -4 -19 -1 -8 3 -5 6 6 6 11 1 17 -2 13 -5z"/>
</g>
</svg>
