<?xml version="1.0" standalone="no"?>
<!DOCTYPE svg PUBLIC "-//W3C//DTD SVG 20010904//EN"
 "http://www.w3.org/TR/2001/REC-SVG-20010904/DTD/svg10.dtd">
<svg version="1.0" xmlns="http://www.w3.org/2000/svg"
 width="1024.000000pt" height="1024.000000pt" viewBox="0 0 1024.000000 1024.000000"
 preserveAspectRatio="xMidYMid meet">

<g transform="translate(0.000000,1024.000000) scale(0.100000,-0.100000)"
fill="#000000" stroke="none">
<path d="M2850 8960 l0 -150 -145 0 -145 0 0 -150 0 -151 -142 2 -143 1 -3
-936 -2 -936 145 0 145 0 0 -1190 0 -1190 150 0 150 0 0 -1205 0 -1205 140 0
140 0 0 -140 0 -140 118 0 c176 0 162 13 162 -151 l0 -139 1700 0 1700 0 0
145 0 145 140 0 140 0 0 140 0 140 140 0 140 0 1 38 c1 20 1 562 0 1205 l-2
1167 150 0 151 0 0 1190 0 1190 145 0 145 0 0 935 0 934 -142 3 -143 3 -3 148
-3 147 -144 0 -145 0 0 150 0 150 -2270 0 -2270 0 0 -150z m4250 -440 l0 -290
-1980 0 -1980 0 0 290 0 290 1980 0 1980 0 0 -290z m288 -1462 l2 -838 -145 0
-145 0 0 -140 0 -140 -140 0 -140 0 0 -70 0 -70 -70 0 -70 0 -1 -102 c0 -57
-1 -119 -2 -138 l-2 -35 -495 0 -495 0 -3 208 -2 207 -140 0 -140 0 0 140 0
140 -140 0 -140 0 0 135 0 135 -780 0 -780 0 0 -135 0 -135 -349 0 -348 0 -5
158 c-5 137 -4 1104 0 1404 l2 107 108 3 c59 2 1077 3 2262 3 l2155 0 3 -837z
m-2556 -1115 l3 -138 143 -3 142 -3 0 -139 0 -140 140 0 140 0 0 -70 0 -70
140 0 140 0 0 -210 0 -210 500 0 500 0 0 140 0 140 70 0 70 0 0 70 0 70 140 0
140 0 0 -210 0 -210 -140 0 -140 0 0 -140 0 -140 -640 0 -640 0 0 140 0 140
-210 0 -210 0 0 140 0 139 -142 3 -143 3 -3 138 -3 137 -139 0 -140 0 0 70 0
70 -355 0 -355 0 0 -70 0 -70 -135 0 -135 0 0 -140 0 -140 -75 0 -75 0 0 -140
0 -140 -140 0 -140 0 0 420 0 420 215 0 215 0 0 140 0 140 630 0 629 0 3 -137z"/>
</g>
</svg>
